<svg xmlns="http://www.w3.org/2000/svg" class="httpgd" width="545.83" height="395.83"><defs><clipPath id="c0"><path d="M0 0h545.83v395.83H0z"/></clipPath><clipPath id="c1"><path d="M39 39.2h501.36v324.73H39z"/></clipPath><clipPath id="c2"><path d="M0 0h545.83v395.83H0z"/></clipPath><style>.httpgd polyline,.httpgd rect{fill:none;stroke:#000;stroke-linecap:round;stroke-linejoin:round;stroke-miterlimit:10}</style></defs><rect width="100%" height="100%" fill="#fff"/><g clip-path="url(#c0)"><path stroke-width="1.07" stroke="#fff" fill="#fff" d="M0 0h545.83v395.83H0z"/></g><g clip-path="url(#c1)"><path stroke-width="1.07" fill="#ebebeb" d="M39 39.2h501.36v324.73H39z"/><path stroke-width=".53" stroke="#fff" d="M39 308.78h501.35M39 228.02h501.35M39 147.25h501.35M39 66.48h501.35"/><path stroke-width="1.07" stroke="#fff" d="M39 349.17h501.35M39 268.4h501.35M39 187.63h501.35M39 106.86h501.35M63.66 363.93V39.2M104.75 363.93V39.2M145.84 363.93V39.2M186.94 363.93V39.2M228.03 363.93V39.2M269.13 363.93V39.2M310.22 363.93V39.2M351.32 363.93V39.2M392.41 363.93V39.2M433.51 363.93V39.2M474.6 363.93V39.2M515.7 363.93V39.2"/><path stroke-width="1.07" stroke-linecap="square" fill="#56b1f7" d="M45.16 159.77h36.99v189.4H45.16z"/><path stroke-width="1.07" stroke-linecap="square" fill="#3773a4" d="M86.26 119.79h36.99v229.38H86.26z"/><path stroke-width="1.07" stroke-linecap="square" fill="#3772a2" d="M127.35 118.57h36.99v230.6h-36.99z"/><path stroke-width="1.07" stroke-linecap="square" fill="#36709f" d="M168.45 116.96h36.99v232.21h-36.99z"/><path stroke-width="1.07" stroke-linecap="square" fill="#316794" d="M209.54 110.5h36.99v238.67h-36.99z"/><path stroke-width="1.07" stroke-linecap="square" fill="#2a5982" d="M250.64 99.19h36.99v249.98h-36.99z"/><path stroke-width="1.07" stroke-linecap="square" fill="#1f4262" d="M291.73 78.19h36.99v270.98h-36.99z"/><path stroke-width="1.07" stroke-linecap="square" fill="#1b3b59" d="M332.83 71.32h36.99v277.85h-36.99z"/><path stroke-width="1.07" stroke-linecap="square" fill="#1d3f5e" d="M373.92 74.96h36.99v274.21h-36.99z"/><path stroke-width="1.07" stroke-linecap="square" fill="#132b43" d="M415.02 53.96h36.99v295.21h-36.99z"/><path stroke-width="1.07" stroke-linecap="square" fill="#17334d" d="M456.11 62.44h36.99v286.73h-36.99z"/><path stroke-width="1.07" stroke-linecap="square" fill="#193753" d="M497.2 66.88h36.99v282.29H497.2z"/><text x="63.66" y="163.72" text-anchor="middle" textLength="18.4" lengthAdjust="spacingAndGlyphs" font-family="Arial" font-size="11.04">469</text><text x="104.75" y="123.74" text-anchor="middle" textLength="18.4" lengthAdjust="spacingAndGlyphs" font-family="Arial" font-size="11.04">568</text><text x="145.84" y="122.53" text-anchor="middle" textLength="18.4" lengthAdjust="spacingAndGlyphs" font-family="Arial" font-size="11.04">571</text><text x="186.94" y="120.91" text-anchor="middle" textLength="18.4" lengthAdjust="spacingAndGlyphs" font-family="Arial" font-size="11.04">575</text><text x="228.03" y="114.45" text-anchor="middle" textLength="18.4" lengthAdjust="spacingAndGlyphs" font-family="Arial" font-size="11.04">591</text><text x="269.13" y="103.15" text-anchor="middle" textLength="18.4" lengthAdjust="spacingAndGlyphs" font-family="Arial" font-size="11.04">619</text><text x="310.22" y="82.15" text-anchor="middle" textLength="18.4" lengthAdjust="spacingAndGlyphs" font-family="Arial" font-size="11.04">671</text><text x="351.32" y="75.28" text-anchor="middle" textLength="18.4" lengthAdjust="spacingAndGlyphs" font-family="Arial" font-size="11.04">688</text><text x="392.41" y="78.91" text-anchor="middle" textLength="18.4" lengthAdjust="spacingAndGlyphs" font-family="Arial" font-size="11.04">679</text><text x="433.51" y="57.91" text-anchor="middle" textLength="18.4" lengthAdjust="spacingAndGlyphs" font-family="Arial" font-size="11.04">731</text><text x="474.6" y="66.4" text-anchor="middle" textLength="18.4" lengthAdjust="spacingAndGlyphs" font-family="Arial" font-size="11.04">710</text><text x="515.7" y="70.84" text-anchor="middle" textLength="18.4" lengthAdjust="spacingAndGlyphs" font-family="Arial" font-size="11.04">699</text></g><g clip-path="url(#c2)"><text x="34.07" y="352.38" text-anchor="end" textLength="5.28" lengthAdjust="spacingAndGlyphs" font-family="JetBrains Mono" font-size="8.8" fill="#4d4d4d">0</text><text x="34.07" y="271.61" text-anchor="end" textLength="15.83" lengthAdjust="spacingAndGlyphs" font-family="JetBrains Mono" font-size="8.8" fill="#4d4d4d">200</text><text x="34.07" y="190.84" text-anchor="end" textLength="15.83" lengthAdjust="spacingAndGlyphs" font-family="JetBrains Mono" font-size="8.8" fill="#4d4d4d">400</text><text x="34.07" y="110.07" text-anchor="end" textLength="15.83" lengthAdjust="spacingAndGlyphs" font-family="JetBrains Mono" font-size="8.8" fill="#4d4d4d">600</text><path stroke-width="1.07" stroke="#333" d="M36.26 349.17H39M36.26 268.4H39M36.26 187.63H39M36.26 106.86H39M63.66 366.67v-2.74M104.75 366.67v-2.74M145.84 366.67v-2.74M186.94 366.67v-2.74M228.03 366.67v-2.74M269.13 366.67v-2.74M310.22 366.67v-2.74M351.32 366.67v-2.74M392.41 366.67v-2.74M433.51 366.67v-2.74M474.6 366.67v-2.74M515.7 366.67v-2.74"/><text x="63.66" y="375.28" text-anchor="middle" textLength="21.11" lengthAdjust="spacingAndGlyphs" font-family="JetBrains Mono" font-size="8.8" fill="#4d4d4d">2008</text><text x="104.75" y="375.28" text-anchor="middle" textLength="21.11" lengthAdjust="spacingAndGlyphs" font-family="JetBrains Mono" font-size="8.8" fill="#4d4d4d">2009</text><text x="145.84" y="375.28" text-anchor="middle" textLength="21.11" lengthAdjust="spacingAndGlyphs" font-family="JetBrains Mono" font-size="8.8" fill="#4d4d4d">2010</text><text x="186.94" y="375.28" text-anchor="middle" textLength="21.11" lengthAdjust="spacingAndGlyphs" font-family="JetBrains Mono" font-size="8.8" fill="#4d4d4d">2011</text><text x="228.03" y="375.28" text-anchor="middle" textLength="21.11" lengthAdjust="spacingAndGlyphs" font-family="JetBrains Mono" font-size="8.8" fill="#4d4d4d">2012</text><text x="269.13" y="375.28" text-anchor="middle" textLength="21.11" lengthAdjust="spacingAndGlyphs" font-family="JetBrains Mono" font-size="8.8" fill="#4d4d4d">2013</text><text x="310.22" y="375.28" text-anchor="middle" textLength="21.11" lengthAdjust="spacingAndGlyphs" font-family="JetBrains Mono" font-size="8.8" fill="#4d4d4d">2014</text><text x="351.32" y="375.28" text-anchor="middle" textLength="21.11" lengthAdjust="spacingAndGlyphs" font-family="JetBrains Mono" font-size="8.8" fill="#4d4d4d">2015</text><text x="392.41" y="375.28" text-anchor="middle" textLength="21.11" lengthAdjust="spacingAndGlyphs" font-family="JetBrains Mono" font-size="8.8" fill="#4d4d4d">2016</text><text x="433.51" y="375.28" text-anchor="middle" textLength="21.11" lengthAdjust="spacingAndGlyphs" font-family="JetBrains Mono" font-size="8.8" fill="#4d4d4d">2017</text><text x="474.6" y="375.28" text-anchor="middle" textLength="21.11" lengthAdjust="spacingAndGlyphs" font-family="JetBrains Mono" font-size="8.8" fill="#4d4d4d">2018</text><text x="515.7" y="375.28" text-anchor="middle" textLength="21.11" lengthAdjust="spacingAndGlyphs" font-family="JetBrains Mono" font-size="8.8" fill="#4d4d4d">2019</text><text transform="rotate(-90 107.535 94.025)" text-anchor="middle" textLength="66.02" lengthAdjust="spacingAndGlyphs" font-family="JetBrains Mono" font-size="11">Death toll</text><text x="39" y="31.74" textLength="382.94" lengthAdjust="spacingAndGlyphs" font-family="JetBrains Mono" font-size="11">death data from 2008 to 2019 in the nation&apos;s biggest jails</text><text x="289.68" y="15.7" text-anchor="middle" textLength="504.14" lengthAdjust="spacingAndGlyphs" font-family="JetBrains Mono" font-size="14">Total number of deaths in large prisons in the United States</text><text x="540.35" y="388.77" text-anchor="end" textLength="443.32" lengthAdjust="spacingAndGlyphs" font-family="JetBrains Mono" font-size="8.8">Data sources: https://www.reuters.com/investigates/special-report/usa-jails-graphic/</text></g></svg>