<svg xmlns="http://www.w3.org/2000/svg" class="httpgd" width="943.33" height="665.83"><defs><clipPath id="c0"><path d="M0 0h943.33v665.83H0z"/></clipPath><clipPath id="c1"><path d="M39 39.2h766.03v594.73H39z"/></clipPath><clipPath id="c2"><path d="M0 0h943.33v665.83H0z"/></clipPath><style><![CDATA[.httpgd line,.httpgd polyline,.httpgd polygon,.httpgd path,.httpgd rect,.httpgd circle{fill:none;stroke:#000000;stroke-linecap:round;stroke-linejoin:round;stroke-miterlimit:10.00}]]></style></defs><rect width="100%" height="100%" style="stroke:none;fill:#FFFFFF"/><g clip-path="url(#c0)"><path style="stroke-width:1.07;stroke:#FFFFFF;fill:#FFFFFF" d="M0 0h943.33v665.83H0z"/></g><g clip-path="url(#c1)"><path style="stroke-width:1.07;stroke:none;fill:#EBEBEB" d="M39 39.2h766.03v594.73H39z"/><path style="stroke-width:0.53;stroke:#FFFFFF;stroke-linecap:butt" d="M39 499.62h766.03M39 285.07h766.03M39 70.52h766.03"/><path style="stroke-width:1.07;stroke:#FFFFFF;stroke-linecap:butt" d="M39 606.9h766.03M39 392.35h766.03M39 177.8h766.03M76.67 633.93V39.2M139.46 633.93V39.2M202.25 633.93V39.2M265.04 633.93V39.2M327.83 633.93V39.2M390.62 633.93V39.2M453.41 633.93V39.2M516.2 633.93V39.2M578.99 633.93V39.2M641.78 633.93V39.2M704.57 633.93V39.2M767.36 633.93V39.2"/><path style="stroke-width:1.07;stroke:#F8766D;stroke-linecap:butt" d="M76.67 589.73h62.79l62.79 4.29 62.79-12.87 62.79 8.58 62.79-25.74 62.79 25.74 62.79-12.87 62.79-4.29 62.79 12.87 62.79-12.87 62.79-38.62"/><path style="stroke-width:1.07;stroke:#F27C56;stroke-linecap:butt" d="M76.67 594.02h62.79l62.79-4.29 62.79-4.29 62.79-12.87 62.79-4.29 62.79-12.88 62.79 21.46 62.79 12.87h62.79l62.79-17.16 62.79 17.16"/><path style="stroke-width:1.07;stroke:#EC823A;stroke-linecap:butt" d="M76.67 559.7l62.79 8.58 62.79-17.17 62.79 34.33 62.79-4.29 62.79-34.33 62.79-17.16 62.79-30.04 62.79 12.87 62.79-25.74 62.79 8.58 62.79 34.33"/><path style="stroke-width:1.07;stroke:#E58700;stroke-linecap:butt" d="M76.67 237.87l62.79-111.57 62.79 72.95 62.79 94.4 62.79-85.82 62.79-47.2 62.79-51.49 62.79 25.75 62.79 51.49 62.79-34.33 62.79 12.87 62.79-98.69"/><path style="stroke-width:1.07;stroke:#DC8D00;stroke-linecap:butt" d="M76.67 559.7h62.79l62.79-30.04 62.79 34.33 62.79 8.58 62.79-21.46 62.79 4.29 62.79-47.2 62.79 17.17 62.79-30.04 62.79 55.78 62.79-34.32"/><path style="stroke-width:1.07;stroke:#D39200;stroke-linecap:butt" d="M76.67 581.15l62.79-4.29 62.79 12.87 62.79-8.58 62.79 17.16 62.79-17.16 62.79 12.87 62.79 12.88 62.79-25.75 62.79-4.29 62.79 21.45 62.79-4.29"/><path style="stroke-width:1.07;stroke:#C99800;stroke-linecap:butt" d="M76.67 439.55l62.79-81.53 62.79 60.07 62.79-68.65 62.79 4.29 62.79 55.78 62.79-94.4h62.79l62.79 64.36 62.79-120.14 62.79-4.3 62.79 4.3"/><path style="stroke-width:1.07;stroke:#BD9C00;stroke-linecap:butt" d="M76.67 503.91l62.79 34.33 62.79-30.04 62.79-21.45 62.79 47.2 62.79-21.46h62.79l62.79 12.88 62.79-8.58 62.79-17.17h62.79l62.79-21.45"/><path style="stroke-width:1.07;stroke:#B1A100;stroke-linecap:butt" d="M76.67 606.9l62.79-12.88 62.79 4.29 62.79-4.29h62.79l62.79-17.16 62.79 12.87 62.79 12.88 62.79-12.88 62.79 17.17 62.79-8.59 62.79-8.58"/><path style="stroke-width:1.07;stroke:#A3A500;stroke-linecap:butt" d="M76.67 598.31l62.79 4.3 62.79-4.3 62.79-8.58 62.79 8.58 62.79-8.58h62.79l62.79 4.29 62.79-8.58 62.79 17.17 62.79-21.46h62.79"/><path style="stroke-width:1.07;stroke:#93AA00;stroke-linecap:butt" d="M76.67 606.9l62.79-8.59 62.79-47.2h62.79l62.79-17.16 62.79-38.62 62.79 17.16 62.79 25.75 62.79 4.29 62.79-21.45 62.79 38.62 62.79-21.46"/><path style="stroke-width:1.07;stroke:#81AD00;stroke-linecap:butt" d="M76.67 585.44l62.79-12.87 62.79-8.58 62.79-8.59 62.79 30.04 62.79-4.29 62.79-8.58 62.79-4.29h62.79l62.79-8.58 62.79 12.87 62.79-30.04"/><path style="stroke-width:1.07;stroke:#6BB100;stroke-linecap:butt" d="M76.67 576.86l62.79-4.29 62.79 12.87 62.79 17.17 62.79-30.04 62.79-8.58 62.79 34.32 62.79-30.03 62.79-8.58 62.79 25.74 62.79-8.58 62.79 4.29"/><path style="stroke-width:1.07;stroke:#4EB400;stroke-linecap:butt" d="M76.67 572.57l62.79-8.58h62.79l62.79 17.16 62.79-38.62 62.79 38.62 62.79-4.29 62.79-21.46 62.79 30.04h62.79l62.79-47.2 62.79 30.04"/><path style="stroke-width:1.07;stroke:#15B700;stroke-linecap:butt" d="M76.67 559.7h188.37l62.79-42.91 62.79 8.58 62.79 30.03 62.79-17.16 62.79 4.29 62.79-47.2 62.79 25.75 62.79 38.62"/><path style="stroke-width:1.07;stroke:#00BA38;stroke-linecap:butt" d="M76.67 542.53l62.79-30.04 62.79 12.88 62.79 42.91 62.79-60.08 62.79 21.46 62.79-8.58 62.79 21.45h62.79l62.79-21.45 62.79 34.32h62.79"/><path style="stroke-width:1.07;stroke:#00BC54;stroke-linecap:butt" d="M76.67 525.37h62.79l62.79-4.29 62.79 25.74h62.79l62.79-17.16 62.79 34.33 62.79-8.59h62.79l62.79-17.16 62.79 4.29 62.79 17.17"/><path style="stroke-width:1.07;stroke:#00BE6A;stroke-linecap:butt" d="M76.67 598.31l62.79 4.3 62.79-12.88 62.79-4.29 62.79 21.46 62.79-8.59 62.79-8.58 62.79 17.17 62.79-12.88h125.58l62.79 4.29"/><path style="stroke-width:1.07;stroke:#00BF7D;stroke-linecap:butt" d="M76.67 585.44l62.79-25.74h62.79l62.79-38.62 62.79 38.62 62.79-12.88 62.79-34.33 62.79 34.33 62.79-4.29h62.79l62.79-17.16 62.79 38.62"/><path style="stroke-width:1.07;stroke:#00C08F;stroke-linecap:butt" d="M76.67 594.02h62.79l62.79-12.87 62.79 12.87h125.58l62.79-8.58 62.79 8.58 62.79 4.29 62.79-25.74 62.79 21.45 62.79-12.87"/><path style="stroke-width:1.07;stroke:#00C19F;stroke-linecap:butt" d="M76.67 572.57h62.79l62.79 8.58 62.79 4.29 62.79-30.04h62.79l62.79 30.04 62.79-8.58 62.79-30.04 62.79 12.88 62.79-4.3h62.79"/><path style="stroke-width:1.07;stroke:#00C0AF;stroke-linecap:butt" d="M76.67 589.73l62.79-8.58h62.79l62.79 21.46 62.79-4.3 62.79-25.74 62.79 4.29 62.79 8.58 62.79 8.58 62.79 4.29 62.79-30.03 62.79 17.16"/><path style="stroke-width:1.07;stroke:#00C0BD;stroke-linecap:butt" d="M76.67 602.61l62.79-12.88h62.79l62.79-8.58 62.79 12.87h62.79l62.79 4.29 62.79-12.87 62.79 17.17h62.79l62.79-12.88 62.79 17.17"/><path style="stroke-width:1.07;stroke:#00BECB;stroke-linecap:butt" d="M76.67 555.4l62.79 21.46 62.79-17.16 62.79 8.58 62.79 4.29 62.79 12.87 62.79-12.87 62.79-17.17 62.79 21.46 62.79-17.16 62.79-30.04 62.79 25.74"/><path style="stroke-width:1.07;stroke:#00BCD8;stroke-linecap:butt" d="M76.67 602.61l62.79-4.3 62.79 4.3h62.79l62.79-8.59h125.58l62.79 4.29h125.58l62.79-4.29 62.79 12.88"/><path style="stroke-width:1.07;stroke:#00B9E3;stroke-linecap:butt" d="M76.67 594.02l62.79-12.87 62.79 12.87 62.79-8.58 62.79 17.17 62.79-12.88h62.79l62.79 8.58 62.79-8.58 62.79-25.74 62.79 30.03 62.79 4.29"/><path style="stroke-width:1.07;stroke:#00B5EE;stroke-linecap:butt" d="M76.67 594.02l62.79-8.58 62.79 17.17 62.79-12.88 62.79 8.58 62.79 4.3 62.79-4.3 62.79 8.59 62.79-30.04 62.79 4.29 62.79 8.58 62.79-8.58"/><path style="stroke-width:1.07;stroke:#00B0F6;stroke-linecap:butt" d="M76.67 555.4l62.79-30.03 62.79-34.33 62.79 38.62 62.79 12.87 62.79-17.16 62.79-34.33 62.79 12.87 62.79 4.29 62.79 30.04 62.79-12.87 62.79 38.62"/><path style="stroke-width:1.07;stroke:#00AAFE;stroke-linecap:butt" d="M76.67 568.28l62.79 12.87 62.79-34.33 62.79-30.03 62.79 34.32 62.79 30.04h62.79l62.79-34.33 62.79 17.17 62.79 17.16 62.79 17.16 62.79-38.61"/><path style="stroke-width:1.07;stroke:#18A3FF;stroke-linecap:butt" d="M76.67 598.31l62.79-8.58 62.79-12.87 62.79-8.58 62.79-4.29 62.79 17.16 62.79-17.16 62.79-25.75 62.79 8.58 62.79 17.17 62.79-12.88 62.79-25.74"/><path style="stroke-width:1.07;stroke:#619CFF;stroke-linecap:butt" d="M76.67 559.7l62.79-12.88 62.79 4.29 62.79 4.29 62.79-34.32 62.79-8.59 62.79 38.62 62.79 4.29 62.79-47.2 62.79 55.79 62.79-8.59 62.79 8.59"/><path style="stroke-width:1.07;stroke:#8694FF;stroke-linecap:butt" d="M76.67 546.82h62.79l62.79 17.17 62.79-17.17 62.79-8.58 62.79 12.87 62.79-25.74 62.79 21.45 62.79 4.29 62.79-21.45 62.79-51.49 62.79 47.2"/><path style="stroke-width:1.07;stroke:#A28BFF;stroke-linecap:butt" d="M76.67 572.57l62.79-8.58 62.79-25.75 62.79 8.58 62.79 38.62 62.79-25.74 62.79-17.17 62.79 21.46 62.79-64.37 62.79 30.04 62.79 12.87 62.79 25.75"/><path style="stroke-width:1.07;stroke:#B983FF;stroke-linecap:butt" d="M76.67 594.02l62.79 4.29 62.79-25.74 62.79 4.29 62.79 21.45h62.79l62.79-25.74 62.79-8.58 62.79 25.74 62.79-17.16 62.79 12.87 62.79-12.87"/><path style="stroke-width:1.07;stroke:#CB7AFF;stroke-linecap:butt" d="M76.67 478.17l62.79 12.87 62.79 17.16 62.79-34.32 62.79-42.91 62.79 47.2 62.79-55.79 62.79 25.75 62.79 42.91h62.79l62.79-21.46 62.79-30.03"/><path style="stroke-width:1.07;stroke:#DB72FB;stroke-linecap:butt" d="M76.67 572.57l62.79-8.58 62.79 4.29 62.79 17.16 62.79-21.45 62.79 12.87h62.79l62.79-21.46 62.79 4.3 62.79-51.5 62.79 64.37 62.79-12.87"/><path style="stroke-width:1.07;stroke:#E76BF3;stroke-linecap:butt" d="M76.67 602.61l62.79 4.29h62.79l62.79-4.29 62.79 4.29h62.79l62.79-8.59 62.79-4.29 62.79-8.58 62.79 21.46 62.79-8.59 62.79 4.3"/><path style="stroke-width:1.07;stroke:#F166E9;stroke-linecap:butt" d="M76.67 598.31l62.79-30.03 62.79 12.87 62.79-51.49 62.79 30.04 62.79 21.45 62.79-25.75 62.79-4.29 62.79-12.87 62.79-21.45h62.79l62.79 47.2"/><path style="stroke-width:1.07;stroke:#F862DE;stroke-linecap:butt" d="M76.67 456.71l62.79-25.74 62.79-21.46 62.79 30.04L327.83 461l62.79-81.53 62.79 68.66 62.79-30.04 62.79 12.88 62.79-38.62 62.79 30.03 62.79-42.91"/><path style="stroke-width:1.07;stroke:#FD61D1;stroke-linecap:butt" d="M76.67 602.61l62.79-25.75 62.79 4.29 62.79-30.04 62.79 17.17 62.79-42.91h62.79l62.79 34.33 62.79-34.33 62.79 60.07 62.79-4.29 62.79-12.87"/><path style="stroke-width:1.07;stroke:#FF61C3;stroke-linecap:butt" d="M76.67 529.66l62.79-17.17 62.79 34.33 62.79-30.03 62.79 25.74 62.79 17.17 62.79-47.21 62.79 12.88 62.79-17.17 62.79-4.29 62.79 38.62 62.79 8.58"/><path style="stroke-width:1.07;stroke:#FF63B4;stroke-linecap:butt" d="M76.67 563.99l62.79 4.29 62.79-12.88 62.79 12.88 62.79-55.79 62.79 47.21 62.79-4.3 62.79-42.91 62.79 51.5 62.79-21.46 62.79-38.62 62.79 42.91"/><path style="stroke-width:1.07;stroke:#FF67A4;stroke-linecap:butt" d="M76.67 572.57l62.79-4.29 62.79 17.16 62.79-12.87 62.79 17.16 62.79 8.58h62.79l62.79-34.32 62.79-34.33 62.79 25.74 62.79 12.88 62.79 30.03"/><path style="stroke-width:1.07;stroke:#FF6B93;stroke-linecap:butt" d="M76.67 589.73l62.79-12.87 62.79 8.58 62.79-17.16 62.79-4.29 62.79 12.87 62.79-17.16 62.79-4.3 62.79-8.58 62.79 12.88h62.79l62.79-12.88"/><path style="stroke-width:1.07;stroke:#FC7181;stroke-linecap:butt" d="M76.67 606.9l62.79-4.29h125.58l62.79-12.88 62.79 12.88 62.79 4.29 62.79-12.88h62.79l62.79 4.29 62.79 4.3 62.79-4.3"/></g><g clip-path="url(#c2)"><text x="34.07" y="610.11" text-anchor="end" style="font-family:JetBrains Mono;font-size:8.80px;fill:#4D4D4D" textLength="5.28" lengthAdjust="spacingAndGlyphs">0</text><text x="34.07" y="395.56" text-anchor="end" style="font-family:JetBrains Mono;font-size:8.80px;fill:#4D4D4D" textLength="10.56" lengthAdjust="spacingAndGlyphs">50</text><text x="34.07" y="181.01" text-anchor="end" style="font-family:JetBrains Mono;font-size:8.80px;fill:#4D4D4D" textLength="15.83" lengthAdjust="spacingAndGlyphs">100</text><path style="stroke-width:1.07;stroke:#333333;stroke-linecap:butt" d="M36.26 606.9H39M36.26 392.35H39M36.26 177.8H39M76.67 636.67v-2.74M139.46 636.67v-2.74M202.25 636.67v-2.74M265.04 636.67v-2.74M327.83 636.67v-2.74M390.62 636.67v-2.74M453.41 636.67v-2.74M516.2 636.67v-2.74M578.99 636.67v-2.74M641.78 636.67v-2.74M704.57 636.67v-2.74M767.36 636.67v-2.74"/><text x="76.67" y="645.28" text-anchor="middle" style="font-family:JetBrains Mono;font-size:8.80px;fill:#4D4D4D" textLength="21.11" lengthAdjust="spacingAndGlyphs">2008</text><text x="139.46" y="645.28" text-anchor="middle" style="font-family:JetBrains Mono;font-size:8.80px;fill:#4D4D4D" textLength="21.11" lengthAdjust="spacingAndGlyphs">2009</text><text x="202.25" y="645.28" text-anchor="middle" style="font-family:JetBrains Mono;font-size:8.80px;fill:#4D4D4D" textLength="21.11" lengthAdjust="spacingAndGlyphs">2010</text><text x="265.04" y="645.28" text-anchor="middle" style="font-family:JetBrains Mono;font-size:8.80px;fill:#4D4D4D" textLength="21.11" lengthAdjust="spacingAndGlyphs">2011</text><text x="327.83" y="645.28" text-anchor="middle" style="font-family:JetBrains Mono;font-size:8.80px;fill:#4D4D4D" textLength="21.11" lengthAdjust="spacingAndGlyphs">2012</text><text x="390.62" y="645.28" text-anchor="middle" style="font-family:JetBrains Mono;font-size:8.80px;fill:#4D4D4D" textLength="21.11" lengthAdjust="spacingAndGlyphs">2013</text><text x="453.41" y="645.28" text-anchor="middle" style="font-family:JetBrains Mono;font-size:8.80px;fill:#4D4D4D" textLength="21.11" lengthAdjust="spacingAndGlyphs">2014</text><text x="516.2" y="645.28" text-anchor="middle" style="font-family:JetBrains Mono;font-size:8.80px;fill:#4D4D4D" textLength="21.11" lengthAdjust="spacingAndGlyphs">2015</text><text x="578.99" y="645.28" text-anchor="middle" style="font-family:JetBrains Mono;font-size:8.80px;fill:#4D4D4D" textLength="21.11" lengthAdjust="spacingAndGlyphs">2016</text><text x="641.78" y="645.28" text-anchor="middle" style="font-family:JetBrains Mono;font-size:8.80px;fill:#4D4D4D" textLength="21.11" lengthAdjust="spacingAndGlyphs">2017</text><text x="704.57" y="645.28" text-anchor="middle" style="font-family:JetBrains Mono;font-size:8.80px;fill:#4D4D4D" textLength="21.11" lengthAdjust="spacingAndGlyphs">2018</text><text x="767.36" y="645.28" text-anchor="middle" style="font-family:JetBrains Mono;font-size:8.80px;fill:#4D4D4D" textLength="21.11" lengthAdjust="spacingAndGlyphs">2019</text><text transform="rotate(-90 175.035 161.525)" text-anchor="middle" style="font-family:JetBrains Mono;font-size:11.00px" textLength="66.02" lengthAdjust="spacingAndGlyphs">Death toll</text><path style="stroke-width:1.07;stroke:none;fill:#FFFFFF" d="M815.99 193.74h121.86v285.65H815.99z"/><text x="821.47" y="208.24" style="font-family:JetBrains Mono;font-size:11.00px" textLength="33.01" lengthAdjust="spacingAndGlyphs">state</text><path style="stroke-width:1.07;stroke:none;fill:#F2F2F2" d="M821.47 214.71h17.28v17.28h-17.28z"/><path style="stroke-width:1.07;stroke:#F8766D;stroke-linecap:butt" d="M823.2 223.35h13.82"/><path style="stroke-width:1.07;stroke:none;fill:#F2F2F2" d="M821.47 231.99h17.28v17.28h-17.28z"/><path style="stroke-width:1.07;stroke:#F27C56;stroke-linecap:butt" d="M823.2 240.63h13.82"/><path style="stroke-width:1.07;stroke:none;fill:#F2F2F2" d="M821.47 249.27h17.28v17.28h-17.28z"/><path style="stroke-width:1.07;stroke:#EC823A;stroke-linecap:butt" d="M823.2 257.91h13.82"/><path style="stroke-width:1.07;stroke:none;fill:#F2F2F2" d="M821.47 266.55h17.28v17.28h-17.28z"/><path style="stroke-width:1.07;stroke:#E58700;stroke-linecap:butt" d="M823.2 275.19h13.82"/><path style="stroke-width:1.07;stroke:none;fill:#F2F2F2" d="M821.47 283.83h17.28v17.28h-17.28z"/><path style="stroke-width:1.07;stroke:#DC8D00;stroke-linecap:butt" d="M823.2 292.47h13.82"/><path style="stroke-width:1.07;stroke:none;fill:#F2F2F2" d="M821.47 301.11h17.28v17.28h-17.28z"/><path style="stroke-width:1.07;stroke:#D39200;stroke-linecap:butt" d="M823.2 309.75h13.82"/><path style="stroke-width:1.07;stroke:none;fill:#F2F2F2" d="M821.47 318.39h17.28v17.28h-17.28z"/><path style="stroke-width:1.07;stroke:#C99800;stroke-linecap:butt" d="M823.2 327.03h13.82"/><path style="stroke-width:1.07;stroke:none;fill:#F2F2F2" d="M821.47 335.67h17.28v17.28h-17.28z"/><path style="stroke-width:1.07;stroke:#BD9C00;stroke-linecap:butt" d="M823.2 344.31h13.82"/><path style="stroke-width:1.07;stroke:none;fill:#F2F2F2" d="M821.47 352.95h17.28v17.28h-17.28z"/><path style="stroke-width:1.07;stroke:#B1A100;stroke-linecap:butt" d="M823.2 361.59h13.82"/><path style="stroke-width:1.07;stroke:none;fill:#F2F2F2" d="M821.47 370.23h17.28v17.28h-17.28z"/><path style="stroke-width:1.07;stroke:#A3A500;stroke-linecap:butt" d="M823.2 378.87h13.82"/><path style="stroke-width:1.07;stroke:none;fill:#F2F2F2" d="M821.47 387.51h17.28v17.28h-17.28z"/><path style="stroke-width:1.07;stroke:#93AA00;stroke-linecap:butt" d="M823.2 396.15h13.82"/><path style="stroke-width:1.07;stroke:none;fill:#F2F2F2" d="M821.47 404.79h17.28v17.28h-17.28z"/><path style="stroke-width:1.07;stroke:#81AD00;stroke-linecap:butt" d="M823.2 413.43h13.82"/><path style="stroke-width:1.07;stroke:none;fill:#F2F2F2" d="M821.47 422.07h17.28v17.28h-17.28z"/><path style="stroke-width:1.07;stroke:#6BB100;stroke-linecap:butt" d="M823.2 430.71h13.82"/><path style="stroke-width:1.07;stroke:none;fill:#F2F2F2" d="M821.47 439.35h17.28v17.28h-17.28z"/><path style="stroke-width:1.07;stroke:#4EB400;stroke-linecap:butt" d="M823.2 447.99h13.82"/><path style="stroke-width:1.07;stroke:none;fill:#F2F2F2" d="M821.47 456.63h17.28v17.28h-17.28z"/><path style="stroke-width:1.07;stroke:#15B700;stroke-linecap:butt" d="M823.2 465.27h13.82"/><path style="stroke-width:1.07;stroke:none;fill:#F2F2F2" d="M860.27 214.71h17.28v17.28h-17.28z"/><path style="stroke-width:1.07;stroke:#00BA38;stroke-linecap:butt" d="M861.99 223.35h13.83"/><path style="stroke-width:1.07;stroke:none;fill:#F2F2F2" d="M860.27 231.99h17.28v17.28h-17.28z"/><path style="stroke-width:1.07;stroke:#00BC54;stroke-linecap:butt" d="M861.99 240.63h13.83"/><path style="stroke-width:1.07;stroke:none;fill:#F2F2F2" d="M860.27 249.27h17.28v17.28h-17.28z"/><path style="stroke-width:1.07;stroke:#00BE6A;stroke-linecap:butt" d="M861.99 257.91h13.83"/><path style="stroke-width:1.07;stroke:none;fill:#F2F2F2" d="M860.27 266.55h17.28v17.28h-17.28z"/><path style="stroke-width:1.07;stroke:#00BF7D;stroke-linecap:butt" d="M861.99 275.19h13.83"/><path style="stroke-width:1.07;stroke:none;fill:#F2F2F2" d="M860.27 283.83h17.28v17.28h-17.28z"/><path style="stroke-width:1.07;stroke:#00C08F;stroke-linecap:butt" d="M861.99 292.47h13.83"/><path style="stroke-width:1.07;stroke:none;fill:#F2F2F2" d="M860.27 301.11h17.28v17.28h-17.28z"/><path style="stroke-width:1.07;stroke:#00C19F;stroke-linecap:butt" d="M861.99 309.75h13.83"/><path style="stroke-width:1.07;stroke:none;fill:#F2F2F2" d="M860.27 318.39h17.28v17.28h-17.28z"/><path style="stroke-width:1.07;stroke:#00C0AF;stroke-linecap:butt" d="M861.99 327.03h13.83"/><path style="stroke-width:1.07;stroke:none;fill:#F2F2F2" d="M860.27 335.67h17.28v17.28h-17.28z"/><path style="stroke-width:1.07;stroke:#00C0BD;stroke-linecap:butt" d="M861.99 344.31h13.83"/><path style="stroke-width:1.07;stroke:none;fill:#F2F2F2" d="M860.27 352.95h17.28v17.28h-17.28z"/><path style="stroke-width:1.07;stroke:#00BECB;stroke-linecap:butt" d="M861.99 361.59h13.83"/><path style="stroke-width:1.07;stroke:none;fill:#F2F2F2" d="M860.27 370.23h17.28v17.28h-17.28z"/><path style="stroke-width:1.07;stroke:#00BCD8;stroke-linecap:butt" d="M861.99 378.87h13.83"/><path style="stroke-width:1.07;stroke:none;fill:#F2F2F2" d="M860.27 387.51h17.28v17.28h-17.28z"/><path style="stroke-width:1.07;stroke:#00B9E3;stroke-linecap:butt" d="M861.99 396.15h13.83"/><path style="stroke-width:1.07;stroke:none;fill:#F2F2F2" d="M860.27 404.79h17.28v17.28h-17.28z"/><path style="stroke-width:1.07;stroke:#00B5EE;stroke-linecap:butt" d="M861.99 413.43h13.83"/><path style="stroke-width:1.07;stroke:none;fill:#F2F2F2" d="M860.27 422.07h17.28v17.28h-17.28z"/><path style="stroke-width:1.07;stroke:#00B0F6;stroke-linecap:butt" d="M861.99 430.71h13.83"/><path style="stroke-width:1.07;stroke:none;fill:#F2F2F2" d="M860.27 439.35h17.28v17.28h-17.28z"/><path style="stroke-width:1.07;stroke:#00AAFE;stroke-linecap:butt" d="M861.99 447.99h13.83"/><path style="stroke-width:1.07;stroke:none;fill:#F2F2F2" d="M860.27 456.63h17.28v17.28h-17.28z"/><path style="stroke-width:1.07;stroke:#18A3FF;stroke-linecap:butt" d="M861.99 465.27h13.83"/><path style="stroke-width:1.07;stroke:none;fill:#F2F2F2" d="M899.06 214.71h17.28v17.28h-17.28z"/><path style="stroke-width:1.07;stroke:#619CFF;stroke-linecap:butt" d="M900.79 223.35h13.82"/><path style="stroke-width:1.07;stroke:none;fill:#F2F2F2" d="M899.06 231.99h17.28v17.28h-17.28z"/><path style="stroke-width:1.07;stroke:#8694FF;stroke-linecap:butt" d="M900.79 240.63h13.82"/><path style="stroke-width:1.07;stroke:none;fill:#F2F2F2" d="M899.06 249.27h17.28v17.28h-17.28z"/><path style="stroke-width:1.07;stroke:#A28BFF;stroke-linecap:butt" d="M900.79 257.91h13.82"/><path style="stroke-width:1.07;stroke:none;fill:#F2F2F2" d="M899.06 266.55h17.28v17.28h-17.28z"/><path style="stroke-width:1.07;stroke:#B983FF;stroke-linecap:butt" d="M900.79 275.19h13.82"/><path style="stroke-width:1.07;stroke:none;fill:#F2F2F2" d="M899.06 283.83h17.28v17.28h-17.28z"/><path style="stroke-width:1.07;stroke:#CB7AFF;stroke-linecap:butt" d="M900.79 292.47h13.82"/><path style="stroke-width:1.07;stroke:none;fill:#F2F2F2" d="M899.06 301.11h17.28v17.28h-17.28z"/><path style="stroke-width:1.07;stroke:#DB72FB;stroke-linecap:butt" d="M900.79 309.75h13.82"/><path style="stroke-width:1.07;stroke:none;fill:#F2F2F2" d="M899.06 318.39h17.28v17.28h-17.28z"/><path style="stroke-width:1.07;stroke:#E76BF3;stroke-linecap:butt" d="M900.79 327.03h13.82"/><path style="stroke-width:1.07;stroke:none;fill:#F2F2F2" d="M899.06 335.67h17.28v17.28h-17.28z"/><path style="stroke-width:1.07;stroke:#F166E9;stroke-linecap:butt" d="M900.79 344.31h13.82"/><path style="stroke-width:1.07;stroke:none;fill:#F2F2F2" d="M899.06 352.95h17.28v17.28h-17.28z"/><path style="stroke-width:1.07;stroke:#F862DE;stroke-linecap:butt" d="M900.79 361.59h13.82"/><path style="stroke-width:1.07;stroke:none;fill:#F2F2F2" d="M899.06 370.23h17.28v17.28h-17.28z"/><path style="stroke-width:1.07;stroke:#FD61D1;stroke-linecap:butt" d="M900.79 378.87h13.82"/><path style="stroke-width:1.07;stroke:none;fill:#F2F2F2" d="M899.06 387.51h17.28v17.28h-17.28z"/><path style="stroke-width:1.07;stroke:#FF61C3;stroke-linecap:butt" d="M900.79 396.15h13.82"/><path style="stroke-width:1.07;stroke:none;fill:#F2F2F2" d="M899.06 404.79h17.28v17.28h-17.28z"/><path style="stroke-width:1.07;stroke:#FF63B4;stroke-linecap:butt" d="M900.79 413.43h13.82"/><path style="stroke-width:1.07;stroke:none;fill:#F2F2F2" d="M899.06 422.07h17.28v17.28h-17.28z"/><path style="stroke-width:1.07;stroke:#FF67A4;stroke-linecap:butt" d="M900.79 430.71h13.82"/><path style="stroke-width:1.07;stroke:none;fill:#F2F2F2" d="M899.06 439.35h17.28v17.28h-17.28z"/><path style="stroke-width:1.07;stroke:#FF6B93;stroke-linecap:butt" d="M900.79 447.99h13.82"/><path style="stroke-width:1.07;stroke:none;fill:#F2F2F2" d="M899.06 456.63h17.28v17.28h-17.28z"/><path style="stroke-width:1.07;stroke:#FC7181;stroke-linecap:butt" d="M900.79 465.27h13.82"/><text x="844.23" y="226.56" style="font-family:JetBrains Mono;font-size:8.80px" textLength="10.56" lengthAdjust="spacingAndGlyphs">AL</text><text x="844.23" y="243.84" style="font-family:JetBrains Mono;font-size:8.80px" textLength="10.56" lengthAdjust="spacingAndGlyphs">AR</text><text x="844.23" y="261.12" style="font-family:JetBrains Mono;font-size:8.80px" textLength="10.56" lengthAdjust="spacingAndGlyphs">AZ</text><text x="844.23" y="278.4" style="font-family:JetBrains Mono;font-size:8.80px" textLength="10.56" lengthAdjust="spacingAndGlyphs">CA</text><text x="844.23" y="295.68" style="font-family:JetBrains Mono;font-size:8.80px" textLength="10.56" lengthAdjust="spacingAndGlyphs">CO</text><text x="844.23" y="312.96" style="font-family:JetBrains Mono;font-size:8.80px" textLength="10.56" lengthAdjust="spacingAndGlyphs">DC</text><text x="844.23" y="330.24" style="font-family:JetBrains Mono;font-size:8.80px" textLength="10.56" lengthAdjust="spacingAndGlyphs">FL</text><text x="844.23" y="347.52" style="font-family:JetBrains Mono;font-size:8.80px" textLength="10.56" lengthAdjust="spacingAndGlyphs">GA</text><text x="844.23" y="364.8" style="font-family:JetBrains Mono;font-size:8.80px" textLength="10.56" lengthAdjust="spacingAndGlyphs">IA</text><text x="844.23" y="382.08" style="font-family:JetBrains Mono;font-size:8.80px" textLength="10.56" lengthAdjust="spacingAndGlyphs">ID</text><text x="844.23" y="399.36" style="font-family:JetBrains Mono;font-size:8.80px" textLength="10.56" lengthAdjust="spacingAndGlyphs">IL</text><text x="844.23" y="416.64" style="font-family:JetBrains Mono;font-size:8.80px" textLength="10.56" lengthAdjust="spacingAndGlyphs">IN</text><text x="844.23" y="433.92" style="font-family:JetBrains Mono;font-size:8.80px" textLength="10.56" lengthAdjust="spacingAndGlyphs">KS</text><text x="844.23" y="451.2" style="font-family:JetBrains Mono;font-size:8.80px" textLength="10.56" lengthAdjust="spacingAndGlyphs">KY</text><text x="844.23" y="468.48" style="font-family:JetBrains Mono;font-size:8.80px" textLength="10.56" lengthAdjust="spacingAndGlyphs">LA</text><text x="883.03" y="226.56" style="font-family:JetBrains Mono;font-size:8.80px" textLength="10.56" lengthAdjust="spacingAndGlyphs">MA</text><text x="883.03" y="243.84" style="font-family:JetBrains Mono;font-size:8.80px" textLength="10.56" lengthAdjust="spacingAndGlyphs">MD</text><text x="883.03" y="261.12" style="font-family:JetBrains Mono;font-size:8.80px" textLength="10.56" lengthAdjust="spacingAndGlyphs">ME</text><text x="883.03" y="278.4" style="font-family:JetBrains Mono;font-size:8.80px" textLength="10.56" lengthAdjust="spacingAndGlyphs">MI</text><text x="883.03" y="295.68" style="font-family:JetBrains Mono;font-size:8.80px" textLength="10.56" lengthAdjust="spacingAndGlyphs">MN</text><text x="883.03" y="312.96" style="font-family:JetBrains Mono;font-size:8.80px" textLength="10.56" lengthAdjust="spacingAndGlyphs">MO</text><text x="883.03" y="330.24" style="font-family:JetBrains Mono;font-size:8.80px" textLength="10.56" lengthAdjust="spacingAndGlyphs">MS</text><text x="883.03" y="347.52" style="font-family:JetBrains Mono;font-size:8.80px" textLength="10.56" lengthAdjust="spacingAndGlyphs">MT</text><text x="883.03" y="364.8" style="font-family:JetBrains Mono;font-size:8.80px" textLength="10.56" lengthAdjust="spacingAndGlyphs">NC</text><text x="883.03" y="382.08" style="font-family:JetBrains Mono;font-size:8.80px" textLength="10.56" lengthAdjust="spacingAndGlyphs">ND</text><text x="883.03" y="399.36" style="font-family:JetBrains Mono;font-size:8.80px" textLength="10.56" lengthAdjust="spacingAndGlyphs">NE</text><text x="883.03" y="416.64" style="font-family:JetBrains Mono;font-size:8.80px" textLength="10.56" lengthAdjust="spacingAndGlyphs">NH</text><text x="883.03" y="433.92" style="font-family:JetBrains Mono;font-size:8.80px" textLength="10.56" lengthAdjust="spacingAndGlyphs">NJ</text><text x="883.03" y="451.2" style="font-family:JetBrains Mono;font-size:8.80px" textLength="10.56" lengthAdjust="spacingAndGlyphs">NM</text><text x="883.03" y="468.48" style="font-family:JetBrains Mono;font-size:8.80px" textLength="10.56" lengthAdjust="spacingAndGlyphs">NV</text><text x="921.82" y="226.56" style="font-family:JetBrains Mono;font-size:8.80px" textLength="10.56" lengthAdjust="spacingAndGlyphs">NY</text><text x="921.82" y="243.84" style="font-family:JetBrains Mono;font-size:8.80px" textLength="10.56" lengthAdjust="spacingAndGlyphs">OH</text><text x="921.82" y="261.12" style="font-family:JetBrains Mono;font-size:8.80px" textLength="10.56" lengthAdjust="spacingAndGlyphs">OK</text><text x="921.82" y="278.4" style="font-family:JetBrains Mono;font-size:8.80px" textLength="10.56" lengthAdjust="spacingAndGlyphs">OR</text><text x="921.82" y="295.68" style="font-family:JetBrains Mono;font-size:8.80px" textLength="10.56" lengthAdjust="spacingAndGlyphs">PA</text><text x="921.82" y="312.96" style="font-family:JetBrains Mono;font-size:8.80px" textLength="10.56" lengthAdjust="spacingAndGlyphs">SC</text><text x="921.82" y="330.24" style="font-family:JetBrains Mono;font-size:8.80px" textLength="10.56" lengthAdjust="spacingAndGlyphs">SD</text><text x="921.82" y="347.52" style="font-family:JetBrains Mono;font-size:8.80px" textLength="10.56" lengthAdjust="spacingAndGlyphs">TN</text><text x="921.82" y="364.8" style="font-family:JetBrains Mono;font-size:8.80px" textLength="10.56" lengthAdjust="spacingAndGlyphs">TX</text><text x="921.82" y="382.08" style="font-family:JetBrains Mono;font-size:8.80px" textLength="10.56" lengthAdjust="spacingAndGlyphs">UT</text><text x="921.82" y="399.36" style="font-family:JetBrains Mono;font-size:8.80px" textLength="10.56" lengthAdjust="spacingAndGlyphs">VA</text><text x="921.82" y="416.64" style="font-family:JetBrains Mono;font-size:8.80px" textLength="10.56" lengthAdjust="spacingAndGlyphs">WA</text><text x="921.82" y="433.92" style="font-family:JetBrains Mono;font-size:8.80px" textLength="10.56" lengthAdjust="spacingAndGlyphs">WI</text><text x="921.82" y="451.2" style="font-family:JetBrains Mono;font-size:8.80px" textLength="10.56" lengthAdjust="spacingAndGlyphs">WV</text><text x="921.82" y="468.48" style="font-family:JetBrains Mono;font-size:8.80px" textLength="10.56" lengthAdjust="spacingAndGlyphs">WY</text><text x="39" y="31.74" style="font-family:JetBrains Mono;font-size:11.00px" textLength="382.94" lengthAdjust="spacingAndGlyphs">death data from 2008 to 2019 in the nation&apos;s biggest jails</text><text x="462.49" y="15.7" text-anchor="middle" style="font-family:JetBrains Mono;font-size:14.00px" textLength="361.3" lengthAdjust="spacingAndGlyphs">Prison deaths by state in the United States</text><text x="805.03" y="658.77" text-anchor="end" style="font-family:JetBrains Mono;font-size:8.80px" textLength="443.32" lengthAdjust="spacingAndGlyphs">Data sources: https://www.reuters.com/investigates/special-report/usa-jails-graphic/</text></g></svg>