<svg xmlns="http://www.w3.org/2000/svg" class="httpgd" width="568.33" height="194.17"><defs><clipPath id="c0"><path d="M0 0h568.33v194.17H0z"/></clipPath><clipPath id="c1"><path d="M38.16 5.48h524.69v156.95H38.16z"/></clipPath><clipPath id="c2"><path d="M0 0h568.33v194.17H0z"/></clipPath><style>.httpgd polyline,.httpgd rect{fill:none;stroke:#000;stroke-linecap:round;stroke-linejoin:round;stroke-miterlimit:10}</style></defs><rect width="100%" height="100%" fill="#fff"/><g clip-path="url(#c0)"><path stroke-width="1.07" stroke="#fff" fill="#fff" d="M0 0h568.33v194.17H0z"/></g><g clip-path="url(#c1)"><path stroke-width="1.07" fill="#ebebeb" d="M38.16 5.48h524.69v156.95H38.16z"/><path stroke-width=".53" stroke="#fff" d="M38.16 135.78h524.69M38.16 96.74h524.69M38.16 57.7h524.69M38.16 18.66h524.69"/><path stroke-width="1.07" stroke="#fff" d="M38.16 155.3h524.69M38.16 116.26h524.69M38.16 77.22h524.69M38.16 38.18h524.69M63.97 162.43V5.48M106.98 162.43V5.48M149.98 162.43V5.48M192.99 162.43V5.48M236 162.43V5.48M279 162.43V5.48M322.01 162.43V5.48M365.02 162.43V5.48M408.03 162.43V5.48M451.03 162.43V5.48M494.04 162.43V5.48M537.05 162.43V5.48"/><path stroke-width="1.07" stroke-linecap="square" fill="#56b1f7" d="M44.61 63.75h38.71v91.54H44.61z"/><path stroke-width="1.07" stroke-linecap="square" fill="#3773a4" d="M87.62 44.43h38.71V155.3H87.62z"/><path stroke-width="1.07" stroke-linecap="square" fill="#3772a2" d="M130.63 43.84h38.71v111.45h-38.71z"/><path stroke-width="1.07" stroke-linecap="square" fill="#36709f" d="M173.64 43.06h38.71V155.3h-38.71z"/><path stroke-width="1.07" stroke-linecap="square" fill="#316794" d="M216.64 39.94h38.71V155.3h-38.71z"/><path stroke-width="1.07" stroke-linecap="square" fill="#2a5982" d="M259.65 34.48h38.71V155.3h-38.71z"/><path stroke-width="1.07" stroke-linecap="square" fill="#1f4262" d="M302.66 24.33h38.71V155.3h-38.71z"/><path stroke-width="1.07" stroke-linecap="square" fill="#1b3b59" d="M345.67 21.01h38.71V155.3h-38.71z"/><path stroke-width="1.07" stroke-linecap="square" fill="#1d3f5e" d="M388.67 22.76h38.71v132.53h-38.71z"/><path stroke-width="1.07" stroke-linecap="square" fill="#132b43" d="M431.68 12.61h38.71v142.68h-38.71z"/><path stroke-width="1.07" stroke-linecap="square" fill="#17334d" d="M474.69 16.71h38.71V155.3h-38.71z"/><path stroke-width="1.07" stroke-linecap="square" fill="#193753" d="M517.7 18.86h38.71V155.3H517.7z"/></g><g clip-path="url(#c2)"><text x="33.23" y="158.45" text-anchor="end" textLength="4.9" lengthAdjust="spacingAndGlyphs" font-family="Arial" font-size="8.8" fill="#4d4d4d">0</text><text x="33.23" y="119.41" text-anchor="end" textLength="14.69" lengthAdjust="spacingAndGlyphs" font-family="Arial" font-size="8.8" fill="#4d4d4d">200</text><text x="33.23" y="80.38" text-anchor="end" textLength="14.69" lengthAdjust="spacingAndGlyphs" font-family="Arial" font-size="8.8" fill="#4d4d4d">400</text><text x="33.23" y="41.34" text-anchor="end" textLength="14.69" lengthAdjust="spacingAndGlyphs" font-family="Arial" font-size="8.8" fill="#4d4d4d">600</text><path stroke-width="1.07" stroke="#333" d="M35.42 155.3h2.74M35.42 116.26h2.74M35.42 77.22h2.74M35.42 38.18h2.74M63.97 165.17v-2.74M106.98 165.17v-2.74M149.98 165.17v-2.74M192.99 165.17v-2.74M236 165.17v-2.74M279 165.17v-2.74M322.01 165.17v-2.74M365.02 165.17v-2.74M408.03 165.17v-2.74M451.03 165.17v-2.74M494.04 165.17v-2.74M537.05 165.17v-2.74"/><text x="63.97" y="173.67" text-anchor="middle" textLength="19.58" lengthAdjust="spacingAndGlyphs" font-family="Arial" font-size="8.8" fill="#4d4d4d">2008</text><text x="106.98" y="173.67" text-anchor="middle" textLength="19.58" lengthAdjust="spacingAndGlyphs" font-family="Arial" font-size="8.8" fill="#4d4d4d">2009</text><text x="149.98" y="173.67" text-anchor="middle" textLength="19.58" lengthAdjust="spacingAndGlyphs" font-family="Arial" font-size="8.8" fill="#4d4d4d">2010</text><text x="192.99" y="173.67" text-anchor="middle" textLength="19.58" lengthAdjust="spacingAndGlyphs" font-family="Arial" font-size="8.8" fill="#4d4d4d">2011</text><text x="236" y="173.67" text-anchor="middle" textLength="19.58" lengthAdjust="spacingAndGlyphs" font-family="Arial" font-size="8.8" fill="#4d4d4d">2012</text><text x="279" y="173.67" text-anchor="middle" textLength="19.58" lengthAdjust="spacingAndGlyphs" font-family="Arial" font-size="8.8" fill="#4d4d4d">2013</text><text x="322.01" y="173.67" text-anchor="middle" textLength="19.58" lengthAdjust="spacingAndGlyphs" font-family="Arial" font-size="8.8" fill="#4d4d4d">2014</text><text x="365.02" y="173.67" text-anchor="middle" textLength="19.58" lengthAdjust="spacingAndGlyphs" font-family="Arial" font-size="8.8" fill="#4d4d4d">2015</text><text x="408.03" y="173.67" text-anchor="middle" textLength="19.58" lengthAdjust="spacingAndGlyphs" font-family="Arial" font-size="8.8" fill="#4d4d4d">2016</text><text x="451.03" y="173.67" text-anchor="middle" textLength="19.58" lengthAdjust="spacingAndGlyphs" font-family="Arial" font-size="8.8" fill="#4d4d4d">2017</text><text x="494.04" y="173.67" text-anchor="middle" textLength="19.58" lengthAdjust="spacingAndGlyphs" font-family="Arial" font-size="8.8" fill="#4d4d4d">2018</text><text x="537.05" y="173.67" text-anchor="middle" textLength="19.58" lengthAdjust="spacingAndGlyphs" font-family="Arial" font-size="8.8" fill="#4d4d4d">2019</text><text x="300.51" y="186.25" text-anchor="middle" textLength="21.41" lengthAdjust="spacingAndGlyphs" font-family="Arial" font-size="11">year</text><text transform="rotate(-90 48.665 35.295)" text-anchor="middle" textLength="26.91" lengthAdjust="spacingAndGlyphs" font-family="Arial" font-size="11">count</text></g></svg>