<svg xmlns="http://www.w3.org/2000/svg" class="httpgd" width="667.33" height="590" viewBox="0 0 667.33 590"><defs><clipPath id="a"><path d="M0 0h667.33v590H0z"/></clipPath><clipPath id="b"><path d="M71.02 0h525.3v590H71.02z"/></clipPath><clipPath id="c"><path d="M76.5 63.3h514.34v514.34H76.5z"/></clipPath><clipPath id="d"><path d="M0 0h667.33v590H0z"/></clipPath></defs><rect width="100%" height="100%" style="stroke-linecap:round;stroke-linejoin:round;stroke-miterlimit:10;stroke:none;fill:#fff"/><g clip-path="url(#a)"/><g clip-path="url(#b)"><path style="stroke-width:1.07;stroke:#fff;fill:#fff" d="M71.02 0h525.3v590H71.02z"/></g><g clip-path="url(#c)"><path style="stroke-width:1.07;stroke:none;fill:#ebebeb" d="M76.5 63.3h514.34v514.34H76.5z"/><path style="fill:none;stroke-linejoin:round;stroke-miterlimit:10;stroke-width:1.07;stroke:#fff;stroke-linecap:butt" d="m333.67 89.01 14.68.47 14.62 1.4 14.5 2.32 14.33 3.23 14.09 4.14 13.8 5.02 13.45 5.89 13.06 6.73 12.6 7.55 12.1 8.32 11.54 9.08 10.95 9.8 10.3 10.46 9.62 11.1 8.89 11.69 8.14 12.23 7.34 12.72 6.52 13.16 5.68 13.54 4.8 13.88 3.92 14.16 3 14.38 2.09 14.53 1.17 14.64.23 14.69-.7 14.67-1.63 14.6-2.55 14.46-3.46 14.27-4.36 14.03-5.24 13.72-6.1 13.36-6.94 12.94-7.74 12.48-8.52 11.97-9.26 11.4-9.97 10.79-10.63 10.13-11.25 9.44-11.83 8.71-12.35 7.94-12.84 7.14-13.26 6.31-13.63 5.46-13.96 4.59-14.21 3.68-14.42 2.78-14.57 1.86-14.66.93h-14.69l-14.65-.93-14.57-1.86-14.42-2.78-14.22-3.68-13.96-4.59-13.63-5.46-13.26-6.31-12.84-7.14-12.35-7.94-11.83-8.71-11.25-9.44-10.63-10.13-9.96-10.79-9.27-11.4-8.51-11.97-7.75-12.48-6.93-12.94-6.11-13.36-5.24-13.72-4.36-14.03-3.46-14.27-2.55-14.46-1.63-14.6-.7-14.67.24-14.69 1.16-14.64 2.09-14.53 3.01-14.38 3.91-14.16 4.8-13.88 5.68-13.54 6.52-13.16 7.34-12.72 8.14-12.23 8.89-11.69 9.62-11.1 10.31-10.46 10.94-9.8 11.55-9.08 12.09-8.32 12.6-7.55 13.06-6.73 13.45-5.89 13.81-5.02 14.09-4.14 14.32-3.23 14.51-2.32 14.62-1.4 14.68-.47"/><path style="stroke-width:1.07;stroke:none;fill:#f8766d" d="M333.67 320.47V114.73l-7.56.14-7.55.42-7.53.69-7.49.97-7.46 1.24-7.4 1.52-7.35 1.79-7.27 2.06-7.2 2.32-7.1 2.58-7 2.85 2.79 6.52 2.79 6.52 2.79 6.53 2.79 6.52 2.79 6.52 2.79 6.52 2.79 6.53 2.79 6.52 2.79 6.52 2.79 6.53 2.79 6.52 2.79 6.52 2.79 6.52 2.79 6.53 2.79 6.52 2.79 6.52 2.79 6.52 2.79 6.53 2.79 6.52 2.79 6.52 2.79 6.53 2.79 6.52 2.79 6.52 2.79 6.52 2.79 6.53 2.79 6.52 2.79 6.52 2.79 6.52z"/><path style="stroke-width:1.07;stroke:none;fill:#00bfc4" d="m333.67 320.47-2.79-6.53-2.79-6.52-2.79-6.52-2.79-6.52-2.79-6.53-2.79-6.52-2.79-6.52-2.79-6.52-2.79-6.53-2.79-6.52-2.79-6.52-2.79-6.53-2.79-6.52-2.79-6.52-2.79-6.52-2.79-6.53-2.79-6.52-2.79-6.52-2.79-6.52-2.79-6.53-2.79-6.52-2.79-6.52-2.79-6.53-2.79-6.52-2.79-6.52-2.79-6.52-2.79-6.53-2.79-6.52-2.79-6.52-6.38 2.86-6.28 3.07-6.17 3.28-6.06 3.5-5.93 3.69-5.81 3.9-5.67 4.09-5.52 4.28-5.38 4.47-5.23 4.64-5.06 4.83-4.9 4.99-4.72 5.15-4.54 5.31-4.37 5.47-4.17 5.6-3.98 5.75-3.79 5.88-3.58 6-3.37 6.12-3.17 6.24-2.95 6.33-2.74 6.44-2.51 6.52-2.3 6.61-2.06 6.68-1.84 6.74-1.61 6.8-1.37 6.86-1.15 6.9-.9 6.93-.68 6.96-.43 6.97-.2 6.99.04 6.99.28 6.99.52 6.97.75 6.95.99 6.92 1.22 6.89 1.45 6.83 1.69 6.79 1.92 6.72 2.14 6.66 2.37 6.57 2.59 6.5 2.81 6.4 3.02 6.3 3.24 6.2 3.45 6.08 3.65 5.96 3.85 5.84 4.05 5.7 4.24 5.56 4.42 5.41 4.61 5.26 4.78 5.1 4.96 4.93 5.11 4.76 5.28 4.59 5.43 4.4 5.58 4.22 5.71 4.02 5.85 3.83 5.98 3.63 6.1 3.42 6.21 3.22 6.31 3 6.41 2.78 6.51 2.56 6.58 2.35 6.67 2.11 6.73 1.89 6.79 1.66 6.84 1.43 6.89 1.2 6.93.96 6.95.72 6.97.49 6.99.25 6.99.01 6.99-.22 6.97-.47 6.96-.7 6.93-.93 6.89-1.17 6.85-1.4 6.8-1.64 6.74-1.86 6.67-2.1 6.59-2.32 6.51-2.54 6.43-2.76 6.32-2.98 6.22-3.19 6.11-3.4 5.99-3.6 5.86-3.81 5.74-4 5.59-4.2 5.44-4.38 5.3-4.57 5.13-4.75 4.97-4.91 4.8-5.08 4.63-5.25 4.44-5.39 4.26-5.55 4.07-5.68 3.87-5.82 3.68-5.95 3.47-6.07 3.26-6.18 3.04-6.3 2.84-6.39 2.61-6.48 2.39-6.57 2.17-6.65 1.94-6.71 1.71-6.78 1.48-6.83 1.25-6.88 1.01-6.92.78-6.95.54-6.97.3-6.98.07-6.99-.17-6.99-.41-6.98-.65-6.96-.88-6.94-1.12-6.9-1.35-6.86-1.58-6.81-1.82-6.75-2.04-6.69-2.27-6.61-2.49-6.53-2.71-6.45-2.93-6.34-3.15-6.25-3.35-6.13-3.56-6.02-3.76-5.89-3.96-5.76-4.16-5.63-4.34-5.47-4.53-5.33-4.7-5.17-4.88-5.01-5.04-4.84-5.21-4.67-5.36-4.48-5.51-4.3-5.66-4.11-5.79-3.92-5.92-3.72-6.04-3.51-6.16-3.31-6.27-3.1-6.37-2.88-6.47-2.66-6.55-2.44-6.63-2.22-6.7-1.99-6.76-1.77-6.82-1.53-6.87-1.3-6.91-1.06-6.95-.83-6.96-.59-6.98-.36-6.99-.12z"/></g><g clip-path="url(#d)"><path style="stroke-width:1.07;stroke:none;fill:#fff" d="M280.14 24.1h107.04v28.24H280.14z"/><path style="stroke-width:1.07;stroke:none;fill:#f2f2f2" d="M291.1 29.58h17.28v17.28H291.1z"/><path style="stroke-width:1.07;stroke:none;stroke-linecap:square;stroke-linejoin:miter;fill:#f8766d" d="M291.81 30.29h15.86v15.86h-15.86z"/><path style="stroke-width:1.07;stroke:none;fill:#f2f2f2" d="M340.86 29.58h17.28v17.28h-17.28z"/><path style="stroke-width:1.07;stroke:none;stroke-linecap:square;stroke-linejoin:miter;fill:#00bfc4" d="M341.56 30.29h15.86v15.86h-15.86z"/><text x="313.86" y="41.37" style="font-family:Arial;font-size:8.8px" textLength="21.51" lengthAdjust="spacingAndGlyphs">False</text><text x="363.62" y="41.37" style="font-family:Arial;font-size:8.8px" textLength="18.09" lengthAdjust="spacingAndGlyphs">True</text><text x="333.67" y="15.52" text-anchor="middle" style="font-family:Arial;font-size:14px" textLength="162.6" lengthAdjust="spacingAndGlyphs">Model prediction accuracy</text></g></svg>