<svg xmlns="http://www.w3.org/2000/svg" class="httpgd" width="1067" height="1031"><defs><clipPath id="c0"><path d="M0 0h1067v1031H0z"/></clipPath><clipPath id="c1"><path d="M43.06 23.34h1018.46v975.93H43.06z"/></clipPath><clipPath id="c2"><path d="M0 0h1067v1031H0z"/></clipPath><style><![CDATA[
    .httpgd line, .httpgd polyline, .httpgd polygon, .httpgd path, .httpgd rect, .httpgd circle {
      fill: none;
      stroke: #000000;
      stroke-linecap: round;
      stroke-linejoin: round;
      stroke-miterlimit: 10.00;
    }
  ]]></style></defs><rect width="100%" height="100%" style="stroke:none;fill:#FFFFFF"/><g clip-path="url(#c0)"><path style="stroke-width:1.07;stroke:#FFFFFF;fill:#FFFFFF" d="M0 0h1067v1031H0z"/></g><g clip-path="url(#c1)"><path style="stroke-width:1.07;stroke:none;fill:#EBEBEB" d="M43.06 23.34h1018.46v975.93H43.06z"/><path style="stroke-width:0.53;stroke:#FFFFFF;stroke-linecap:butt" d="M43.06 914.83h1018.46M43.06 726.66h1018.46M43.06 538.49h1018.46M43.06 350.32h1018.46M43.06 162.16h1018.46"/><path style="stroke-width:1.07;stroke:#FFFFFF;stroke-linecap:butt" d="M43.06 820.74h1018.46M43.06 632.57h1018.46M43.06 444.41h1018.46M43.06 256.24h1018.46M43.06 68.07h1018.46M320.82 999.27V23.34M783.76 999.27V23.34"/><path style="stroke-width:0.71;stroke:#0000FF" d="M314.28 162.16l6.54-6.54 6.54 6.54-6.54 6.53zM314.28 68.45l6.54-6.54 6.54 6.54-6.54 6.54zM314.28 252.48l6.54-6.54 6.54 6.54-6.54 6.53z"/><path style="stroke-width:0.71;stroke:#0000FF" d="M314.28 67.7l6.54-6.54 6.54 6.54-6.54 6.53z"/><path style="stroke-width:1.07;stroke:#333333;stroke-linecap:butt" d="M320.82 555.9V302.15M320.82 743.48v129.35"/><path style="stroke-width:1.07;stroke:#333333;fill:#FFFFFF" d="M147.22 555.9v187.58h347.2V555.9h-347.2z"/><path style="stroke-width:2.13;stroke:#333333;stroke-linecap:butt" d="M147.22 658.17h347.2"/><path style="stroke-width:0.71;stroke:#0000FF" d="M777.22 677.66l6.54-6.54 6.54 6.54-6.54 6.54zM777.22 693.5l6.54-6.53 6.54 6.53-6.54 6.54zM777.22 635.55l6.54-6.54 6.54 6.54-6.54 6.53z"/><path style="stroke-width:0.71;stroke:#0000FF" d="M777.22 700.39l6.54-6.54 6.54 6.54-6.54 6.54z"/><path style="stroke-width:1.07;stroke:#333333;stroke-linecap:butt" d="M783.76 801.51v-93.67M783.76 866.58v88.33"/><path style="stroke-width:1.07;stroke:#333333;fill:#FFFFFF" d="M610.16 801.51v65.07h347.2v-65.07h-347.2z"/><path style="stroke-width:2.13;stroke:#333333;stroke-linecap:butt" d="M610.16 836.4h347.2"/></g><g clip-path="url(#c2)"><text x="38.13" y="823.9" text-anchor="end" style="font-family:Arial;font-size:8.80px;fill:#4D4D4D" textLength="14.69" lengthAdjust="spacingAndGlyphs">500</text><text x="38.13" y="635.73" text-anchor="end" style="font-family:Arial;font-size:8.80px;fill:#4D4D4D" textLength="19.58" lengthAdjust="spacingAndGlyphs">1000</text><text x="38.13" y="447.56" text-anchor="end" style="font-family:Arial;font-size:8.80px;fill:#4D4D4D" textLength="19.58" lengthAdjust="spacingAndGlyphs">1500</text><text x="38.13" y="259.39" text-anchor="end" style="font-family:Arial;font-size:8.80px;fill:#4D4D4D" textLength="19.58" lengthAdjust="spacingAndGlyphs">2000</text><text x="38.13" y="71.23" text-anchor="end" style="font-family:Arial;font-size:8.80px;fill:#4D4D4D" textLength="19.58" lengthAdjust="spacingAndGlyphs">2500</text><path style="stroke-width:1.07;stroke:#333333;stroke-linecap:butt" d="M40.32 820.74h2.74M40.32 632.57h2.74M40.32 444.41h2.74M40.32 256.24h2.74M40.32 68.07h2.74M320.82 1002.01v-2.74M783.76 1002.01v-2.74"/><text x="320.82" y="1010.5" text-anchor="middle" style="font-family:Arial;font-size:8.80px;fill:#4D4D4D" textLength="4.9" lengthAdjust="spacingAndGlyphs">0</text><text x="783.76" y="1010.5" text-anchor="middle" style="font-family:Arial;font-size:8.80px;fill:#4D4D4D" textLength="4.9" lengthAdjust="spacingAndGlyphs">1</text><text x="552.29" y="1023.09" text-anchor="middle" style="font-family:Arial;font-size:11.00px" textLength="46.48" lengthAdjust="spacingAndGlyphs">diagnosis</text><text transform="rotate(-90 262.335 248.965)" text-anchor="middle" style="font-family:Arial;font-size:11.00px" textLength="55.67" lengthAdjust="spacingAndGlyphs">mean_area</text><text x="43.06" y="14.94" style="font-family:Arial;font-size:13.20px" textLength="107.8" lengthAdjust="spacingAndGlyphs">Plot of mean_area</text></g></svg>