<svg xmlns="http://www.w3.org/2000/svg" class="httpgd" width="1116" height="877"><defs><clipPath id="c0"><path d="M0 0h1116v877H0z"/></clipPath><clipPath id="c1"><path d="M33.27 23.34h1077.25v821.93H33.27z"/></clipPath><clipPath id="c2"><path d="M0 0h1116v877H0z"/></clipPath><style><![CDATA[
    .httpgd line, .httpgd polyline, .httpgd polygon, .httpgd path, .httpgd rect, .httpgd circle {
      fill: none;
      stroke: #000000;
      stroke-linecap: round;
      stroke-linejoin: round;
      stroke-miterlimit: 10.00;
    }
  ]]></style></defs><rect width="100%" height="100%" style="stroke:none;fill:#FFFFFF"/><g clip-path="url(#c0)"><path style="stroke-width:1.07;stroke:#FFFFFF;fill:#FFFFFF" d="M0 0h1116v877H0z"/></g><g clip-path="url(#c1)"><path style="stroke-width:1.07;stroke:none;fill:#EBEBEB" d="M33.27 23.34h1077.25v821.93H33.27z"/><path style="stroke-width:0.53;stroke:#FFFFFF;stroke-linecap:butt" d="M33.27 789.55h1077.25M33.27 612.73h1077.25M33.27 435.91h1077.25M33.27 259.09h1077.25M33.27 82.27h1077.25"/><path style="stroke-width:1.07;stroke:#FFFFFF;stroke-linecap:butt" d="M33.27 701.14h1077.25M33.27 524.32h1077.25M33.27 347.5h1077.25M33.27 170.68h1077.25M327.06 845.27V23.34M816.72 845.27V23.34"/><path style="stroke-width:0.71;stroke:#0000FF" d="M320.53 92.17l6.53-6.54 6.54 6.54-6.54 6.54zM320.53 60.7l6.53-6.54 6.54 6.54-6.54 6.53z"/><path style="stroke-width:0.71;stroke:#0000FF" d="M320.53 85.1l6.53-6.54 6.54 6.54-6.54 6.53z"/><path style="stroke-width:1.07;stroke:#333333;stroke-linecap:butt" d="M327.06 362V144.86M327.06 521.67v145.88"/><path style="stroke-width:1.07;stroke:#333333;fill:#FFFFFF" d="M143.44 362v159.67h367.25V362H143.44z"/><path style="stroke-width:2.13;stroke:#333333;stroke-linecap:butt" d="M143.44 442.1h367.25"/><path style="stroke-width:0.71;stroke:#0000FF" d="M810.19 807.91l6.53-6.54 6.54 6.54-6.54 6.53zM810.19 459.25l6.53-6.54 6.54 6.54-6.54 6.54zM810.19 423.53l6.53-6.53 6.54 6.53-6.54 6.54z"/><path style="stroke-width:1.07;stroke:#333333;stroke-linecap:butt" d="M816.72 581.96V471.27M816.72 662.95V782.8"/><path style="stroke-width:1.07;stroke:#333333;fill:#FFFFFF" d="M633.1 581.96v80.99h367.25v-80.99H633.1z"/><path style="stroke-width:2.13;stroke:#333333;stroke-linecap:butt" d="M633.1 623.34h367.25"/></g><g clip-path="url(#c2)"><text x="28.34" y="704.29" text-anchor="end" style="font-family:Arial;font-size:8.80px;fill:#4D4D4D" textLength="9.79" lengthAdjust="spacingAndGlyphs">10</text><text x="28.34" y="527.47" text-anchor="end" style="font-family:Arial;font-size:8.80px;fill:#4D4D4D" textLength="9.79" lengthAdjust="spacingAndGlyphs">15</text><text x="28.34" y="350.65" text-anchor="end" style="font-family:Arial;font-size:8.80px;fill:#4D4D4D" textLength="9.79" lengthAdjust="spacingAndGlyphs">20</text><text x="28.34" y="173.83" text-anchor="end" style="font-family:Arial;font-size:8.80px;fill:#4D4D4D" textLength="9.79" lengthAdjust="spacingAndGlyphs">25</text><path style="stroke-width:1.07;stroke:#333333;stroke-linecap:butt" d="M30.53 701.14h2.74M30.53 524.32h2.74M30.53 347.5h2.74M30.53 170.68h2.74M327.06 848.01v-2.74M816.72 848.01v-2.74"/><text x="327.06" y="856.5" text-anchor="middle" style="font-family:Arial;font-size:8.80px;fill:#4D4D4D" textLength="4.9" lengthAdjust="spacingAndGlyphs">0</text><text x="816.72" y="856.5" text-anchor="middle" style="font-family:Arial;font-size:8.80px;fill:#4D4D4D" textLength="4.9" lengthAdjust="spacingAndGlyphs">1</text><text x="571.89" y="869.09" text-anchor="middle" style="font-family:Arial;font-size:11.00px" textLength="46.48" lengthAdjust="spacingAndGlyphs">diagnosis</text><text transform="rotate(-90 223.835 210.465)" text-anchor="middle" style="font-family:Arial;font-size:11.00px" textLength="63.61" lengthAdjust="spacingAndGlyphs">mean_radius</text><text x="33.27" y="14.94" style="font-family:Arial;font-size:13.20px" textLength="117.32" lengthAdjust="spacingAndGlyphs">Plot of mean_radius</text></g></svg>