<svg xmlns="http://www.w3.org/2000/svg" class="httpgd" width="576" height="548.67"><defs><clipPath id="c0"><path d="M0 0h576v548.67H0z"/></clipPath><style><![CDATA[
    .httpgd line, .httpgd polyline, .httpgd polygon, .httpgd path, .httpgd rect, .httpgd circle {
      fill: none;
      stroke: #000000;
      stroke-linecap: round;
      stroke-linejoin: round;
      stroke-miterlimit: 10.00;
    }
  ]]></style></defs><rect width="100%" height="100%" style="stroke:none;fill:#FFFFFF"/><g clip-path="url(#c0)"><path style="stroke-width:0.75;stroke:#FFFFFF;fill:#FFFFFF" d="M115.16 123.54h81.28v81.28h-81.28zM115.16 204.82h81.28v81.28h-81.28zM115.16 286.1h81.28v81.28h-81.28zM115.16 367.39h81.28v81.28h-81.28zM115.16 448.67h81.28v81.28h-81.28zM196.44 123.54h81.28v81.28h-81.28zM196.44 204.82h81.28v81.28h-81.28zM196.44 286.1h81.28v81.28h-81.28zM196.44 367.39h81.28v81.28h-81.28zM196.44 448.67h81.28v81.28h-81.28zM277.73 123.54h81.28v81.28h-81.28zM277.73 204.82h81.28v81.28h-81.28zM277.73 286.1h81.28v81.28h-81.28zM277.73 367.39h81.28v81.28h-81.28zM277.73 448.67h81.28v81.28h-81.28zM359.01 123.54h81.28v81.28h-81.28zM359.01 204.82h81.28v81.28h-81.28zM359.01 286.1h81.28v81.28h-81.28zM359.01 367.39h81.28v81.28h-81.28zM359.01 448.67h81.28v81.28h-81.28zM440.3 123.54h81.28v81.28H440.3zM440.3 204.82h81.28v81.28H440.3zM440.3 286.1h81.28v81.28H440.3zM440.3 367.39h81.28v81.28H440.3zM440.3 448.67h81.28v81.28H440.3z"/><text x="155.8" y="168.35" text-anchor="middle" style="font-family:Arial;font-size:12.00px;font-weight:bold;fill:#053061" textLength="26.69" lengthAdjust="spacingAndGlyphs">1.00</text><text x="155.8" y="249.63" text-anchor="middle" style="font-family:Arial;font-size:12.00px;font-weight:bold;fill:#A9D0E4" textLength="26.69" lengthAdjust="spacingAndGlyphs">0.32</text><text x="155.8" y="330.92" text-anchor="middle" style="font-family:Arial;font-size:12.00px;font-weight:bold;fill:#053061" textLength="26.69" lengthAdjust="spacingAndGlyphs">1.00</text><text x="155.8" y="412.19" text-anchor="middle" style="font-family:Arial;font-size:12.00px;font-weight:bold;fill:#063264" textLength="26.69" lengthAdjust="spacingAndGlyphs">0.99</text><text x="155.8" y="493.49" text-anchor="middle" style="font-family:Arial;font-size:12.00px;font-weight:bold;fill:#D6E8F1" textLength="26.69" lengthAdjust="spacingAndGlyphs">0.17</text><text x="237.09" y="168.35" text-anchor="middle" style="font-family:Arial;font-size:12.00px;font-weight:bold;fill:#A9D0E4" textLength="26.69" lengthAdjust="spacingAndGlyphs">0.32</text><text x="237.09" y="249.63" text-anchor="middle" style="font-family:Arial;font-size:12.00px;font-weight:bold;fill:#053061" textLength="26.69" lengthAdjust="spacingAndGlyphs">1.00</text><text x="237.09" y="330.92" text-anchor="middle" style="font-family:Arial;font-size:12.00px;font-weight:bold;fill:#A9D0E4" textLength="26.69" lengthAdjust="spacingAndGlyphs">0.33</text><text x="237.09" y="412.2" text-anchor="middle" style="font-family:Arial;font-size:12.00px;font-weight:bold;fill:#A9D0E4" textLength="26.69" lengthAdjust="spacingAndGlyphs">0.32</text><text x="237.09" y="493.49" text-anchor="middle" style="font-family:Arial;font-size:12.00px;font-weight:bold;fill:#FEFAF7" textLength="27.35" lengthAdjust="spacingAndGlyphs">-0.02</text><text x="318.37" y="168.35" text-anchor="middle" style="font-family:Arial;font-size:12.00px;font-weight:bold;fill:#053061" textLength="26.69" lengthAdjust="spacingAndGlyphs">1.00</text><text x="318.37" y="249.63" text-anchor="middle" style="font-family:Arial;font-size:12.00px;font-weight:bold;fill:#A9D0E4" textLength="26.69" lengthAdjust="spacingAndGlyphs">0.33</text><text x="318.37" y="330.92" text-anchor="middle" style="font-family:Arial;font-size:12.00px;font-weight:bold;fill:#053061" textLength="26.69" lengthAdjust="spacingAndGlyphs">1.00</text><text x="318.37" y="412.19" text-anchor="middle" style="font-family:Arial;font-size:12.00px;font-weight:bold;fill:#063264" textLength="26.69" lengthAdjust="spacingAndGlyphs">0.99</text><text x="318.37" y="493.49" text-anchor="middle" style="font-family:Arial;font-size:12.00px;font-weight:bold;fill:#CFE4EF" textLength="26.69" lengthAdjust="spacingAndGlyphs">0.21</text><text x="399.66" y="168.34" text-anchor="middle" style="font-family:Arial;font-size:12.00px;font-weight:bold;fill:#063264" textLength="26.69" lengthAdjust="spacingAndGlyphs">0.99</text><text x="399.66" y="249.63" text-anchor="middle" style="font-family:Arial;font-size:12.00px;font-weight:bold;fill:#A9D0E4" textLength="26.69" lengthAdjust="spacingAndGlyphs">0.32</text><text x="399.66" y="330.91" text-anchor="middle" style="font-family:Arial;font-size:12.00px;font-weight:bold;fill:#063264" textLength="26.69" lengthAdjust="spacingAndGlyphs">0.99</text><text x="399.66" y="412.2" text-anchor="middle" style="font-family:Arial;font-size:12.00px;font-weight:bold;fill:#053061" textLength="26.69" lengthAdjust="spacingAndGlyphs">1.00</text><text x="399.66" y="493.48" text-anchor="middle" style="font-family:Arial;font-size:12.00px;font-weight:bold;fill:#D6E8F1" textLength="26.69" lengthAdjust="spacingAndGlyphs">0.18</text><text x="480.94" y="168.35" text-anchor="middle" style="font-family:Arial;font-size:12.00px;font-weight:bold;fill:#D6E8F1" textLength="26.69" lengthAdjust="spacingAndGlyphs">0.17</text><text x="480.94" y="249.63" text-anchor="middle" style="font-family:Arial;font-size:12.00px;font-weight:bold;fill:#FEFAF7" textLength="27.35" lengthAdjust="spacingAndGlyphs">-0.02</text><text x="480.94" y="330.92" text-anchor="middle" style="font-family:Arial;font-size:12.00px;font-weight:bold;fill:#CFE4EF" textLength="26.69" lengthAdjust="spacingAndGlyphs">0.21</text><text x="480.94" y="412.2" text-anchor="middle" style="font-family:Arial;font-size:12.00px;font-weight:bold;fill:#D6E8F1" textLength="26.69" lengthAdjust="spacingAndGlyphs">0.18</text><text x="480.94" y="493.49" text-anchor="middle" style="font-family:Arial;font-size:12.00px;font-weight:bold;fill:#053061" textLength="26.69" lengthAdjust="spacingAndGlyphs">1.00</text><path style="stroke-width:0.75;stroke:#BEBEBE" d="M115.16 123.54h81.28v81.28h-81.28zM115.16 204.82h81.28v81.28h-81.28zM115.16 286.1h81.28v81.28h-81.28zM115.16 367.39h81.28v81.28h-81.28zM115.16 448.67h81.28v81.28h-81.28zM196.44 123.54h81.28v81.28h-81.28zM196.44 204.82h81.28v81.28h-81.28zM196.44 286.1h81.28v81.28h-81.28zM196.44 367.39h81.28v81.28h-81.28zM196.44 448.67h81.28v81.28h-81.28zM277.73 123.54h81.28v81.28h-81.28zM277.73 204.82h81.28v81.28h-81.28zM277.73 286.1h81.28v81.28h-81.28zM277.73 367.39h81.28v81.28h-81.28zM277.73 448.67h81.28v81.28h-81.28zM359.01 123.54h81.28v81.28h-81.28zM359.01 204.82h81.28v81.28h-81.28zM359.01 286.1h81.28v81.28h-81.28zM359.01 367.39h81.28v81.28h-81.28zM359.01 448.67h81.28v81.28h-81.28zM440.3 123.54h81.28v81.28H440.3zM440.3 204.82h81.28v81.28H440.3zM440.3 286.1h81.28v81.28H440.3zM440.3 367.39h81.28v81.28H440.3zM440.3 448.67h81.28v81.28H440.3z"/><path style="stroke-width:0.75;stroke:#67001F;fill:#67001F" d="M528.08 527.93h12.68v2.03h-12.68z"/><path style="stroke-width:0.75;stroke:#6A011F;fill:#6A011F" d="M528.08 525.89h12.68v2.03h-12.68z"/><path style="stroke-width:0.75;stroke:#6E0220;fill:#6E0220" d="M528.08 523.86h12.68v2.03h-12.68z"/><path style="stroke-width:0.75;stroke:#720320;fill:#720320" d="M528.08 521.83h12.68v2.03h-12.68z"/><path style="stroke-width:0.75;stroke:#760421;fill:#760421" d="M528.08 519.8h12.68v2.03h-12.68z"/><path style="stroke-width:0.75;stroke:#790622;fill:#790622" d="M528.08 517.77h12.68v2.03h-12.68z"/><path style="stroke-width:0.75;stroke:#7D0722;fill:#7D0722" d="M528.08 515.73h12.68v2.03h-12.68z"/><path style="stroke-width:0.75;stroke:#810823;fill:#810823" d="M528.08 513.7h12.68v2.03h-12.68z"/><path style="stroke-width:0.75;stroke:#850923;fill:#850923" d="M528.08 511.67h12.68v2.03h-12.68z"/><path style="stroke-width:0.75;stroke:#880A24;fill:#880A24" d="M528.08 509.64h12.68v2.03h-12.68z"/><path style="stroke-width:0.75;stroke:#8C0C25;fill:#8C0C25" d="M528.08 507.61h12.68v2.03h-12.68z"/><path style="stroke-width:0.75;stroke:#900D25;fill:#900D25" d="M528.08 505.57h12.68v2.03h-12.68z"/><path style="stroke-width:0.75;stroke:#940E26;fill:#940E26" d="M528.08 503.54h12.68v2.03h-12.68z"/><path style="stroke-width:0.75;stroke:#970F26;fill:#970F26" d="M528.08 501.51h12.68v2.03h-12.68z"/><path style="stroke-width:0.75;stroke:#9B1027;fill:#9B1027" d="M528.08 499.48h12.68v2.03h-12.68z"/><path style="stroke-width:0.75;stroke:#9F1228;fill:#9F1228" d="M528.08 497.44h12.68v2.03h-12.68z"/><path style="stroke-width:0.75;stroke:#A31328;fill:#A31328" d="M528.08 495.41h12.68v2.03h-12.68z"/><path style="stroke-width:0.75;stroke:#A71429;fill:#A71429" d="M528.08 493.38h12.68v2.03h-12.68z"/><path style="stroke-width:0.75;stroke:#AA1529;fill:#AA1529" d="M528.08 491.35h12.68v2.03h-12.68z"/><path style="stroke-width:0.75;stroke:#AE162A;fill:#AE162A" d="M528.08 489.32h12.68v2.03h-12.68z"/><path style="stroke-width:0.75;stroke:#B2182B;fill:#B2182B" d="M528.08 487.28h12.68v2.03h-12.68z"/><path style="stroke-width:0.75;stroke:#B31B2C;fill:#B31B2C" d="M528.08 485.25h12.68v2.03h-12.68z"/><path style="stroke-width:0.75;stroke:#B51F2E;fill:#B51F2E" d="M528.08 483.22h12.68v2.03h-12.68z"/><path style="stroke-width:0.75;stroke:#B72330;fill:#B72330" d="M528.08 481.19h12.68v2.03h-12.68z"/><path style="stroke-width:0.75;stroke:#B92632;fill:#B92632" d="M528.08 479.16h12.68v2.03h-12.68z"/><path style="stroke-width:0.75;stroke:#BB2A33;fill:#BB2A33" d="M528.08 477.12h12.68v2.03h-12.68z"/><path style="stroke-width:0.75;stroke:#BD2E35;fill:#BD2E35" d="M528.08 475.09h12.68v2.03h-12.68z"/><path style="stroke-width:0.75;stroke:#BE3137;fill:#BE3137" d="M528.08 473.06h12.68v2.03h-12.68z"/><path style="stroke-width:0.75;stroke:#C03538;fill:#C03538" d="M528.08 471.03h12.68v2.03h-12.68z"/><path style="stroke-width:0.75;stroke:#C2383A;fill:#C2383A" d="M528.08 469h12.68v2.03h-12.68z"/><path style="stroke-width:0.75;stroke:#C43C3C;fill:#C43C3C" d="M528.08 466.96h12.68v2.03h-12.68z"/><path style="stroke-width:0.75;stroke:#C6403D;fill:#C6403D" d="M528.08 464.93h12.68v2.03h-12.68z"/><path style="stroke-width:0.75;stroke:#C7433F;fill:#C7433F" d="M528.08 462.9h12.68v2.03h-12.68z"/><path style="stroke-width:0.75;stroke:#C94741;fill:#C94741" d="M528.08 460.87h12.68v2.03h-12.68z"/><path style="stroke-width:0.75;stroke:#CB4B43;fill:#CB4B43" d="M528.08 458.83h12.68v2.03h-12.68z"/><path style="stroke-width:0.75;stroke:#CD4E44;fill:#CD4E44" d="M528.08 456.8h12.68v2.03h-12.68z"/><path style="stroke-width:0.75;stroke:#CF5246;fill:#CF5246" d="M528.08 454.77h12.68v2.03h-12.68z"/><path style="stroke-width:0.75;stroke:#D05548;fill:#D05548" d="M528.08 452.74h12.68v2.03h-12.68z"/><path style="stroke-width:0.75;stroke:#D25949;fill:#D25949" d="M528.08 450.71h12.68v2.03h-12.68z"/><path style="stroke-width:0.75;stroke:#D45D4B;fill:#D45D4B" d="M528.08 448.67h12.68v2.03h-12.68z"/><path style="stroke-width:0.75;stroke:#D6604D;fill:#D6604D" d="M528.08 446.64h12.68v2.03h-12.68z"/><path style="stroke-width:0.75;stroke:#D76450;fill:#D76450" d="M528.08 444.61h12.68v2.03h-12.68z"/><path style="stroke-width:0.75;stroke:#D96752;fill:#D96752" d="M528.08 442.58h12.68v2.03h-12.68z"/><path style="stroke-width:0.75;stroke:#DA6B55;fill:#DA6B55" d="M528.08 440.55h12.68v2.03h-12.68z"/><path style="stroke-width:0.75;stroke:#DC6E58;fill:#DC6E58" d="M528.08 438.51h12.68v2.03h-12.68z"/><path style="stroke-width:0.75;stroke:#DD725A;fill:#DD725A" d="M528.08 436.48h12.68v2.03h-12.68z"/><path style="stroke-width:0.75;stroke:#DF755D;fill:#DF755D" d="M528.08 434.45h12.68v2.03h-12.68z"/><path style="stroke-width:0.75;stroke:#E07860;fill:#E07860" d="M528.08 432.42h12.68v2.03h-12.68z"/><path style="stroke-width:0.75;stroke:#E27C62;fill:#E27C62" d="M528.08 430.39h12.68v2.03h-12.68z"/><path style="stroke-width:0.75;stroke:#E37F65;fill:#E37F65" d="M528.08 428.35h12.68v2.03h-12.68z"/><path style="stroke-width:0.75;stroke:#E58368;fill:#E58368" d="M528.08 426.32h12.68v2.03h-12.68z"/><path style="stroke-width:0.75;stroke:#E6866A;fill:#E6866A" d="M528.08 424.29h12.68v2.03h-12.68z"/><path style="stroke-width:0.75;stroke:#E88A6D;fill:#E88A6D" d="M528.08 422.26h12.68v2.03h-12.68z"/><path style="stroke-width:0.75;stroke:#E98D70;fill:#E98D70" d="M528.08 420.22h12.68v2.03h-12.68z"/><path style="stroke-width:0.75;stroke:#EB9172;fill:#EB9172" d="M528.08 418.19h12.68v2.03h-12.68z"/><path style="stroke-width:0.75;stroke:#EC9475;fill:#EC9475" d="M528.08 416.16h12.68v2.03h-12.68z"/><path style="stroke-width:0.75;stroke:#EE9878;fill:#EE9878" d="M528.08 414.13h12.68v2.03h-12.68z"/><path style="stroke-width:0.75;stroke:#EF9B7A;fill:#EF9B7A" d="M528.08 412.1h12.68v2.03h-12.68z"/><path style="stroke-width:0.75;stroke:#F19F7D;fill:#F19F7D" d="M528.08 410.06h12.68v2.03h-12.68z"/><path style="stroke-width:0.75;stroke:#F2A280;fill:#F2A280" d="M528.08 408.03h12.68v2.03h-12.68z"/><path style="stroke-width:0.75;stroke:#F4A583;fill:#F4A583" d="M528.08 406h12.68v2.03h-12.68z"/><path style="stroke-width:0.75;stroke:#F4A886;fill:#F4A886" d="M528.08 403.97h12.68V406h-12.68z"/><path style="stroke-width:0.75;stroke:#F5AB89;fill:#F5AB89" d="M528.08 401.94h12.68v2.03h-12.68z"/><path style="stroke-width:0.75;stroke:#F5AD8D;fill:#F5AD8D" d="M528.08 399.9h12.68v2.03h-12.68z"/><path style="stroke-width:0.75;stroke:#F5B090;fill:#F5B090" d="M528.08 397.87h12.68v2.03h-12.68z"/><path style="stroke-width:0.75;stroke:#F6B394;fill:#F6B394" d="M528.08 395.84h12.68v2.03h-12.68z"/><path style="stroke-width:0.75;stroke:#F6B697;fill:#F6B697" d="M528.08 393.81h12.68v2.03h-12.68z"/><path style="stroke-width:0.75;stroke:#F7B89B;fill:#F7B89B" d="M528.08 391.77h12.68v2.03h-12.68z"/><path style="stroke-width:0.75;stroke:#F7BB9E;fill:#F7BB9E" d="M528.08 389.74h12.68v2.03h-12.68z"/><path style="stroke-width:0.75;stroke:#F8BEA2;fill:#F8BEA2" d="M528.08 387.71h12.68v2.03h-12.68z"/><path style="stroke-width:0.75;stroke:#F8C0A5;fill:#F8C0A5" d="M528.08 385.68h12.68v2.03h-12.68z"/><path style="stroke-width:0.75;stroke:#F9C3A9;fill:#F9C3A9" d="M528.08 383.65h12.68v2.03h-12.68z"/><path style="stroke-width:0.75;stroke:#F9C6AC;fill:#F9C6AC" d="M528.08 381.61h12.68v2.03h-12.68z"/><path style="stroke-width:0.75;stroke:#FAC9B0;fill:#FAC9B0" d="M528.08 379.58h12.68v2.03h-12.68z"/><path style="stroke-width:0.75;stroke:#FACBB3;fill:#FACBB3" d="M528.08 377.55h12.68v2.03h-12.68z"/><path style="stroke-width:0.75;stroke:#FACEB7;fill:#FACEB7" d="M528.08 375.52h12.68v2.03h-12.68z"/><path style="stroke-width:0.75;stroke:#FBD1BA;fill:#FBD1BA" d="M528.08 373.49h12.68v2.03h-12.68z"/><path style="stroke-width:0.75;stroke:#FBD3BD;fill:#FBD3BD" d="M528.08 371.45h12.68v2.03h-12.68z"/><path style="stroke-width:0.75;stroke:#FCD6C1;fill:#FCD6C1" d="M528.08 369.42h12.68v2.03h-12.68z"/><path style="stroke-width:0.75;stroke:#FCD9C4;fill:#FCD9C4" d="M528.08 367.39h12.68v2.03h-12.68z"/><path style="stroke-width:0.75;stroke:#FDDBC8;fill:#FDDBC8" d="M528.08 365.36h12.68v2.03h-12.68z"/><path style="stroke-width:0.75;stroke:#FDDDCA;fill:#FDDDCA" d="M528.08 363.33h12.68v2.03h-12.68z"/><path style="stroke-width:0.75;stroke:#FDDFCD;fill:#FDDFCD" d="M528.08 361.29h12.68v2.03h-12.68z"/><path style="stroke-width:0.75;stroke:#FDE1D0;fill:#FDE1D0" d="M528.08 359.26h12.68v2.03h-12.68z"/><path style="stroke-width:0.75;stroke:#FDE2D3;fill:#FDE2D3" d="M528.08 357.23h12.68v2.03h-12.68z"/><path style="stroke-width:0.75;stroke:#FDE4D6;fill:#FDE4D6" d="M528.08 355.2h12.68v2.03h-12.68z"/><path style="stroke-width:0.75;stroke:#FDE6D9;fill:#FDE6D9" d="M528.08 353.16h12.68v2.03h-12.68z"/><path style="stroke-width:0.75;stroke:#FDE8DB;fill:#FDE8DB" d="M528.08 351.13h12.68v2.03h-12.68z"/><path style="stroke-width:0.75;stroke:#FDEADE;fill:#FDEADE" d="M528.08 349.1h12.68v2.03h-12.68z"/><path style="stroke-width:0.75;stroke:#FDECE1;fill:#FDECE1" d="M528.08 347.07h12.68v2.03h-12.68z"/><path style="stroke-width:0.75;stroke:#FEEDE4;fill:#FEEDE4" d="M528.08 345.04h12.68v2.03h-12.68z"/><path style="stroke-width:0.75;stroke:#FEEFE7;fill:#FEEFE7" d="M528.08 343h12.68v2.03h-12.68z"/><path style="stroke-width:0.75;stroke:#FEF1E9;fill:#FEF1E9" d="M528.08 340.97h12.68V343h-12.68z"/><path style="stroke-width:0.75;stroke:#FEF3EC;fill:#FEF3EC" d="M528.08 338.94h12.68v2.03h-12.68z"/><path style="stroke-width:0.75;stroke:#FEF5EF;fill:#FEF5EF" d="M528.08 336.91h12.68v2.03h-12.68z"/><path style="stroke-width:0.75;stroke:#FEF6F2;fill:#FEF6F2" d="M528.08 334.88h12.68v2.03h-12.68z"/><path style="stroke-width:0.75;stroke:#FEF8F5;fill:#FEF8F5" d="M528.08 332.84h12.68v2.03h-12.68z"/><path style="stroke-width:0.75;stroke:#FEFAF7;fill:#FEFAF7" d="M528.08 330.81h12.68v2.03h-12.68z"/><path style="stroke-width:0.75;stroke:#FEFCFA;fill:#FEFCFA" d="M528.08 328.78h12.68v2.03h-12.68z"/><path style="stroke-width:0.75;stroke:#FEFEFD;fill:#FEFEFD" d="M528.08 326.75h12.68v2.03h-12.68z"/><path style="stroke-width:0.75;stroke:#FDFEFE;fill:#FDFEFE" d="M528.08 324.71h12.68v2.03h-12.68z"/><path style="stroke-width:0.75;stroke:#FBFDFD;fill:#FBFDFD" d="M528.08 322.68h12.68v2.03h-12.68z"/><path style="stroke-width:0.75;stroke:#F9FBFD;fill:#F9FBFD" d="M528.08 320.65h12.68v2.03h-12.68z"/><path style="stroke-width:0.75;stroke:#F6FAFC;fill:#F6FAFC" d="M528.08 318.62h12.68v2.03h-12.68z"/><path style="stroke-width:0.75;stroke:#F4F9FB;fill:#F4F9FB" d="M528.08 316.59h12.68v2.03h-12.68z"/><path style="stroke-width:0.75;stroke:#F2F7FA;fill:#F2F7FA" d="M528.08 314.55h12.68v2.03h-12.68z"/><path style="stroke-width:0.75;stroke:#EFF6FA;fill:#EFF6FA" d="M528.08 312.52h12.68v2.03h-12.68z"/><path style="stroke-width:0.75;stroke:#EDF5F9;fill:#EDF5F9" d="M528.08 310.49h12.68v2.03h-12.68z"/><path style="stroke-width:0.75;stroke:#EBF3F8;fill:#EBF3F8" d="M528.08 308.46h12.68v2.03h-12.68z"/><path style="stroke-width:0.75;stroke:#E9F2F7;fill:#E9F2F7" d="M528.08 306.43h12.68v2.03h-12.68z"/><path style="stroke-width:0.75;stroke:#E6F1F7;fill:#E6F1F7" d="M528.08 304.39h12.68v2.03h-12.68z"/><path style="stroke-width:0.75;stroke:#E4EFF6;fill:#E4EFF6" d="M528.08 302.36h12.68v2.03h-12.68z"/><path style="stroke-width:0.75;stroke:#E2EEF5;fill:#E2EEF5" d="M528.08 300.33h12.68v2.03h-12.68z"/><path style="stroke-width:0.75;stroke:#DFEDF4;fill:#DFEDF4" d="M528.08 298.3h12.68v2.03h-12.68z"/><path style="stroke-width:0.75;stroke:#DDECF4;fill:#DDECF4" d="M528.08 296.27h12.68v2.03h-12.68z"/><path style="stroke-width:0.75;stroke:#DBEAF3;fill:#DBEAF3" d="M528.08 294.23h12.68v2.03h-12.68z"/><path style="stroke-width:0.75;stroke:#D8E9F2;fill:#D8E9F2" d="M528.08 292.2h12.68v2.03h-12.68z"/><path style="stroke-width:0.75;stroke:#D6E8F1;fill:#D6E8F1" d="M528.08 290.17h12.68v2.03h-12.68z"/><path style="stroke-width:0.75;stroke:#D4E6F1;fill:#D4E6F1" d="M528.08 288.14h12.68v2.03h-12.68z"/><path style="stroke-width:0.75;stroke:#D1E5F0;fill:#D1E5F0" d="M528.08 286.1h12.68v2.03h-12.68z"/><path style="stroke-width:0.75;stroke:#CFE4EF;fill:#CFE4EF" d="M528.08 284.07h12.68v2.03h-12.68z"/><path style="stroke-width:0.75;stroke:#CBE2EE;fill:#CBE2EE" d="M528.08 282.04h12.68v2.03h-12.68z"/><path style="stroke-width:0.75;stroke:#C8E0ED;fill:#C8E0ED" d="M528.08 280.01h12.68v2.03h-12.68z"/><path style="stroke-width:0.75;stroke:#C5DFEC;fill:#C5DFEC" d="M528.08 277.98h12.68v2.03h-12.68z"/><path style="stroke-width:0.75;stroke:#C2DDEB;fill:#C2DDEB" d="M528.08 275.94h12.68v2.03h-12.68z"/><path style="stroke-width:0.75;stroke:#BFDBEA;fill:#BFDBEA" d="M528.08 273.91h12.68v2.03h-12.68z"/><path style="stroke-width:0.75;stroke:#BCDAEA;fill:#BCDAEA" d="M528.08 271.88h12.68v2.03h-12.68z"/><path style="stroke-width:0.75;stroke:#B8D8E9;fill:#B8D8E9" d="M528.08 269.85h12.68v2.03h-12.68z"/><path style="stroke-width:0.75;stroke:#B5D7E8;fill:#B5D7E8" d="M528.08 267.82h12.68v2.03h-12.68z"/><path style="stroke-width:0.75;stroke:#B2D5E7;fill:#B2D5E7" d="M528.08 265.78h12.68v2.03h-12.68z"/><path style="stroke-width:0.75;stroke:#AFD3E6;fill:#AFD3E6" d="M528.08 263.75h12.68v2.03h-12.68z"/><path style="stroke-width:0.75;stroke:#ACD2E5;fill:#ACD2E5" d="M528.08 261.72h12.68v2.03h-12.68z"/><path style="stroke-width:0.75;stroke:#A9D0E4;fill:#A9D0E4" d="M528.08 259.69h12.68v2.03h-12.68z"/><path style="stroke-width:0.75;stroke:#A5CFE3;fill:#A5CFE3" d="M528.08 257.66h12.68v2.03h-12.68z"/><path style="stroke-width:0.75;stroke:#A2CDE2;fill:#A2CDE2" d="M528.08 255.62h12.68v2.03h-12.68z"/><path style="stroke-width:0.75;stroke:#9FCBE1;fill:#9FCBE1" d="M528.08 253.59h12.68v2.03h-12.68z"/><path style="stroke-width:0.75;stroke:#9CCAE0;fill:#9CCAE0" d="M528.08 251.56h12.68v2.03h-12.68z"/><path style="stroke-width:0.75;stroke:#99C8E0;fill:#99C8E0" d="M528.08 249.53h12.68v2.03h-12.68z"/><path style="stroke-width:0.75;stroke:#96C7DF;fill:#96C7DF" d="M528.08 247.49h12.68v2.03h-12.68z"/><path style="stroke-width:0.75;stroke:#92C5DE;fill:#92C5DE" d="M528.08 245.46h12.68v2.03h-12.68z"/><path style="stroke-width:0.75;stroke:#8FC3DD;fill:#8FC3DD" d="M528.08 243.43h12.68v2.03h-12.68z"/><path style="stroke-width:0.75;stroke:#8BC0DB;fill:#8BC0DB" d="M528.08 241.4h12.68v2.03h-12.68z"/><path style="stroke-width:0.75;stroke:#87BEDA;fill:#87BEDA" d="M528.08 239.37h12.68v2.03h-12.68z"/><path style="stroke-width:0.75;stroke:#83BBD8;fill:#83BBD8" d="M528.08 237.33h12.68v2.03h-12.68z"/><path style="stroke-width:0.75;stroke:#7FB9D7;fill:#7FB9D7" d="M528.08 235.3h12.68v2.03h-12.68z"/><path style="stroke-width:0.75;stroke:#7BB6D6;fill:#7BB6D6" d="M528.08 233.27h12.68v2.03h-12.68z"/><path style="stroke-width:0.75;stroke:#77B4D4;fill:#77B4D4" d="M528.08 231.24h12.68v2.03h-12.68z"/><path style="stroke-width:0.75;stroke:#73B1D3;fill:#73B1D3" d="M528.08 229.21h12.68v2.03h-12.68z"/><path style="stroke-width:0.75;stroke:#6FAFD2;fill:#6FAFD2" d="M528.08 227.17h12.68v2.03h-12.68z"/><path style="stroke-width:0.75;stroke:#6BACD0;fill:#6BACD0" d="M528.08 225.14h12.68v2.03h-12.68z"/><path style="stroke-width:0.75;stroke:#67AACF;fill:#67AACF" d="M528.08 223.11h12.68v2.03h-12.68z"/><path style="stroke-width:0.75;stroke:#63A7CE;fill:#63A7CE" d="M528.08 221.08h12.68v2.03h-12.68z"/><path style="stroke-width:0.75;stroke:#5FA5CC;fill:#5FA5CC" d="M528.08 219.04h12.68v2.03h-12.68z"/><path style="stroke-width:0.75;stroke:#5BA2CB;fill:#5BA2CB" d="M528.08 217.01h12.68v2.03h-12.68z"/><path style="stroke-width:0.75;stroke:#57A0CA;fill:#57A0CA" d="M528.08 214.98h12.68v2.03h-12.68z"/><path style="stroke-width:0.75;stroke:#539DC8;fill:#539DC8" d="M528.08 212.95h12.68v2.03h-12.68z"/><path style="stroke-width:0.75;stroke:#4F9BC7;fill:#4F9BC7" d="M528.08 210.92h12.68v2.03h-12.68z"/><path style="stroke-width:0.75;stroke:#4B98C5;fill:#4B98C5" d="M528.08 208.88h12.68v2.03h-12.68z"/><path style="stroke-width:0.75;stroke:#4796C4;fill:#4796C4" d="M528.08 206.85h12.68v2.03h-12.68z"/><path style="stroke-width:0.75;stroke:#4393C3;fill:#4393C3" d="M528.08 204.82h12.68v2.03h-12.68z"/><path style="stroke-width:0.75;stroke:#4191C2;fill:#4191C2" d="M528.08 202.79h12.68v2.03h-12.68z"/><path style="stroke-width:0.75;stroke:#3F8EC0;fill:#3F8EC0" d="M528.08 200.76h12.68v2.03h-12.68z"/><path style="stroke-width:0.75;stroke:#3E8CBF;fill:#3E8CBF" d="M528.08 198.72h12.68v2.03h-12.68z"/><path style="stroke-width:0.75;stroke:#3C8ABE;fill:#3C8ABE" d="M528.08 196.69h12.68v2.03h-12.68z"/><path style="stroke-width:0.75;stroke:#3A88BD;fill:#3A88BD" d="M528.08 194.66h12.68v2.03h-12.68z"/><path style="stroke-width:0.75;stroke:#3985BC;fill:#3985BC" d="M528.08 192.63h12.68v2.03h-12.68z"/><path style="stroke-width:0.75;stroke:#3783BB;fill:#3783BB" d="M528.08 190.6h12.68v2.03h-12.68z"/><path style="stroke-width:0.75;stroke:#3581B9;fill:#3581B9" d="M528.08 188.56h12.68v2.03h-12.68z"/><path style="stroke-width:0.75;stroke:#337FB8;fill:#337FB8" d="M528.08 186.53h12.68v2.03h-12.68z"/><path style="stroke-width:0.75;stroke:#327CB7;fill:#327CB7" d="M528.08 184.5h12.68v2.03h-12.68z"/><path style="stroke-width:0.75;stroke:#307AB6;fill:#307AB6" d="M528.08 182.47h12.68v2.03h-12.68z"/><path style="stroke-width:0.75;stroke:#2E78B5;fill:#2E78B5" d="M528.08 180.43h12.68v2.03h-12.68z"/><path style="stroke-width:0.75;stroke:#2D76B4;fill:#2D76B4" d="M528.08 178.4h12.68v2.03h-12.68z"/><path style="stroke-width:0.75;stroke:#2B73B3;fill:#2B73B3" d="M528.08 176.37h12.68v2.03h-12.68z"/><path style="stroke-width:0.75;stroke:#2971B1;fill:#2971B1" d="M528.08 174.34h12.68v2.03h-12.68z"/><path style="stroke-width:0.75;stroke:#286FB0;fill:#286FB0" d="M528.08 172.31h12.68v2.03h-12.68z"/><path style="stroke-width:0.75;stroke:#266DAF;fill:#266DAF" d="M528.08 170.27h12.68v2.03h-12.68z"/><path style="stroke-width:0.75;stroke:#246AAE;fill:#246AAE" d="M528.08 168.24h12.68v2.03h-12.68z"/><path style="stroke-width:0.75;stroke:#2268AD;fill:#2268AD" d="M528.08 166.21h12.68v2.03h-12.68z"/><path style="stroke-width:0.75;stroke:#2166AC;fill:#2166AC" d="M528.08 164.18h12.68v2.03h-12.68z"/><path style="stroke-width:0.75;stroke:#1F63A8;fill:#1F63A8" d="M528.08 162.15h12.68v2.03h-12.68z"/><path style="stroke-width:0.75;stroke:#1E60A4;fill:#1E60A4" d="M528.08 160.11h12.68v2.03h-12.68z"/><path style="stroke-width:0.75;stroke:#1C5EA1;fill:#1C5EA1" d="M528.08 158.08h12.68v2.03h-12.68z"/><path style="stroke-width:0.75;stroke:#1B5B9D;fill:#1B5B9D" d="M528.08 156.05h12.68v2.03h-12.68z"/><path style="stroke-width:0.75;stroke:#1A5899;fill:#1A5899" d="M528.08 154.02h12.68v2.03h-12.68z"/><path style="stroke-width:0.75;stroke:#185595;fill:#185595" d="M528.08 151.98h12.68v2.03h-12.68z"/><path style="stroke-width:0.75;stroke:#175391;fill:#175391" d="M528.08 149.95h12.68v2.03h-12.68z"/><path style="stroke-width:0.75;stroke:#15508E;fill:#15508E" d="M528.08 147.92h12.68v2.03h-12.68z"/><path style="stroke-width:0.75;stroke:#144D8A;fill:#144D8A" d="M528.08 145.89h12.68v2.03h-12.68z"/><path style="stroke-width:0.75;stroke:#134B86;fill:#134B86" d="M528.08 143.86h12.68v2.03h-12.68z"/><path style="stroke-width:0.75;stroke:#114882;fill:#114882" d="M528.08 141.82h12.68v2.03h-12.68z"/><path style="stroke-width:0.75;stroke:#10457F;fill:#10457F" d="M528.08 139.79h12.68v2.03h-12.68z"/><path style="stroke-width:0.75;stroke:#0E427B;fill:#0E427B" d="M528.08 137.76h12.68v2.03h-12.68z"/><path style="stroke-width:0.75;stroke:#0D4077;fill:#0D4077" d="M528.08 135.73h12.68v2.03h-12.68z"/><path style="stroke-width:0.75;stroke:#0C3D73;fill:#0C3D73" d="M528.08 133.7h12.68v2.03h-12.68z"/><path style="stroke-width:0.75;stroke:#0A3A70;fill:#0A3A70" d="M528.08 131.66h12.68v2.03h-12.68z"/><path style="stroke-width:0.75;stroke:#09386C;fill:#09386C" d="M528.08 129.63h12.68v2.03h-12.68z"/><path style="stroke-width:0.75;stroke:#073568;fill:#073568" d="M528.08 127.6h12.68v2.03h-12.68z"/><path style="stroke-width:0.75;stroke:#063264;fill:#063264" d="M528.08 125.57h12.68v2.03h-12.68z"/><path style="stroke-width:0.75;stroke:#053061;fill:#053061" d="M528.08 123.54h12.68v2.03h-12.68z"/><path style="stroke-width:0.75" d="M528.08 123.54h12.68v406.42h-12.68zM540.77 529.96h2.53M540.77 489.32h2.53M540.77 448.67h2.53M540.77 408.03h2.53M540.77 367.39h2.53M540.77 326.75h2.53M540.77 286.1h2.53M540.77 245.46h2.53M540.77 204.82h2.53M540.77 164.18h2.53M540.77 123.54h2.53"/><text x="556.83" y="533.3" text-anchor="middle" style="font-family:Arial;font-size:9.60px" textLength="8.53" lengthAdjust="spacingAndGlyphs">-1</text><text x="556.83" y="492.58" text-anchor="middle" style="font-family:Arial;font-size:9.60px" textLength="16.53" lengthAdjust="spacingAndGlyphs">-0.8</text><text x="556.83" y="451.95" text-anchor="middle" style="font-family:Arial;font-size:9.60px" textLength="16.53" lengthAdjust="spacingAndGlyphs">-0.6</text><text x="556.83" y="411.3" text-anchor="middle" style="font-family:Arial;font-size:9.60px" textLength="16.53" lengthAdjust="spacingAndGlyphs">-0.4</text><text x="556.83" y="370.67" text-anchor="middle" style="font-family:Arial;font-size:9.60px" textLength="16.53" lengthAdjust="spacingAndGlyphs">-0.2</text><text x="556.83" y="330.02" text-anchor="middle" style="font-family:Arial;font-size:9.60px" textLength="5.34" lengthAdjust="spacingAndGlyphs">0</text><text x="556.83" y="289.38" text-anchor="middle" style="font-family:Arial;font-size:9.60px" textLength="13.33" lengthAdjust="spacingAndGlyphs">0.2</text><text x="556.83" y="248.73" text-anchor="middle" style="font-family:Arial;font-size:9.60px" textLength="13.33" lengthAdjust="spacingAndGlyphs">0.4</text><text x="556.83" y="208.1" text-anchor="middle" style="font-family:Arial;font-size:9.60px" textLength="13.33" lengthAdjust="spacingAndGlyphs">0.6</text><text x="556.83" y="167.44" text-anchor="middle" style="font-family:Arial;font-size:9.60px" textLength="13.33" lengthAdjust="spacingAndGlyphs">0.8</text><text x="556.83" y="126.88" text-anchor="middle" style="font-family:Arial;font-size:9.60px" textLength="5.34" lengthAdjust="spacingAndGlyphs">1</text><text transform="rotate(-90 139.065 -20.305)" style="font-family:Arial;font-size:12.00px;fill:#FF0000" textLength="69.37" lengthAdjust="spacingAndGlyphs">mean_radius</text><text transform="rotate(-90 179.555 -60.795)" style="font-family:Arial;font-size:12.00px;fill:#FF0000" textLength="73.38" lengthAdjust="spacingAndGlyphs">mean_texture</text><text transform="rotate(-90 220.09 -101.33)" style="font-family:Arial;font-size:12.00px;fill:#FF0000" textLength="87.37" lengthAdjust="spacingAndGlyphs">mean_perimeter</text><text transform="rotate(-90 260.44 -141.68)" style="font-family:Arial;font-size:12.00px;fill:#FF0000" textLength="60.71" lengthAdjust="spacingAndGlyphs">mean_area</text><text transform="rotate(-90 301.635 -182.875)" style="font-family:Arial;font-size:12.00px;fill:#FF0000" textLength="101.38" lengthAdjust="spacingAndGlyphs">mean_smoothness</text><text x="109.4" y="167.05" text-anchor="end" style="font-family:Arial;font-size:12.00px;fill:#FF0000" textLength="69.37" lengthAdjust="spacingAndGlyphs">mean_radius</text><text x="109.4" y="248.33" text-anchor="end" style="font-family:Arial;font-size:12.00px;fill:#FF0000" textLength="73.38" lengthAdjust="spacingAndGlyphs">mean_texture</text><text x="109.4" y="329.62" text-anchor="end" style="font-family:Arial;font-size:12.00px;fill:#FF0000" textLength="87.37" lengthAdjust="spacingAndGlyphs">mean_perimeter</text><text x="109.4" y="410.9" text-anchor="end" style="font-family:Arial;font-size:12.00px;fill:#FF0000" textLength="60.71" lengthAdjust="spacingAndGlyphs">mean_area</text><text x="109.4" y="492.19" text-anchor="end" style="font-family:Arial;font-size:12.00px;fill:#FF0000" textLength="101.38" lengthAdjust="spacingAndGlyphs">mean_smoothness</text><path style="stroke-width:0.75;stroke:#BEBEBE" d="M115.16 123.54h406.42v406.42H115.16z"/></g></svg>