<svg xmlns="http://www.w3.org/2000/svg" class="httpgd" width="921.6" height="656"><defs><clipPath id="c0"><path d="M0 0h921.6v656H0z"/></clipPath><clipPath id="c1"><path d="M38.16 5.48h877.96v618.79H38.16z"/></clipPath><clipPath id="c2"><path d="M0 0h921.6v656H0z"/></clipPath><style>.httpgd polyline,.httpgd rect{fill:none;stroke:#000;stroke-linecap:round;stroke-linejoin:round;stroke-miterlimit:10}</style></defs><rect width="100%" height="100%" fill="#fff"/><g clip-path="url(#c0)"><path stroke-width="1.07" stroke="#fff" fill="#fff" d="M0 0h921.6v656H0z"/></g><g clip-path="url(#c1)"><path stroke-width="1.07" fill="#ebebeb" d="M38.16 5.48h877.96v618.79H38.16z"/><path stroke-width=".53" stroke="#fff" d="M38.16 519.19h877.96M38.16 365.28h877.96M38.16 211.37h877.96M38.16 57.46h877.96"/><path stroke-width="1.07" stroke="#fff" d="M38.16 596.14h877.96M38.16 442.23h877.96M38.16 288.32h877.96M38.16 134.42h877.96M81.34 624.27V5.48M153.31 624.27V5.48M225.27 624.27V5.48M297.23 624.27V5.48M369.2 624.27V5.48M441.16 624.27V5.48M513.12 624.27V5.48M585.09 624.27V5.48M657.05 624.27V5.48M729.01 624.27V5.48M800.98 624.27V5.48M872.94 624.27V5.48"/><path stroke-width="1.07" stroke-linecap="square" fill="#595959" d="M48.96 235.23h64.77v360.91H48.96zM120.92 159.04h64.77v437.1h-64.77zM192.89 156.73h64.77v439.41h-64.77zM264.85 153.65h64.77v442.49h-64.77zM336.81 141.34h64.77v454.8h-64.77zM408.78 119.79h64.77v476.34h-64.77zM480.74 79.78h64.77v516.36h-64.77zM552.7 66.7h64.77v529.44H552.7zM624.67 73.62h64.77v522.52h-64.77zM696.63 33.61h64.77v562.53h-64.77zM768.59 49.77h64.77v546.37h-64.77zM840.56 58.23h64.77v537.91h-64.77z"/></g><g clip-path="url(#c2)"><text x="33.23" y="599.29" text-anchor="end" textLength="4.9" lengthAdjust="spacingAndGlyphs" font-family="Arial" font-size="8.8" fill="#4d4d4d">0</text><text x="33.23" y="445.39" text-anchor="end" textLength="14.69" lengthAdjust="spacingAndGlyphs" font-family="Arial" font-size="8.8" fill="#4d4d4d">200</text><text x="33.23" y="291.48" text-anchor="end" textLength="14.69" lengthAdjust="spacingAndGlyphs" font-family="Arial" font-size="8.8" fill="#4d4d4d">400</text><text x="33.23" y="137.57" text-anchor="end" textLength="14.69" lengthAdjust="spacingAndGlyphs" font-family="Arial" font-size="8.8" fill="#4d4d4d">600</text><path stroke-width="1.07" stroke="#333" d="M35.42 596.14h2.74M35.42 442.23h2.74M35.42 288.32h2.74M35.42 134.42h2.74M81.34 627.01v-2.74M153.31 627.01v-2.74M225.27 627.01v-2.74M297.23 627.01v-2.74M369.2 627.01v-2.74M441.16 627.01v-2.74M513.12 627.01v-2.74M585.09 627.01v-2.74M657.05 627.01v-2.74M729.01 627.01v-2.74M800.98 627.01v-2.74M872.94 627.01v-2.74"/><text x="81.34" y="635.5" text-anchor="middle" textLength="19.58" lengthAdjust="spacingAndGlyphs" font-family="Arial" font-size="8.8" fill="#4d4d4d">2008</text><text x="153.31" y="635.5" text-anchor="middle" textLength="19.58" lengthAdjust="spacingAndGlyphs" font-family="Arial" font-size="8.8" fill="#4d4d4d">2009</text><text x="225.27" y="635.5" text-anchor="middle" textLength="19.58" lengthAdjust="spacingAndGlyphs" font-family="Arial" font-size="8.8" fill="#4d4d4d">2010</text><text x="297.23" y="635.5" text-anchor="middle" textLength="19.58" lengthAdjust="spacingAndGlyphs" font-family="Arial" font-size="8.8" fill="#4d4d4d">2011</text><text x="369.2" y="635.5" text-anchor="middle" textLength="19.58" lengthAdjust="spacingAndGlyphs" font-family="Arial" font-size="8.8" fill="#4d4d4d">2012</text><text x="441.16" y="635.5" text-anchor="middle" textLength="19.58" lengthAdjust="spacingAndGlyphs" font-family="Arial" font-size="8.8" fill="#4d4d4d">2013</text><text x="513.12" y="635.5" text-anchor="middle" textLength="19.58" lengthAdjust="spacingAndGlyphs" font-family="Arial" font-size="8.8" fill="#4d4d4d">2014</text><text x="585.09" y="635.5" text-anchor="middle" textLength="19.58" lengthAdjust="spacingAndGlyphs" font-family="Arial" font-size="8.8" fill="#4d4d4d">2015</text><text x="657.05" y="635.5" text-anchor="middle" textLength="19.58" lengthAdjust="spacingAndGlyphs" font-family="Arial" font-size="8.8" fill="#4d4d4d">2016</text><text x="729.01" y="635.5" text-anchor="middle" textLength="19.58" lengthAdjust="spacingAndGlyphs" font-family="Arial" font-size="8.8" fill="#4d4d4d">2017</text><text x="800.98" y="635.5" text-anchor="middle" textLength="19.58" lengthAdjust="spacingAndGlyphs" font-family="Arial" font-size="8.8" fill="#4d4d4d">2018</text><text x="872.94" y="635.5" text-anchor="middle" textLength="19.58" lengthAdjust="spacingAndGlyphs" font-family="Arial" font-size="8.8" fill="#4d4d4d">2019</text><text x="477.14" y="648.09" text-anchor="middle" textLength="21.41" lengthAdjust="spacingAndGlyphs" font-family="Arial" font-size="11">year</text><text transform="rotate(-90 164.12 150.75)" text-anchor="middle" textLength="26.91" lengthAdjust="spacingAndGlyphs" font-family="Arial" font-size="11">count</text></g></svg>