<svg xmlns="http://www.w3.org/2000/svg" class="httpgd" width="792" height="474"><defs><clipPath id="c0"><path d="M0 0h792v474H0z"/></clipPath><clipPath id="c1"><path d="M33.72 39.2h581.46v402.9H33.72z"/></clipPath><clipPath id="c2"><path d="M0 0h792v474H0z"/></clipPath><style><![CDATA[.httpgd line,.httpgd polyline,.httpgd polygon,.httpgd path,.httpgd rect,.httpgd circle{fill:none;stroke:#000000;stroke-linecap:round;stroke-linejoin:round;stroke-miterlimit:10.00}]]></style></defs><rect width="100%" height="100%" style="stroke:none;fill:#FFFFFF"/><g clip-path="url(#c0)"><path style="stroke-width:1.07;stroke:#FFFFFF;fill:#FFFFFF" d="M0 0h792v474H0z"/></g><g clip-path="url(#c1)"><path style="stroke-width:1.07;stroke:none;fill:#EBEBEB" d="M33.72 39.2h581.46v402.9H33.72z"/><path style="stroke-width:0.53;stroke:#FFFFFF;stroke-linecap:butt" d="M33.72 396.94h581.46M33.72 301.05h581.46M33.72 205.17h581.46M33.72 109.29h581.46"/><path style="stroke-width:1.07;stroke:#FFFFFF;stroke-linecap:butt" d="M33.72 348.99h581.46M33.72 253.11h581.46M33.72 157.23h581.46M33.72 61.35h581.46M76.27 442.1V39.2M147.18 442.1V39.2M218.09 442.1V39.2M289 442.1V39.2M359.91 442.1V39.2M430.82 442.1V39.2M501.73 442.1V39.2M572.64 442.1V39.2"/><circle cx="76.27" cy="199.42" r="1.95" style="stroke-width:0.71;stroke:#F8766D;fill:#F8766D"/><circle cx="147.18" cy="178.32" r="1.95" style="stroke-width:0.71;stroke:#F8766D;fill:#F8766D"/><circle cx="218.09" cy="97.78" r="1.95" style="stroke-width:0.71;stroke:#F8766D;fill:#F8766D"/><circle cx="289" cy="111.21" r="1.95" style="stroke-width:0.71;stroke:#F8766D;fill:#F8766D"/><circle cx="359.91" cy="145.72" r="1.95" style="stroke-width:0.71;stroke:#F8766D;fill:#F8766D"/><circle cx="430.82" cy="143.81" r="1.95" style="stroke-width:0.71;stroke:#F8766D;fill:#F8766D"/><circle cx="501.73" cy="145.72" r="1.95" style="stroke-width:0.71;stroke:#F8766D;fill:#F8766D"/><circle cx="572.64" cy="151.48" r="1.95" style="stroke-width:0.71;stroke:#F8766D;fill:#F8766D"/><circle cx="76.27" cy="132.3" r="1.95" style="stroke-width:0.71;stroke:#D39200;fill:#D39200"/><circle cx="147.18" cy="153.39" r="1.95" style="stroke-width:0.71;stroke:#D39200;fill:#D39200"/><circle cx="218.09" cy="124.63" r="1.95" style="stroke-width:0.71;stroke:#D39200;fill:#D39200"/><circle cx="289" cy="147.64" r="1.95" style="stroke-width:0.71;stroke:#D39200;fill:#D39200"/><circle cx="359.91" cy="149.56" r="1.95" style="stroke-width:0.71;stroke:#D39200;fill:#D39200"/><circle cx="430.82" cy="157.23" r="1.95" style="stroke-width:0.71;stroke:#D39200;fill:#D39200"/><circle cx="501.73" cy="155.31" r="1.95" style="stroke-width:0.71;stroke:#D39200;fill:#D39200"/><circle cx="572.64" cy="151.48" r="1.95" style="stroke-width:0.71;stroke:#D39200;fill:#D39200"/><circle cx="76.27" cy="423.78" r="1.95" style="stroke-width:0.71;stroke:#93AA00;fill:#93AA00"/><circle cx="147.18" cy="416.11" r="1.95" style="stroke-width:0.71;stroke:#93AA00;fill:#93AA00"/><circle cx="218.09" cy="366.25" r="1.95" style="stroke-width:0.71;stroke:#93AA00;fill:#93AA00"/><circle cx="289" cy="331.74" r="1.95" style="stroke-width:0.71;stroke:#93AA00;fill:#93AA00"/><circle cx="359.91" cy="318.31" r="1.95" style="stroke-width:0.71;stroke:#93AA00;fill:#93AA00"/><circle cx="430.82" cy="318.31" r="1.95" style="stroke-width:0.71;stroke:#93AA00;fill:#93AA00"/><circle cx="501.73" cy="316.39" r="1.95" style="stroke-width:0.71;stroke:#93AA00;fill:#93AA00"/><circle cx="572.64" cy="314.48" r="1.95" style="stroke-width:0.71;stroke:#93AA00;fill:#93AA00"/><circle cx="76.27" cy="295.3" r="1.95" style="stroke-width:0.71;stroke:#00BA38;fill:#00BA38"/><circle cx="147.18" cy="325.98" r="1.95" style="stroke-width:0.71;stroke:#00BA38;fill:#00BA38"/><circle cx="218.09" cy="331.74" r="1.95" style="stroke-width:0.71;stroke:#00BA38;fill:#00BA38"/><circle cx="289" cy="345.16" r="1.95" style="stroke-width:0.71;stroke:#00BA38;fill:#00BA38"/><circle cx="359.91" cy="356.67" r="1.95" style="stroke-width:0.71;stroke:#00BA38;fill:#00BA38"/><circle cx="430.82" cy="356.67" r="1.95" style="stroke-width:0.71;stroke:#00BA38;fill:#00BA38"/><circle cx="501.73" cy="356.67" r="1.95" style="stroke-width:0.71;stroke:#00BA38;fill:#00BA38"/><circle cx="572.64" cy="358.58" r="1.95" style="stroke-width:0.71;stroke:#00BA38;fill:#00BA38"/><circle cx="76.27" cy="207.09" r="1.95" style="stroke-width:0.71;stroke:#00C19F;fill:#00C19F"/><circle cx="147.18" cy="197.5" r="1.95" style="stroke-width:0.71;stroke:#00C19F;fill:#00C19F"/><circle cx="218.09" cy="258.86" r="1.95" style="stroke-width:0.71;stroke:#00C19F;fill:#00C19F"/><circle cx="289" cy="262.7" r="1.95" style="stroke-width:0.71;stroke:#00C19F;fill:#00C19F"/><circle cx="359.91" cy="274.21" r="1.95" style="stroke-width:0.71;stroke:#00C19F;fill:#00C19F"/><circle cx="430.82" cy="274.21" r="1.95" style="stroke-width:0.71;stroke:#00C19F;fill:#00C19F"/><circle cx="501.73" cy="278.04" r="1.95" style="stroke-width:0.71;stroke:#00C19F;fill:#00C19F"/><circle cx="572.64" cy="283.79" r="1.95" style="stroke-width:0.71;stroke:#00C19F;fill:#00C19F"/><circle cx="76.27" cy="335.57" r="1.95" style="stroke-width:0.71;stroke:#00B9E3;fill:#00B9E3"/><circle cx="147.18" cy="329.82" r="1.95" style="stroke-width:0.71;stroke:#00B9E3;fill:#00B9E3"/><circle cx="218.09" cy="295.3" r="1.95" style="stroke-width:0.71;stroke:#00B9E3;fill:#00B9E3"/><circle cx="289" cy="318.31" r="1.95" style="stroke-width:0.71;stroke:#00B9E3;fill:#00B9E3"/><circle cx="359.91" cy="341.32" r="1.95" style="stroke-width:0.71;stroke:#00B9E3;fill:#00B9E3"/><circle cx="430.82" cy="341.32" r="1.95" style="stroke-width:0.71;stroke:#00B9E3;fill:#00B9E3"/><circle cx="501.73" cy="343.24" r="1.95" style="stroke-width:0.71;stroke:#00B9E3;fill:#00B9E3"/><circle cx="572.64" cy="345.16" r="1.95" style="stroke-width:0.71;stroke:#00B9E3;fill:#00B9E3"/><circle cx="76.27" cy="299.14" r="1.95" style="stroke-width:0.71;stroke:#619CFF;fill:#619CFF"/><circle cx="147.18" cy="306.81" r="1.95" style="stroke-width:0.71;stroke:#619CFF;fill:#619CFF"/><circle cx="218.09" cy="268.45" r="1.95" style="stroke-width:0.71;stroke:#619CFF;fill:#619CFF"/><circle cx="289" cy="276.12" r="1.95" style="stroke-width:0.71;stroke:#619CFF;fill:#619CFF"/><circle cx="359.91" cy="270.37" r="1.95" style="stroke-width:0.71;stroke:#619CFF;fill:#619CFF"/><circle cx="430.82" cy="272.29" r="1.95" style="stroke-width:0.71;stroke:#619CFF;fill:#619CFF"/><circle cx="501.73" cy="274.21" r="1.95" style="stroke-width:0.71;stroke:#619CFF;fill:#619CFF"/><circle cx="572.64" cy="281.88" r="1.95" style="stroke-width:0.71;stroke:#619CFF;fill:#619CFF"/><circle cx="76.27" cy="249.28" r="1.95" style="stroke-width:0.71;stroke:#DB72FB;fill:#DB72FB"/><circle cx="147.18" cy="260.78" r="1.95" style="stroke-width:0.71;stroke:#DB72FB;fill:#DB72FB"/><circle cx="218.09" cy="276.12" r="1.95" style="stroke-width:0.71;stroke:#DB72FB;fill:#DB72FB"/><circle cx="289" cy="299.14" r="1.95" style="stroke-width:0.71;stroke:#DB72FB;fill:#DB72FB"/><circle cx="359.91" cy="327.9" r="1.95" style="stroke-width:0.71;stroke:#DB72FB;fill:#DB72FB"/><circle cx="430.82" cy="335.57" r="1.95" style="stroke-width:0.71;stroke:#DB72FB;fill:#DB72FB"/><circle cx="501.73" cy="339.41" r="1.95" style="stroke-width:0.71;stroke:#DB72FB;fill:#DB72FB"/><circle cx="572.64" cy="343.24" r="1.95" style="stroke-width:0.71;stroke:#DB72FB;fill:#DB72FB"/><circle cx="76.27" cy="57.51" r="1.95" style="stroke-width:0.71;stroke:#FF61C3;fill:#FF61C3"/><circle cx="147.18" cy="82.44" r="1.95" style="stroke-width:0.71;stroke:#FF61C3;fill:#FF61C3"/><circle cx="218.09" cy="74.77" r="1.95" style="stroke-width:0.71;stroke:#FF61C3;fill:#FF61C3"/><circle cx="289" cy="113.12" r="1.95" style="stroke-width:0.71;stroke:#FF61C3;fill:#FF61C3"/><circle cx="359.91" cy="149.56" r="1.95" style="stroke-width:0.71;stroke:#FF61C3;fill:#FF61C3"/><circle cx="430.82" cy="157.23" r="1.95" style="stroke-width:0.71;stroke:#FF61C3;fill:#FF61C3"/><circle cx="501.73" cy="164.9" r="1.95" style="stroke-width:0.71;stroke:#FF61C3;fill:#FF61C3"/><circle cx="572.64" cy="157.23" r="1.95" style="stroke-width:0.71;stroke:#FF61C3;fill:#FF61C3"/><path style="stroke-width:1.07;stroke:#F8766D;stroke-linecap:butt" d="M76.27 199.42l70.91-21.1 70.91-80.54L289 111.21l70.91 34.51 70.91-1.91 70.91 1.91 70.91 5.76"/><path style="stroke-width:1.07;stroke:#D39200;stroke-linecap:butt" d="M76.27 132.3l70.91 21.09 70.91-28.76L289 147.64l70.91 1.92 70.91 7.67 70.91-1.92 70.91-3.83"/><path style="stroke-width:1.07;stroke:#93AA00;stroke-linecap:butt" d="M76.27 423.78l70.91-7.67 70.91-49.86L289 331.74l70.91-13.43h70.91l70.91-1.92 70.91-1.91"/><path style="stroke-width:1.07;stroke:#00BA38;stroke-linecap:butt" d="M76.27 295.3l70.91 30.68 70.91 5.76L289 345.16l70.91 11.51h141.82l70.91 1.91"/><path style="stroke-width:1.07;stroke:#00C19F;stroke-linecap:butt" d="M76.27 207.09l70.91-9.59 70.91 61.36L289 262.7l70.91 11.51h70.91l70.91 3.83 70.91 5.75"/><path style="stroke-width:1.07;stroke:#00B9E3;stroke-linecap:butt" d="M76.27 335.57l70.91-5.75 70.91-34.52L289 318.31l70.91 23.01h70.91l70.91 1.92 70.91 1.92"/><path style="stroke-width:1.07;stroke:#619CFF;stroke-linecap:butt" d="M76.27 299.14l70.91 7.67 70.91-38.36 70.91 7.67 70.91-5.75 70.91 1.92 70.91 1.92 70.91 7.67"/><path style="stroke-width:1.07;stroke:#DB72FB;stroke-linecap:butt" d="M76.27 249.28l70.91 11.5 70.91 15.34L289 299.14l70.91 28.76 70.91 7.67 70.91 3.84 70.91 3.83"/><path style="stroke-width:1.07;stroke:#FF61C3;stroke-linecap:butt" d="M76.27 57.51l70.91 24.93 70.91-7.67L289 113.12l70.91 36.44 70.91 7.67 70.91 7.67 70.91-7.67"/></g><g clip-path="url(#c2)"><text x="28.79" y="352.21" text-anchor="end" style="font-family:JetBrains Mono;font-size:8.80px;fill:#4D4D4D" textLength="5.28" lengthAdjust="spacingAndGlyphs">5</text><text x="28.79" y="256.32" text-anchor="end" style="font-family:JetBrains Mono;font-size:8.80px;fill:#4D4D4D" textLength="10.56" lengthAdjust="spacingAndGlyphs">10</text><text x="28.79" y="160.44" text-anchor="end" style="font-family:JetBrains Mono;font-size:8.80px;fill:#4D4D4D" textLength="10.56" lengthAdjust="spacingAndGlyphs">15</text><text x="28.79" y="64.56" text-anchor="end" style="font-family:JetBrains Mono;font-size:8.80px;fill:#4D4D4D" textLength="10.56" lengthAdjust="spacingAndGlyphs">20</text><path style="stroke-width:1.07;stroke:#333333;stroke-linecap:butt" d="M30.98 348.99h2.74M30.98 253.11h2.74M30.98 157.23h2.74M30.98 61.35h2.74M76.27 444.84v-2.74M147.18 444.84v-2.74M218.09 444.84v-2.74M289 444.84v-2.74M359.91 444.84v-2.74M430.82 444.84v-2.74M501.73 444.84v-2.74M572.64 444.84v-2.74"/><text x="76.27" y="453.45" text-anchor="middle" style="font-family:JetBrains Mono;font-size:8.80px;fill:#4D4D4D" textLength="21.11" lengthAdjust="spacingAndGlyphs">1975</text><text x="147.18" y="453.45" text-anchor="middle" style="font-family:JetBrains Mono;font-size:8.80px;fill:#4D4D4D" textLength="21.11" lengthAdjust="spacingAndGlyphs">1985</text><text x="218.09" y="453.45" text-anchor="middle" style="font-family:JetBrains Mono;font-size:8.80px;fill:#4D4D4D" textLength="21.11" lengthAdjust="spacingAndGlyphs">2005</text><text x="289" y="453.45" text-anchor="middle" style="font-family:JetBrains Mono;font-size:8.80px;fill:#4D4D4D" textLength="21.11" lengthAdjust="spacingAndGlyphs">2010</text><text x="359.91" y="453.45" text-anchor="middle" style="font-family:JetBrains Mono;font-size:8.80px;fill:#4D4D4D" textLength="21.11" lengthAdjust="spacingAndGlyphs">2015</text><text x="430.82" y="453.45" text-anchor="middle" style="font-family:JetBrains Mono;font-size:8.80px;fill:#4D4D4D" textLength="21.11" lengthAdjust="spacingAndGlyphs">2016</text><text x="501.73" y="453.45" text-anchor="middle" style="font-family:JetBrains Mono;font-size:8.80px;fill:#4D4D4D" textLength="21.11" lengthAdjust="spacingAndGlyphs">2017</text><text x="572.64" y="453.45" text-anchor="middle" style="font-family:JetBrains Mono;font-size:8.80px;fill:#4D4D4D" textLength="21.11" lengthAdjust="spacingAndGlyphs">2018</text><text transform="rotate(-90 127.08 113.57)" text-anchor="middle" style="font-family:JetBrains Mono;font-size:11.00px" textLength="343.32" lengthAdjust="spacingAndGlyphs">Emissions per capita (metric tons of carbon dioxide)</text><path style="stroke-width:1.07;stroke:none;fill:#FFFFFF" d="M626.14 149.66h160.38v181.97H626.14z"/><text x="631.62" y="164.17" style="font-family:JetBrains Mono;font-size:11.00px" textLength="46.22" lengthAdjust="spacingAndGlyphs">Country</text><path style="stroke-width:1.07;stroke:none;fill:#F2F2F2" d="M631.62 170.63h17.28v17.28h-17.28z"/><circle cx="640.26" cy="179.27" r="1.95" style="stroke-width:0.71;stroke:#F8766D;fill:#F8766D"/><path style="stroke-width:1.07;stroke:#F8766D;stroke-linecap:butt" d="M633.35 179.27h13.82"/><path style="stroke-width:1.07;stroke:none;fill:#F2F2F2" d="M631.62 187.91h17.28v17.28h-17.28z"/><circle cx="640.26" cy="196.55" r="1.95" style="stroke-width:0.71;stroke:#D39200;fill:#D39200"/><path style="stroke-width:1.07;stroke:#D39200;stroke-linecap:butt" d="M633.35 196.55h13.82"/><path style="stroke-width:1.07;stroke:none;fill:#F2F2F2" d="M631.62 205.19h17.28v17.28h-17.28z"/><circle cx="640.26" cy="213.83" r="1.95" style="stroke-width:0.71;stroke:#93AA00;fill:#93AA00"/><path style="stroke-width:1.07;stroke:#93AA00;stroke-linecap:butt" d="M633.35 213.83h13.82"/><path style="stroke-width:1.07;stroke:none;fill:#F2F2F2" d="M631.62 222.47h17.28v17.28h-17.28z"/><circle cx="640.26" cy="231.11" r="1.95" style="stroke-width:0.71;stroke:#00BA38;fill:#00BA38"/><path style="stroke-width:1.07;stroke:#00BA38;stroke-linecap:butt" d="M633.35 231.11h13.82"/><path style="stroke-width:1.07;stroke:none;fill:#F2F2F2" d="M631.62 239.75h17.28v17.28h-17.28z"/><circle cx="640.26" cy="248.39" r="1.95" style="stroke-width:0.71;stroke:#00C19F;fill:#00C19F"/><path style="stroke-width:1.07;stroke:#00C19F;stroke-linecap:butt" d="M633.35 248.39h13.82"/><path style="stroke-width:1.07;stroke:none;fill:#F2F2F2" d="M631.62 257.03h17.28v17.28h-17.28z"/><circle cx="640.26" cy="265.67" r="1.95" style="stroke-width:0.71;stroke:#00B9E3;fill:#00B9E3"/><path style="stroke-width:1.07;stroke:#00B9E3;stroke-linecap:butt" d="M633.35 265.67h13.82"/><path style="stroke-width:1.07;stroke:none;fill:#F2F2F2" d="M631.62 274.31h17.28v17.28h-17.28z"/><circle cx="640.26" cy="282.95" r="1.95" style="stroke-width:0.71;stroke:#619CFF;fill:#619CFF"/><path style="stroke-width:1.07;stroke:#619CFF;stroke-linecap:butt" d="M633.35 282.95h13.82"/><path style="stroke-width:1.07;stroke:none;fill:#F2F2F2" d="M631.62 291.59h17.28v17.28h-17.28z"/><circle cx="640.26" cy="300.23" r="1.95" style="stroke-width:0.71;stroke:#DB72FB;fill:#DB72FB"/><path style="stroke-width:1.07;stroke:#DB72FB;stroke-linecap:butt" d="M633.35 300.23h13.82"/><path style="stroke-width:1.07;stroke:none;fill:#F2F2F2" d="M631.62 308.87h17.28v17.28h-17.28z"/><circle cx="640.26" cy="317.51" r="1.95" style="stroke-width:0.71;stroke:#FF61C3;fill:#FF61C3"/><path style="stroke-width:1.07;stroke:#FF61C3;stroke-linecap:butt" d="M633.35 317.51h13.82"/><text x="654.38" y="182.49" style="font-family:JetBrains Mono;font-size:8.80px" textLength="47.5" lengthAdjust="spacingAndGlyphs">Australia</text><text x="654.38" y="199.77" style="font-family:JetBrains Mono;font-size:8.80px" textLength="31.67" lengthAdjust="spacingAndGlyphs">Canada</text><text x="654.38" y="217.05" style="font-family:JetBrains Mono;font-size:8.80px" textLength="26.39" lengthAdjust="spacingAndGlyphs">China</text><text x="654.38" y="234.33" style="font-family:JetBrains Mono;font-size:8.80px" textLength="31.67" lengthAdjust="spacingAndGlyphs">France</text><text x="654.38" y="251.61" style="font-family:JetBrains Mono;font-size:8.80px" textLength="36.94" lengthAdjust="spacingAndGlyphs">Germany</text><text x="654.38" y="268.89" style="font-family:JetBrains Mono;font-size:8.80px" textLength="26.39" lengthAdjust="spacingAndGlyphs">Italy</text><text x="654.38" y="286.17" style="font-family:JetBrains Mono;font-size:8.80px" textLength="26.39" lengthAdjust="spacingAndGlyphs">Japan</text><text x="654.38" y="303.45" style="font-family:JetBrains Mono;font-size:8.80px" textLength="73.89" lengthAdjust="spacingAndGlyphs">United Kingdom</text><text x="654.38" y="320.73" style="font-family:JetBrains Mono;font-size:8.80px" textLength="126.66" lengthAdjust="spacingAndGlyphs">United States of America</text><text x="33.72" y="31.74" style="font-family:JetBrains Mono;font-size:11.00px" textLength="145.25" lengthAdjust="spacingAndGlyphs">Data from 1975 to 2018</text><text x="33.72" y="15.7" style="font-family:JetBrains Mono;font-size:14.00px" textLength="319.29" lengthAdjust="spacingAndGlyphs">Per capita emissions of some countries</text><text x="615.18" y="466.94" text-anchor="end" style="font-family:JetBrains Mono;font-size:8.80px" textLength="237.49" lengthAdjust="spacingAndGlyphs">Data sources: http://data.un.org/default.aspx</text></g></svg>