<svg xmlns="http://www.w3.org/2000/svg" class="httpgd" width="654" height="547.33"><defs><clipPath id="c0"><path d="M0 0h654v547.33H0z"/></clipPath><clipPath id="c1"><path d="M33.72 55.97H235v138.32H33.72z"/></clipPath><clipPath id="c2"><path d="M0 0h654v547.33H0z"/></clipPath><clipPath id="c3"><path d="M33.72 216.54H235v138.32H33.72z"/></clipPath><clipPath id="c4"><path d="M0 0h654v547.33H0z"/></clipPath><clipPath id="c5"><path d="M33.72 377.11H235v138.32H33.72z"/></clipPath><clipPath id="c6"><path d="M0 0h654v547.33H0z"/></clipPath><clipPath id="c7"><path d="M240.48 55.97h201.28v138.32H240.48z"/></clipPath><clipPath id="c8"><path d="M0 0h654v547.33H0z"/></clipPath><clipPath id="c9"><path d="M240.48 216.54h201.28v138.32H240.48z"/></clipPath><clipPath id="c10"><path d="M0 0h654v547.33H0z"/></clipPath><clipPath id="c11"><path d="M240.48 377.11h201.28v138.32H240.48z"/></clipPath><clipPath id="c12"><path d="M0 0h654v547.33H0z"/></clipPath><clipPath id="c13"><path d="M447.24 55.97h201.28v138.32H447.24z"/></clipPath><clipPath id="c14"><path d="M0 0h654v547.33H0z"/></clipPath><clipPath id="c15"><path d="M447.24 216.54h201.28v138.32H447.24z"/></clipPath><clipPath id="c16"><path d="M0 0h654v547.33H0z"/></clipPath><clipPath id="c17"><path d="M447.24 377.11h201.28v138.32H447.24z"/></clipPath><clipPath id="c18"><path d="M0 0h654v547.33H0z"/></clipPath><clipPath id="c19"><path d="M33.72 360.34H235v16.77H33.72z"/></clipPath><clipPath id="c20"><path d="M0 0h654v547.33H0z"/></clipPath><clipPath id="c21"><path d="M240.48 360.34h201.28v16.77H240.48z"/></clipPath><clipPath id="c22"><path d="M0 0h654v547.33H0z"/></clipPath><clipPath id="c23"><path d="M447.24 360.34h201.28v16.77H447.24z"/></clipPath><clipPath id="c24"><path d="M0 0h654v547.33H0z"/></clipPath><clipPath id="c25"><path d="M33.72 199.77H235v16.77H33.72z"/></clipPath><clipPath id="c26"><path d="M0 0h654v547.33H0z"/></clipPath><clipPath id="c27"><path d="M240.48 199.77h201.28v16.77H240.48z"/></clipPath><clipPath id="c28"><path d="M0 0h654v547.33H0z"/></clipPath><clipPath id="c29"><path d="M447.24 199.77h201.28v16.77H447.24z"/></clipPath><clipPath id="c30"><path d="M0 0h654v547.33H0z"/></clipPath><clipPath id="c31"><path d="M33.72 39.2H235v16.77H33.72z"/></clipPath><clipPath id="c32"><path d="M0 0h654v547.33H0z"/></clipPath><clipPath id="c33"><path d="M240.48 39.2h201.28v16.77H240.48z"/></clipPath><clipPath id="c34"><path d="M0 0h654v547.33H0z"/></clipPath><clipPath id="c35"><path d="M447.24 39.2h201.28v16.77H447.24z"/></clipPath><clipPath id="c36"><path d="M0 0h654v547.33H0z"/></clipPath><style><![CDATA[.httpgd line,.httpgd polyline,.httpgd polygon,.httpgd path,.httpgd rect,.httpgd circle{fill:none;stroke:#000000;stroke-linecap:round;stroke-linejoin:round;stroke-miterlimit:10.00}]]></style></defs><rect width="100%" height="100%" style="stroke:none;fill:#FFFFFF"/><g clip-path="url(#c0)"><path style="stroke-width:1.07;stroke:#FFFFFF;fill:#FFFFFF" d="M0 0h654v547.33H0z"/></g><g clip-path="url(#c1)"><path style="stroke-width:1.07;stroke:none;fill:#EBEBEB" d="M33.72 55.97H235v138.32H33.72z"/><path style="stroke-width:0.53;stroke:#FFFFFF;stroke-linecap:butt" d="M33.72 178.78H235M33.72 145.87H235M33.72 112.95H235M33.72 80.03H235"/><path style="stroke-width:1.07;stroke:#FFFFFF;stroke-linecap:butt" d="M33.72 162.33H235M33.72 129.41H235M33.72 96.49H235M33.72 63.57H235M48.45 194.29V55.97M73 194.29V55.97M97.54 194.29V55.97M122.09 194.29V55.97M146.63 194.29V55.97M171.18 194.29V55.97M195.73 194.29V55.97M220.27 194.29V55.97"/><circle cx="48.45" cy="110.98" r="1.95" style="stroke-width:0.71;stroke:#F8766D;fill:#F8766D"/><circle cx="73" cy="103.73" r="1.95" style="stroke-width:0.71;stroke:#F8766D;fill:#F8766D"/><circle cx="97.54" cy="76.08" r="1.95" style="stroke-width:0.71;stroke:#F8766D;fill:#F8766D"/><circle cx="122.09" cy="80.69" r="1.95" style="stroke-width:0.71;stroke:#F8766D;fill:#F8766D"/><circle cx="146.63" cy="92.54" r="1.95" style="stroke-width:0.71;stroke:#F8766D;fill:#F8766D"/><circle cx="171.18" cy="91.88" r="1.95" style="stroke-width:0.71;stroke:#F8766D;fill:#F8766D"/><circle cx="195.73" cy="92.54" r="1.95" style="stroke-width:0.71;stroke:#F8766D;fill:#F8766D"/><circle cx="220.27" cy="94.52" r="1.95" style="stroke-width:0.71;stroke:#F8766D;fill:#F8766D"/><path style="stroke-width:1.07;stroke:#F8766D;stroke-linecap:butt" d="M48.45 110.98L73 103.73l24.54-27.65 24.55 4.61 24.54 11.85 24.55-.66 24.55.66 24.54 1.98"/></g><g clip-path="url(#c3)"><path style="stroke-width:1.07;stroke:none;fill:#EBEBEB" d="M33.72 216.54H235v138.32H33.72z"/><path style="stroke-width:0.53;stroke:#FFFFFF;stroke-linecap:butt" d="M33.72 339.36H235M33.72 306.44H235M33.72 273.52H235M33.72 240.6H235"/><path style="stroke-width:1.07;stroke:#FFFFFF;stroke-linecap:butt" d="M33.72 322.9H235M33.72 289.98H235M33.72 257.06H235M33.72 224.15H235M48.45 354.86V216.54M73 354.86V216.54M97.54 354.86V216.54M122.09 354.86V216.54M146.63 354.86V216.54M171.18 354.86V216.54M195.73 354.86V216.54M220.27 354.86V216.54"/><circle cx="48.45" cy="304.46" r="1.95" style="stroke-width:0.71;stroke:#00BA38;fill:#00BA38"/><circle cx="73" cy="315" r="1.95" style="stroke-width:0.71;stroke:#00BA38;fill:#00BA38"/><circle cx="97.54" cy="316.97" r="1.95" style="stroke-width:0.71;stroke:#00BA38;fill:#00BA38"/><circle cx="122.09" cy="321.58" r="1.95" style="stroke-width:0.71;stroke:#00BA38;fill:#00BA38"/><circle cx="146.63" cy="325.53" r="1.95" style="stroke-width:0.71;stroke:#00BA38;fill:#00BA38"/><circle cx="171.18" cy="325.53" r="1.95" style="stroke-width:0.71;stroke:#00BA38;fill:#00BA38"/><circle cx="195.73" cy="325.53" r="1.95" style="stroke-width:0.71;stroke:#00BA38;fill:#00BA38"/><circle cx="220.27" cy="326.19" r="1.95" style="stroke-width:0.71;stroke:#00BA38;fill:#00BA38"/><path style="stroke-width:1.07;stroke:#00BA38;stroke-linecap:butt" d="M48.45 304.46L73 315l24.54 1.97 24.55 4.61 24.54 3.95h49.1l24.54.66"/></g><g clip-path="url(#c5)"><path style="stroke-width:1.07;stroke:none;fill:#EBEBEB" d="M33.72 377.11H235v138.32H33.72z"/><path style="stroke-width:0.53;stroke:#FFFFFF;stroke-linecap:butt" d="M33.72 499.93H235M33.72 467.01H235M33.72 434.09H235M33.72 401.17H235"/><path style="stroke-width:1.07;stroke:#FFFFFF;stroke-linecap:butt" d="M33.72 483.47H235M33.72 450.55H235M33.72 417.63H235M33.72 384.72H235M48.45 515.43V377.11M73 515.43V377.11M97.54 515.43V377.11M122.09 515.43V377.11M146.63 515.43V377.11M171.18 515.43V377.11M195.73 515.43V377.11M220.27 515.43V377.11"/><circle cx="48.45" cy="466.35" r="1.95" style="stroke-width:0.71;stroke:#619CFF;fill:#619CFF"/><circle cx="73" cy="468.98" r="1.95" style="stroke-width:0.71;stroke:#619CFF;fill:#619CFF"/><circle cx="97.54" cy="455.82" r="1.95" style="stroke-width:0.71;stroke:#619CFF;fill:#619CFF"/><circle cx="122.09" cy="458.45" r="1.95" style="stroke-width:0.71;stroke:#619CFF;fill:#619CFF"/><circle cx="146.63" cy="456.48" r="1.95" style="stroke-width:0.71;stroke:#619CFF;fill:#619CFF"/><circle cx="171.18" cy="457.13" r="1.95" style="stroke-width:0.71;stroke:#619CFF;fill:#619CFF"/><circle cx="195.73" cy="457.79" r="1.95" style="stroke-width:0.71;stroke:#619CFF;fill:#619CFF"/><circle cx="220.27" cy="460.43" r="1.95" style="stroke-width:0.71;stroke:#619CFF;fill:#619CFF"/><path style="stroke-width:1.07;stroke:#619CFF;stroke-linecap:butt" d="M48.45 466.35L73 468.98l24.54-13.16 24.55 2.63 24.54-1.97 24.55.65 24.55.66 24.54 2.64"/></g><g clip-path="url(#c7)"><path style="stroke-width:1.07;stroke:none;fill:#EBEBEB" d="M240.48 55.97h201.28v138.32H240.48z"/><path style="stroke-width:0.53;stroke:#FFFFFF;stroke-linecap:butt" d="M240.48 178.78h201.28M240.48 145.87h201.28M240.48 112.95h201.28M240.48 80.03h201.28"/><path style="stroke-width:1.07;stroke:#FFFFFF;stroke-linecap:butt" d="M240.48 162.33h201.28M240.48 129.41h201.28M240.48 96.49h201.28M240.48 63.57h201.28M255.21 194.29V55.97M279.75 194.29V55.97M304.3 194.29V55.97M328.85 194.29V55.97M353.39 194.29V55.97M377.94 194.29V55.97M402.49 194.29V55.97M427.03 194.29V55.97"/><circle cx="255.21" cy="87.93" r="1.95" style="stroke-width:0.71;stroke:#D39200;fill:#D39200"/><circle cx="279.75" cy="95.18" r="1.95" style="stroke-width:0.71;stroke:#D39200;fill:#D39200"/><circle cx="304.3" cy="85.3" r="1.95" style="stroke-width:0.71;stroke:#D39200;fill:#D39200"/><circle cx="328.85" cy="93.2" r="1.95" style="stroke-width:0.71;stroke:#D39200;fill:#D39200"/><circle cx="353.39" cy="93.86" r="1.95" style="stroke-width:0.71;stroke:#D39200;fill:#D39200"/><circle cx="377.94" cy="96.49" r="1.95" style="stroke-width:0.71;stroke:#D39200;fill:#D39200"/><circle cx="402.49" cy="95.83" r="1.95" style="stroke-width:0.71;stroke:#D39200;fill:#D39200"/><circle cx="427.03" cy="94.52" r="1.95" style="stroke-width:0.71;stroke:#D39200;fill:#D39200"/><path style="stroke-width:1.07;stroke:#D39200;stroke-linecap:butt" d="M255.21 87.93l24.54 7.25 24.55-9.88 24.55 7.9 24.54.66 24.55 2.63 24.55-.66 24.54-1.31"/></g><g clip-path="url(#c9)"><path style="stroke-width:1.07;stroke:none;fill:#EBEBEB" d="M240.48 216.54h201.28v138.32H240.48z"/><path style="stroke-width:0.53;stroke:#FFFFFF;stroke-linecap:butt" d="M240.48 339.36h201.28M240.48 306.44h201.28M240.48 273.52h201.28M240.48 240.6h201.28"/><path style="stroke-width:1.07;stroke:#FFFFFF;stroke-linecap:butt" d="M240.48 322.9h201.28M240.48 289.98h201.28M240.48 257.06h201.28M240.48 224.15h201.28M255.21 354.86V216.54M279.75 354.86V216.54M304.3 354.86V216.54M328.85 354.86V216.54M353.39 354.86V216.54M377.94 354.86V216.54M402.49 354.86V216.54M427.03 354.86V216.54"/><circle cx="255.21" cy="274.18" r="1.95" style="stroke-width:0.71;stroke:#00C19F;fill:#00C19F"/><circle cx="279.75" cy="270.89" r="1.95" style="stroke-width:0.71;stroke:#00C19F;fill:#00C19F"/><circle cx="304.3" cy="291.95" r="1.95" style="stroke-width:0.71;stroke:#00C19F;fill:#00C19F"/><circle cx="328.85" cy="293.27" r="1.95" style="stroke-width:0.71;stroke:#00C19F;fill:#00C19F"/><circle cx="353.39" cy="297.22" r="1.95" style="stroke-width:0.71;stroke:#00C19F;fill:#00C19F"/><circle cx="377.94" cy="297.22" r="1.95" style="stroke-width:0.71;stroke:#00C19F;fill:#00C19F"/><circle cx="402.49" cy="298.54" r="1.95" style="stroke-width:0.71;stroke:#00C19F;fill:#00C19F"/><circle cx="427.03" cy="300.51" r="1.95" style="stroke-width:0.71;stroke:#00C19F;fill:#00C19F"/><path style="stroke-width:1.07;stroke:#00C19F;stroke-linecap:butt" d="M255.21 274.18l24.54-3.29 24.55 21.06 24.55 1.32 24.54 3.95h24.55l24.55 1.32 24.54 1.97"/></g><g clip-path="url(#c11)"><path style="stroke-width:1.07;stroke:none;fill:#EBEBEB" d="M240.48 377.11h201.28v138.32H240.48z"/><path style="stroke-width:0.53;stroke:#FFFFFF;stroke-linecap:butt" d="M240.48 499.93h201.28M240.48 467.01h201.28M240.48 434.09h201.28M240.48 401.17h201.28"/><path style="stroke-width:1.07;stroke:#FFFFFF;stroke-linecap:butt" d="M240.48 483.47h201.28M240.48 450.55h201.28M240.48 417.63h201.28M240.48 384.72h201.28M255.21 515.43V377.11M279.75 515.43V377.11M304.3 515.43V377.11M328.85 515.43V377.11M353.39 515.43V377.11M377.94 515.43V377.11M402.49 515.43V377.11M427.03 515.43V377.11"/><circle cx="255.21" cy="449.23" r="1.95" style="stroke-width:0.71;stroke:#DB72FB;fill:#DB72FB"/><circle cx="279.75" cy="453.18" r="1.95" style="stroke-width:0.71;stroke:#DB72FB;fill:#DB72FB"/><circle cx="304.3" cy="458.45" r="1.95" style="stroke-width:0.71;stroke:#DB72FB;fill:#DB72FB"/><circle cx="328.85" cy="466.35" r="1.95" style="stroke-width:0.71;stroke:#DB72FB;fill:#DB72FB"/><circle cx="353.39" cy="476.23" r="1.95" style="stroke-width:0.71;stroke:#DB72FB;fill:#DB72FB"/><circle cx="377.94" cy="478.86" r="1.95" style="stroke-width:0.71;stroke:#DB72FB;fill:#DB72FB"/><circle cx="402.49" cy="480.18" r="1.95" style="stroke-width:0.71;stroke:#DB72FB;fill:#DB72FB"/><circle cx="427.03" cy="481.49" r="1.95" style="stroke-width:0.71;stroke:#DB72FB;fill:#DB72FB"/><path style="stroke-width:1.07;stroke:#DB72FB;stroke-linecap:butt" d="M255.21 449.23l24.54 3.95 24.55 5.27 24.55 7.9 24.54 9.88 24.55 2.63 24.55 1.32 24.54 1.31"/></g><g clip-path="url(#c13)"><path style="stroke-width:1.07;stroke:none;fill:#EBEBEB" d="M447.24 55.97h201.28v138.32H447.24z"/><path style="stroke-width:0.53;stroke:#FFFFFF;stroke-linecap:butt" d="M447.24 178.78h201.28M447.24 145.87h201.28M447.24 112.95h201.28M447.24 80.03h201.28"/><path style="stroke-width:1.07;stroke:#FFFFFF;stroke-linecap:butt" d="M447.24 162.33h201.28M447.24 129.41h201.28M447.24 96.49h201.28M447.24 63.57h201.28M461.97 194.29V55.97M486.51 194.29V55.97M511.06 194.29V55.97M535.61 194.29V55.97M560.15 194.29V55.97M584.7 194.29V55.97M609.25 194.29V55.97M633.79 194.29V55.97"/><circle cx="461.97" cy="188" r="1.95" style="stroke-width:0.71;stroke:#93AA00;fill:#93AA00"/><circle cx="486.51" cy="185.37" r="1.95" style="stroke-width:0.71;stroke:#93AA00;fill:#93AA00"/><circle cx="511.06" cy="168.25" r="1.95" style="stroke-width:0.71;stroke:#93AA00;fill:#93AA00"/><circle cx="535.61" cy="156.4" r="1.95" style="stroke-width:0.71;stroke:#93AA00;fill:#93AA00"/><circle cx="560.15" cy="151.79" r="1.95" style="stroke-width:0.71;stroke:#93AA00;fill:#93AA00"/><circle cx="584.7" cy="151.79" r="1.95" style="stroke-width:0.71;stroke:#93AA00;fill:#93AA00"/><circle cx="609.25" cy="151.13" r="1.95" style="stroke-width:0.71;stroke:#93AA00;fill:#93AA00"/><circle cx="633.79" cy="150.48" r="1.95" style="stroke-width:0.71;stroke:#93AA00;fill:#93AA00"/><path style="stroke-width:1.07;stroke:#93AA00;stroke-linecap:butt" d="M461.97 188l24.54-2.63 24.55-17.12 24.55-11.85 24.54-4.61h24.55l24.55-.66 24.54-.65"/></g><g clip-path="url(#c15)"><path style="stroke-width:1.07;stroke:none;fill:#EBEBEB" d="M447.24 216.54h201.28v138.32H447.24z"/><path style="stroke-width:0.53;stroke:#FFFFFF;stroke-linecap:butt" d="M447.24 339.36h201.28M447.24 306.44h201.28M447.24 273.52h201.28M447.24 240.6h201.28"/><path style="stroke-width:1.07;stroke:#FFFFFF;stroke-linecap:butt" d="M447.24 322.9h201.28M447.24 289.98h201.28M447.24 257.06h201.28M447.24 224.15h201.28M461.97 354.86V216.54M486.51 354.86V216.54M511.06 354.86V216.54M535.61 354.86V216.54M560.15 354.86V216.54M584.7 354.86V216.54M609.25 354.86V216.54M633.79 354.86V216.54"/><circle cx="461.97" cy="318.29" r="1.95" style="stroke-width:0.71;stroke:#00B9E3;fill:#00B9E3"/><circle cx="486.51" cy="316.31" r="1.95" style="stroke-width:0.71;stroke:#00B9E3;fill:#00B9E3"/><circle cx="511.06" cy="304.46" r="1.95" style="stroke-width:0.71;stroke:#00B9E3;fill:#00B9E3"/><circle cx="535.61" cy="312.36" r="1.95" style="stroke-width:0.71;stroke:#00B9E3;fill:#00B9E3"/><circle cx="560.15" cy="320.26" r="1.95" style="stroke-width:0.71;stroke:#00B9E3;fill:#00B9E3"/><circle cx="584.7" cy="320.26" r="1.95" style="stroke-width:0.71;stroke:#00B9E3;fill:#00B9E3"/><circle cx="609.25" cy="320.92" r="1.95" style="stroke-width:0.71;stroke:#00B9E3;fill:#00B9E3"/><circle cx="633.79" cy="321.58" r="1.95" style="stroke-width:0.71;stroke:#00B9E3;fill:#00B9E3"/><path style="stroke-width:1.07;stroke:#00B9E3;stroke-linecap:butt" d="M461.97 318.29l24.54-1.98 24.55-11.85 24.55 7.9 24.54 7.9h24.55l24.55.66 24.54.66"/></g><g clip-path="url(#c17)"><path style="stroke-width:1.07;stroke:none;fill:#EBEBEB" d="M447.24 377.11h201.28v138.32H447.24z"/><path style="stroke-width:0.53;stroke:#FFFFFF;stroke-linecap:butt" d="M447.24 499.93h201.28M447.24 467.01h201.28M447.24 434.09h201.28M447.24 401.17h201.28"/><path style="stroke-width:1.07;stroke:#FFFFFF;stroke-linecap:butt" d="M447.24 483.47h201.28M447.24 450.55h201.28M447.24 417.63h201.28M447.24 384.72h201.28M461.97 515.43V377.11M486.51 515.43V377.11M511.06 515.43V377.11M535.61 515.43V377.11M560.15 515.43V377.11M584.7 515.43V377.11M609.25 515.43V377.11M633.79 515.43V377.11"/><circle cx="461.97" cy="383.4" r="1.95" style="stroke-width:0.71;stroke:#FF61C3;fill:#FF61C3"/><circle cx="486.51" cy="391.96" r="1.95" style="stroke-width:0.71;stroke:#FF61C3;fill:#FF61C3"/><circle cx="511.06" cy="389.32" r="1.95" style="stroke-width:0.71;stroke:#FF61C3;fill:#FF61C3"/><circle cx="535.61" cy="402.49" r="1.95" style="stroke-width:0.71;stroke:#FF61C3;fill:#FF61C3"/><circle cx="560.15" cy="415" r="1.95" style="stroke-width:0.71;stroke:#FF61C3;fill:#FF61C3"/><circle cx="584.7" cy="417.63" r="1.95" style="stroke-width:0.71;stroke:#FF61C3;fill:#FF61C3"/><circle cx="609.25" cy="420.27" r="1.95" style="stroke-width:0.71;stroke:#FF61C3;fill:#FF61C3"/><circle cx="633.79" cy="417.63" r="1.95" style="stroke-width:0.71;stroke:#FF61C3;fill:#FF61C3"/><path style="stroke-width:1.07;stroke:#FF61C3;stroke-linecap:butt" d="M461.97 383.4l24.54 8.56 24.55-2.64 24.55 13.17L560.15 415l24.55 2.63 24.55 2.64 24.54-2.64"/></g><g clip-path="url(#c19)"><path style="stroke-width:1.07;stroke:none;fill:#D9D9D9" d="M33.72 360.34H235v16.77H33.72z"/><text x="134.36" y="371.94" text-anchor="middle" style="font-family:JetBrains Mono;font-size:8.80px;fill:#1A1A1A" textLength="26.39" lengthAdjust="spacingAndGlyphs">Japan</text></g><g clip-path="url(#c21)"><path style="stroke-width:1.07;stroke:none;fill:#D9D9D9" d="M240.48 360.34h201.28v16.77H240.48z"/><text x="341.12" y="371.94" text-anchor="middle" style="font-family:JetBrains Mono;font-size:8.80px;fill:#1A1A1A" textLength="73.89" lengthAdjust="spacingAndGlyphs">United Kingdom</text></g><g clip-path="url(#c23)"><path style="stroke-width:1.07;stroke:none;fill:#D9D9D9" d="M447.24 360.34h201.28v16.77H447.24z"/><text x="547.88" y="371.94" text-anchor="middle" style="font-family:JetBrains Mono;font-size:8.80px;fill:#1A1A1A" textLength="126.66" lengthAdjust="spacingAndGlyphs">United States of America</text></g><g clip-path="url(#c25)"><path style="stroke-width:1.07;stroke:none;fill:#D9D9D9" d="M33.72 199.77H235v16.77H33.72z"/><text x="134.36" y="211.37" text-anchor="middle" style="font-family:JetBrains Mono;font-size:8.80px;fill:#1A1A1A" textLength="31.67" lengthAdjust="spacingAndGlyphs">France</text></g><g clip-path="url(#c27)"><path style="stroke-width:1.07;stroke:none;fill:#D9D9D9" d="M240.48 199.77h201.28v16.77H240.48z"/><text x="341.12" y="211.37" text-anchor="middle" style="font-family:JetBrains Mono;font-size:8.80px;fill:#1A1A1A" textLength="36.94" lengthAdjust="spacingAndGlyphs">Germany</text></g><g clip-path="url(#c29)"><path style="stroke-width:1.07;stroke:none;fill:#D9D9D9" d="M447.24 199.77h201.28v16.77H447.24z"/><text x="547.88" y="211.37" text-anchor="middle" style="font-family:JetBrains Mono;font-size:8.80px;fill:#1A1A1A" textLength="26.39" lengthAdjust="spacingAndGlyphs">Italy</text></g><g clip-path="url(#c31)"><path style="stroke-width:1.07;stroke:none;fill:#D9D9D9" d="M33.72 39.2H235v16.77H33.72z"/><text x="134.36" y="50.8" text-anchor="middle" style="font-family:JetBrains Mono;font-size:8.80px;fill:#1A1A1A" textLength="47.5" lengthAdjust="spacingAndGlyphs">Australia</text></g><g clip-path="url(#c33)"><path style="stroke-width:1.07;stroke:none;fill:#D9D9D9" d="M240.48 39.2h201.28v16.77H240.48z"/><text x="341.12" y="50.8" text-anchor="middle" style="font-family:JetBrains Mono;font-size:8.80px;fill:#1A1A1A" textLength="31.67" lengthAdjust="spacingAndGlyphs">Canada</text></g><g clip-path="url(#c35)"><path style="stroke-width:1.07;stroke:none;fill:#D9D9D9" d="M447.24 39.2h201.28v16.77H447.24z"/><text x="547.88" y="50.8" text-anchor="middle" style="font-family:JetBrains Mono;font-size:8.80px;fill:#1A1A1A" textLength="26.39" lengthAdjust="spacingAndGlyphs">China</text></g><g clip-path="url(#c36)"><path style="stroke-width:1.07;stroke:#333333;stroke-linecap:butt" d="M48.45 518.17v-2.74M73 518.17v-2.74M97.54 518.17v-2.74M122.09 518.17v-2.74M146.63 518.17v-2.74M171.18 518.17v-2.74M195.73 518.17v-2.74M220.27 518.17v-2.74"/><text x="48.45" y="526.78" text-anchor="middle" style="font-family:JetBrains Mono;font-size:8.80px;fill:#4D4D4D" textLength="21.11" lengthAdjust="spacingAndGlyphs">1975</text><text x="73" y="526.78" text-anchor="middle" style="font-family:JetBrains Mono;font-size:8.80px;fill:#4D4D4D" textLength="21.11" lengthAdjust="spacingAndGlyphs">1985</text><text x="97.54" y="526.78" text-anchor="middle" style="font-family:JetBrains Mono;font-size:8.80px;fill:#4D4D4D" textLength="21.11" lengthAdjust="spacingAndGlyphs">2005</text><text x="122.09" y="526.78" text-anchor="middle" style="font-family:JetBrains Mono;font-size:8.80px;fill:#4D4D4D" textLength="21.11" lengthAdjust="spacingAndGlyphs">2010</text><text x="146.63" y="526.78" text-anchor="middle" style="font-family:JetBrains Mono;font-size:8.80px;fill:#4D4D4D" textLength="21.11" lengthAdjust="spacingAndGlyphs">2015</text><text x="171.18" y="526.78" text-anchor="middle" style="font-family:JetBrains Mono;font-size:8.80px;fill:#4D4D4D" textLength="21.11" lengthAdjust="spacingAndGlyphs">2016</text><text x="195.73" y="526.78" text-anchor="middle" style="font-family:JetBrains Mono;font-size:8.80px;fill:#4D4D4D" textLength="21.11" lengthAdjust="spacingAndGlyphs">2017</text><text x="220.27" y="526.78" text-anchor="middle" style="font-family:JetBrains Mono;font-size:8.80px;fill:#4D4D4D" textLength="21.11" lengthAdjust="spacingAndGlyphs">2018</text><path style="stroke-width:1.07;stroke:#333333;stroke-linecap:butt" d="M255.21 518.17v-2.74M279.75 518.17v-2.74M304.3 518.17v-2.74M328.85 518.17v-2.74M353.39 518.17v-2.74M377.94 518.17v-2.74M402.49 518.17v-2.74M427.03 518.17v-2.74"/><text x="255.21" y="526.78" text-anchor="middle" style="font-family:JetBrains Mono;font-size:8.80px;fill:#4D4D4D" textLength="21.11" lengthAdjust="spacingAndGlyphs">1975</text><text x="279.75" y="526.78" text-anchor="middle" style="font-family:JetBrains Mono;font-size:8.80px;fill:#4D4D4D" textLength="21.11" lengthAdjust="spacingAndGlyphs">1985</text><text x="304.3" y="526.78" text-anchor="middle" style="font-family:JetBrains Mono;font-size:8.80px;fill:#4D4D4D" textLength="21.11" lengthAdjust="spacingAndGlyphs">2005</text><text x="328.85" y="526.78" text-anchor="middle" style="font-family:JetBrains Mono;font-size:8.80px;fill:#4D4D4D" textLength="21.11" lengthAdjust="spacingAndGlyphs">2010</text><text x="353.39" y="526.78" text-anchor="middle" style="font-family:JetBrains Mono;font-size:8.80px;fill:#4D4D4D" textLength="21.11" lengthAdjust="spacingAndGlyphs">2015</text><text x="377.94" y="526.78" text-anchor="middle" style="font-family:JetBrains Mono;font-size:8.80px;fill:#4D4D4D" textLength="21.11" lengthAdjust="spacingAndGlyphs">2016</text><text x="402.49" y="526.78" text-anchor="middle" style="font-family:JetBrains Mono;font-size:8.80px;fill:#4D4D4D" textLength="21.11" lengthAdjust="spacingAndGlyphs">2017</text><text x="427.03" y="526.78" text-anchor="middle" style="font-family:JetBrains Mono;font-size:8.80px;fill:#4D4D4D" textLength="21.11" lengthAdjust="spacingAndGlyphs">2018</text><path style="stroke-width:1.07;stroke:#333333;stroke-linecap:butt" d="M461.97 518.17v-2.74M486.51 518.17v-2.74M511.06 518.17v-2.74M535.61 518.17v-2.74M560.15 518.17v-2.74M584.7 518.17v-2.74M609.25 518.17v-2.74M633.79 518.17v-2.74"/><text x="461.97" y="526.78" text-anchor="middle" style="font-family:JetBrains Mono;font-size:8.80px;fill:#4D4D4D" textLength="21.11" lengthAdjust="spacingAndGlyphs">1975</text><text x="486.51" y="526.78" text-anchor="middle" style="font-family:JetBrains Mono;font-size:8.80px;fill:#4D4D4D" textLength="21.11" lengthAdjust="spacingAndGlyphs">1985</text><text x="511.06" y="526.78" text-anchor="middle" style="font-family:JetBrains Mono;font-size:8.80px;fill:#4D4D4D" textLength="21.11" lengthAdjust="spacingAndGlyphs">2005</text><text x="535.61" y="526.78" text-anchor="middle" style="font-family:JetBrains Mono;font-size:8.80px;fill:#4D4D4D" textLength="21.11" lengthAdjust="spacingAndGlyphs">2010</text><text x="560.15" y="526.78" text-anchor="middle" style="font-family:JetBrains Mono;font-size:8.80px;fill:#4D4D4D" textLength="21.11" lengthAdjust="spacingAndGlyphs">2015</text><text x="584.7" y="526.78" text-anchor="middle" style="font-family:JetBrains Mono;font-size:8.80px;fill:#4D4D4D" textLength="21.11" lengthAdjust="spacingAndGlyphs">2016</text><text x="609.25" y="526.78" text-anchor="middle" style="font-family:JetBrains Mono;font-size:8.80px;fill:#4D4D4D" textLength="21.11" lengthAdjust="spacingAndGlyphs">2017</text><text x="633.79" y="526.78" text-anchor="middle" style="font-family:JetBrains Mono;font-size:8.80px;fill:#4D4D4D" textLength="21.11" lengthAdjust="spacingAndGlyphs">2018</text><text x="28.79" y="165.54" text-anchor="end" style="font-family:JetBrains Mono;font-size:8.80px;fill:#4D4D4D" textLength="5.28" lengthAdjust="spacingAndGlyphs">5</text><text x="28.79" y="132.62" text-anchor="end" style="font-family:JetBrains Mono;font-size:8.80px;fill:#4D4D4D" textLength="10.56" lengthAdjust="spacingAndGlyphs">10</text><text x="28.79" y="99.7" text-anchor="end" style="font-family:JetBrains Mono;font-size:8.80px;fill:#4D4D4D" textLength="10.56" lengthAdjust="spacingAndGlyphs">15</text><text x="28.79" y="66.79" text-anchor="end" style="font-family:JetBrains Mono;font-size:8.80px;fill:#4D4D4D" textLength="10.56" lengthAdjust="spacingAndGlyphs">20</text><path style="stroke-width:1.07;stroke:#333333;stroke-linecap:butt" d="M30.98 162.33h2.74M30.98 129.41h2.74M30.98 96.49h2.74M30.98 63.57h2.74"/><text x="28.79" y="326.11" text-anchor="end" style="font-family:JetBrains Mono;font-size:8.80px;fill:#4D4D4D" textLength="5.28" lengthAdjust="spacingAndGlyphs">5</text><text x="28.79" y="293.19" text-anchor="end" style="font-family:JetBrains Mono;font-size:8.80px;fill:#4D4D4D" textLength="10.56" lengthAdjust="spacingAndGlyphs">10</text><text x="28.79" y="260.27" text-anchor="end" style="font-family:JetBrains Mono;font-size:8.80px;fill:#4D4D4D" textLength="10.56" lengthAdjust="spacingAndGlyphs">15</text><text x="28.79" y="227.36" text-anchor="end" style="font-family:JetBrains Mono;font-size:8.80px;fill:#4D4D4D" textLength="10.56" lengthAdjust="spacingAndGlyphs">20</text><path style="stroke-width:1.07;stroke:#333333;stroke-linecap:butt" d="M30.98 322.9h2.74M30.98 289.98h2.74M30.98 257.06h2.74M30.98 224.15h2.74"/><text x="28.79" y="486.68" text-anchor="end" style="font-family:JetBrains Mono;font-size:8.80px;fill:#4D4D4D" textLength="5.28" lengthAdjust="spacingAndGlyphs">5</text><text x="28.79" y="453.76" text-anchor="end" style="font-family:JetBrains Mono;font-size:8.80px;fill:#4D4D4D" textLength="10.56" lengthAdjust="spacingAndGlyphs">10</text><text x="28.79" y="420.84" text-anchor="end" style="font-family:JetBrains Mono;font-size:8.80px;fill:#4D4D4D" textLength="10.56" lengthAdjust="spacingAndGlyphs">15</text><text x="28.79" y="387.93" text-anchor="end" style="font-family:JetBrains Mono;font-size:8.80px;fill:#4D4D4D" textLength="10.56" lengthAdjust="spacingAndGlyphs">20</text><path style="stroke-width:1.07;stroke:#333333;stroke-linecap:butt" d="M30.98 483.47h2.74M30.98 450.55h2.74M30.98 417.63h2.74M30.98 384.72h2.74"/><text transform="rotate(-90 149.605 136.095)" text-anchor="middle" style="font-family:JetBrains Mono;font-size:11.00px" textLength="343.32" lengthAdjust="spacingAndGlyphs">Emissions per capita (metric tons of carbon dioxide)</text><text x="33.72" y="31.74" style="font-family:JetBrains Mono;font-size:11.00px" textLength="145.25" lengthAdjust="spacingAndGlyphs">Data from 1975 to 2018</text><text x="33.72" y="15.7" style="font-family:JetBrains Mono;font-size:14.00px" textLength="319.29" lengthAdjust="spacingAndGlyphs">Per capita emissions of some countries</text><text x="648.52" y="540.27" text-anchor="end" style="font-family:JetBrains Mono;font-size:8.80px" textLength="237.49" lengthAdjust="spacingAndGlyphs">Data sources: http://data.un.org/default.aspx</text></g></svg>