<svg xmlns="http://www.w3.org/2000/svg" class="httpgd" width="1228.8" height="800" viewBox="0 0 1228.8 800"><defs><clipPath id="a"><path d="M0 0h1228.8v800H0z"/></clipPath><clipPath id="b"><path d="M188.22 0h852.36v800H188.22z"/></clipPath><clipPath id="c"><path d="M193.7 51.93h722.53v722.53H193.7z"/></clipPath><clipPath id="d"><path d="M0 0h1228.8v800H0z"/></clipPath></defs><rect width="100%" height="100%" style="stroke-linecap:round;stroke-linejoin:round;stroke-miterlimit:10;stroke:none;fill:#fff"/><g clip-path="url(#a)"/><g clip-path="url(#b)"><path style="stroke-width:1.07;stroke:#fff;fill:#fff" d="M188.22 0h852.36v800H188.22z"/></g><g clip-path="url(#c)"><path style="stroke-width:1.07;stroke:none;fill:#ebebeb" d="M193.7 51.93h722.53v722.53H193.7z"/><path style="fill:none;stroke-linejoin:round;stroke-miterlimit:10;stroke-width:1.07;stroke:#fff;stroke-linecap:butt" d="m554.97 88.05 20.62.66 20.54 1.96 20.37 3.26 20.13 4.55 19.79 5.81 19.39 7.05 18.9 8.28 18.34 9.45 17.7 10.6 17 11.7 16.21 12.75 15.38 13.76 14.47 14.7 13.51 15.6 12.5 16.41 11.43 17.18 10.31 17.87 9.17 18.49 7.97 19.03 6.74 19.49 5.5 19.89 4.23 20.19 2.93 20.43 1.64 20.56.33 20.63-.99 20.61-2.28 20.51-3.58 20.32-4.87 20.05-6.12 19.7-7.37 19.27-8.57 18.77-9.74 18.18-10.88 17.54-11.97 16.8-13.01 16.02-14 15.15-14.93 14.24-15.8 13.26-16.62 12.24-17.36 11.15-18.02 10.03-18.63 8.87-19.16 7.67-19.6 6.43-19.97 5.19-20.26 3.9-20.47 2.61-20.59 1.31h-20.63l-20.59-1.31-20.47-2.61-20.25-3.9-19.98-5.19-19.6-6.43-19.15-7.67-18.63-8.87-18.03-10.03-17.36-11.15-16.61-12.24-15.81-13.26-14.93-14.24-14-15.15-13.01-16.02-11.97-16.8-10.87-17.54-9.75-18.18-8.57-18.77-7.36-19.27-6.13-19.7-4.86-20.05-3.58-20.32-2.29-20.51-.98-20.61.32-20.63 1.64-20.56 2.94-20.43 4.22-20.19 5.5-19.89 6.75-19.49 7.97-19.03 9.16-18.49 10.32-17.87 11.43-17.18 12.49-16.41 13.51-15.6 14.47-14.7 15.38-13.76 16.22-12.75 16.99-11.7 17.7-10.6 18.34-9.45 18.9-8.28 19.39-7.05 19.8-5.81 20.12-4.55 20.38-3.26 20.54-1.96 20.62-.66"/><path style="stroke-width:1.07;stroke:none;fill:#000004" d="M554.97 413.19V124.18l-12.11.25-12.08.76-12.04 1.27 1.25 9.89 1.25 9.88 1.25 9.89 1.25 9.89 1.25 9.89 1.25 9.88 1.25 9.89 1.25 9.89 1.25 9.89 1.24 9.88 1.25 9.89 1.25 9.89 1.25 9.89 1.25 9.88 1.25 9.89 1.25 9.89 1.25 9.89 1.25 9.88 1.25 9.89 1.25 9.89 1.24 9.89 1.25 9.88 1.25 9.89 1.25 9.89 1.25 9.88 1.25 9.89 1.25 9.89 1.25 9.89z"/><path style="stroke-width:1.07;stroke:none;fill:#140b35" d="m554.97 413.19-1.25-9.88-1.25-9.89-1.25-9.89-1.25-9.89-1.25-9.88-1.25-9.89-1.25-9.89-1.25-9.88-1.24-9.89-1.25-9.89-1.25-9.89-1.25-9.88-1.25-9.89-1.25-9.89-1.25-9.89-1.25-9.88-1.25-9.89-1.25-9.89-1.25-9.89-1.24-9.88-1.25-9.89-1.25-9.89-1.25-9.89-1.25-9.88-1.25-9.89-1.25-9.89-1.25-9.89-1.25-9.88-1.25-9.89-11.97 1.77-11.89 2.27-11.79 2.76 2.48 9.65 2.48 9.66 2.48 9.65 2.48 9.65 2.47 9.65 2.48 9.66 2.48 9.65 2.48 9.65 2.48 9.66 2.48 9.65 2.48 9.65 2.47 9.66 2.48 9.65 2.48 9.65 2.48 9.65 2.48 9.66 2.48 9.65 2.47 9.65 2.48 9.66 2.48 9.65 2.48 9.65 2.48 9.65 2.48 9.66 2.47 9.65 2.48 9.65 2.48 9.66 2.48 9.65 2.48 9.65z"/><path style="stroke-width:1.07;stroke:none;fill:#3a0963" d="m554.97 413.19-2.48-9.65-2.48-9.65-2.48-9.65-2.48-9.66-2.48-9.65-2.47-9.65-2.48-9.66-2.48-9.65-2.48-9.65-2.48-9.65-2.48-9.66-2.47-9.65-2.48-9.65-2.48-9.66-2.48-9.65-2.48-9.65-2.48-9.65-2.47-9.66-2.48-9.65-2.48-9.65-2.48-9.66-2.48-9.65-2.48-9.65-2.48-9.66-2.47-9.65-2.48-9.65-2.48-9.65-2.48-9.66-2.48-9.65-10 2.76-9.9 3.12-9.78 3.47-9.64 3.82-9.51 4.16-9.35 4.5-9.18 4.84 4.8 8.73 4.81 8.74 4.8 8.73 4.8 8.73 4.8 8.74 4.8 8.73 4.8 8.73 4.8 8.74 4.8 8.73 4.81 8.73 4.8 8.74 4.8 8.73 4.8 8.73 4.8 8.74 4.8 8.73 4.8 8.73 4.8 8.74 4.8 8.73 4.81 8.73 4.8 8.74 4.8 8.73 4.8 8.73 4.8 8.73 4.8 8.74 4.8 8.73 4.8 8.73 4.8 8.74 4.81 8.73z"/><path style="stroke-width:1.07;stroke:none;fill:#60136e" d="m554.97 413.19-4.8-8.73-4.81-8.73-4.8-8.74-4.8-8.73-4.8-8.73-4.8-8.74-4.8-8.73-4.8-8.73-4.8-8.73-4.8-8.74-4.81-8.73-4.8-8.73-4.8-8.74-4.8-8.73-4.8-8.73-4.8-8.74-4.8-8.73-4.8-8.73-4.8-8.74-4.81-8.73-4.8-8.73-4.8-8.74-4.8-8.73-4.8-8.73-4.8-8.74-4.8-8.73-4.8-8.73-4.81-8.74-4.8-8.73-10.48 6.05-10.22 6.49-9.94 6.91 5.86 8.06 5.85 8.06 5.86 8.07 5.86 8.06 5.86 8.06 5.86 8.06 5.85 8.07 5.86 8.06 5.86 8.06 5.86 8.06 5.86 8.07 5.85 8.06 5.86 8.06 5.86 8.06 5.86 8.07 5.85 8.06 5.86 8.06 5.86 8.07 5.86 8.06 5.86 8.06 5.85 8.06 5.86 8.07 5.86 8.06 5.86 8.06 5.86 8.06 5.85 8.07 5.86 8.06 5.86 8.06z"/><path style="stroke-width:1.07;stroke:none;fill:#85216b" d="m554.97 413.19-5.86-8.06-5.86-8.06-5.86-8.06-5.85-8.07-5.86-8.06-5.86-8.06-5.86-8.06-5.86-8.07-5.85-8.06-5.86-8.06-5.86-8.06-5.86-8.07-5.86-8.06-5.85-8.06-5.86-8.07-5.86-8.06-5.86-8.06-5.85-8.06-5.86-8.07-5.86-8.06-5.86-8.06-5.86-8.06-5.85-8.07-5.86-8.06-5.86-8.06-5.86-8.06-5.86-8.07-5.85-8.06-5.86-8.06-9.64 7.32-9.33 7.71-9 8.1 6.83 7.27 6.82 7.26 6.82 7.27 6.82 7.26 6.82 7.27 6.83 7.26 6.82 7.27 6.82 7.26 6.82 7.27 6.83 7.26 6.82 7.27 6.82 7.26 6.82 7.27 6.82 7.26 6.83 7.27 6.82 7.26 6.82 7.27 6.82 7.26 6.83 7.27 6.82 7.26 6.82 7.27 6.82 7.26 6.82 7.27 6.83 7.26 6.82 7.26 6.82 7.27 6.82 7.26 6.82 7.27z"/><path style="stroke-width:1.07;stroke:none;fill:#a92e5e" d="m554.97 413.19-6.83-7.26-6.82-7.27-6.82-7.26-6.82-7.27-6.82-7.26-6.83-7.26-6.82-7.27-6.82-7.26-6.82-7.27-6.82-7.26-6.83-7.27-6.82-7.26-6.82-7.27-6.82-7.26-6.83-7.27-6.82-7.26-6.82-7.27-6.82-7.26-6.82-7.27-6.83-7.26-6.82-7.27-6.82-7.26-6.82-7.27-6.83-7.26-6.82-7.27-6.82-7.26-6.82-7.27-6.82-7.26-6.83-7.27-7.01 6.82-6.78 7.04-6.54 7.27-6.28 7.49-6.03 7.7-5.77 7.89-5.49 8.09-5.22 8.27-4.94 8.44-4.65 8.6-4.35 8.76-4.06 8.89-3.75 9.03-3.45 9.15-3.13 9.26-2.82 9.37-2.5 9.45-2.18 9.53-1.85 9.6-1.53 9.66-1.2 9.7-.88 9.74-.54 9.76-.21 9.78.11 9.77.45 9.77 9.95-.62 9.95-.63 9.94-.63 9.95-.62 9.95-.63 9.94-.62 9.95-.63 9.94-.62 9.95-.63 9.95-.63 9.94-.62 9.95-.63 9.95-.62 9.94-.63 9.95-.62 9.94-.63 9.95-.63 9.95-.62 9.94-.63 9.95-.62 9.95-.63 9.94-.63 9.95-.62 9.95-.63 9.94-.62 9.95-.63 9.94-.62 9.95-.63z"/><path style="stroke-width:1.07;stroke:none;fill:#cb4149" d="m554.97 413.19-9.95.63-9.95.63-9.94.62-9.95.63-9.94.62-9.95.63-9.95.62-9.94.63-9.95.63-9.95.62-9.94.63-9.95.62-9.95.63-9.94.63-9.95.62-9.94.63-9.95.62-9.95.63-9.94.62-9.95.63-9.95.63-9.94.62-9.95.63-9.94.62-9.95.63-9.95.62-9.94.63-9.95.63-9.95.62 1.02 12.06 1.51 12.01 2.02 11.94 9.79-1.87 9.79-1.86 9.79-1.87 9.79-1.87 9.79-1.87 9.79-1.86 9.79-1.87 9.79-1.87 9.79-1.87 9.79-1.86 9.79-1.87 9.79-1.87 9.79-1.87 9.78-1.86 9.79-1.87 9.79-1.87 9.79-1.87 9.79-1.86 9.79-1.87 9.79-1.87 9.79-1.87 9.79-1.86 9.79-1.87 9.79-1.87 9.79-1.87 9.79-1.86 9.79-1.87 9.79-1.87z"/><path style="stroke-width:1.07;stroke:none;fill:#e65d2f" d="m554.97 413.19-9.79 1.87-9.79 1.87-9.79 1.87-9.79 1.86-9.79 1.87-9.79 1.87-9.79 1.87-9.79 1.86-9.79 1.87-9.79 1.87-9.79 1.87-9.79 1.86-9.79 1.87-9.79 1.87-9.79 1.87-9.78 1.86-9.79 1.87-9.79 1.87-9.79 1.87-9.79 1.86-9.79 1.87-9.79 1.87-9.79 1.87-9.79 1.86-9.79 1.87-9.79 1.87-9.79 1.87-9.79 1.86-9.79 1.87 2.52 11.84 3.01 11.73 3.5 11.58 9.48-3.07 9.47-3.08 9.48-3.08 9.48-3.08 9.48-3.08 9.48-3.08 9.48-3.08 9.47-3.08 9.48-3.08 9.48-3.08 9.48-3.08 9.48-3.08 9.48-3.08 9.47-3.08 9.48-3.08 9.48-3.08 9.48-3.08 9.48-3.08 9.47-3.08 9.48-3.08 9.48-3.08 9.48-3.08 9.48-3.08 9.48-3.08 9.47-3.08 9.48-3.08 9.48-3.08 9.48-3.08z"/><path style="stroke-width:1.07;stroke:none;fill:#f78311" d="m554.97 413.19-9.48 3.08-9.48 3.08-9.48 3.08-9.48 3.08-9.47 3.08-9.48 3.08-9.48 3.08-9.48 3.08-9.48 3.08-9.48 3.08-9.47 3.08-9.48 3.08-9.48 3.08-9.48 3.08-9.48 3.08-9.47 3.08-9.48 3.08-9.48 3.08-9.48 3.08-9.48 3.08-9.48 3.08-9.47 3.08-9.48 3.08-9.48 3.08-9.48 3.08-9.48 3.08-9.48 3.08-9.47 3.08-9.48 3.07 3.38 9.81 3.73 9.69 4.08 9.54 4.42 9.39 4.75 9.22 5.08 9.05 5.4 8.86 8.42-5.34 8.41-5.34 8.42-5.34 8.41-5.34 8.42-5.34 8.41-5.34 8.42-5.34 8.41-5.34 8.42-5.34 8.41-5.34 8.41-5.34 8.42-5.34 8.41-5.34 8.42-5.34 8.41-5.34 8.42-5.34 8.41-5.34 8.42-5.34 8.41-5.35 8.42-5.34 8.41-5.34 8.41-5.34 8.42-5.34 8.41-5.34 8.42-5.34 8.41-5.34 8.42-5.34 8.41-5.34z"/><path style="stroke-width:1.07;stroke:none;fill:#fcad12" d="m554.97 413.19-8.42 5.34-8.41 5.34-8.42 5.34-8.41 5.34-8.42 5.34-8.41 5.34-8.42 5.34-8.41 5.34-8.41 5.34-8.42 5.34-8.41 5.35-8.42 5.34-8.41 5.34-8.42 5.34-8.41 5.34-8.42 5.34-8.41 5.34-8.42 5.34-8.41 5.34-8.41 5.34-8.42 5.34-8.41 5.34-8.42 5.34-8.41 5.34-8.42 5.34-8.41 5.34-8.42 5.34-8.41 5.34-8.42 5.34 5.72 8.66 6.02 8.44 6.33 8.23 6.61 8 6.9 7.75 7.17 7.5 7.43 7.24 6.83-7.27 6.82-7.26 6.82-7.27 6.82-7.26 6.82-7.27 6.83-7.26 6.82-7.27 6.82-7.26 6.82-7.27 6.83-7.26 6.82-7.27 6.82-7.26 6.82-7.27 6.82-7.26 6.83-7.27 6.82-7.26 6.82-7.27 6.82-7.26 6.83-7.27 6.82-7.26 6.82-7.27 6.82-7.26 6.82-7.27 6.83-7.26 6.82-7.27 6.82-7.26 6.82-7.27 6.82-7.26z"/><path style="stroke-width:1.07;stroke:none;fill:#f5db4b" d="m554.97 413.19-6.83 7.27-6.82 7.26-6.82 7.27-6.82 7.26-6.82 7.27-6.83 7.26-6.82 7.27-6.82 7.26-6.82 7.27-6.82 7.26-6.83 7.27-6.82 7.26-6.82 7.27-6.82 7.26-6.83 7.27-6.82 7.26-6.82 7.27-6.82 7.26-6.82 7.27-6.83 7.26-6.82 7.27-6.82 7.26-6.82 7.27-6.83 7.26-6.82 7.27-6.82 7.26-6.82 7.27-6.82 7.26-6.83 7.27 7.69 6.96 7.94 6.69 8.17 6.39 8.39 6.1 8.61 5.8 8.81 5.48 9 5.16 4.8-8.73 4.81-8.74 4.8-8.73 4.8-8.73 4.8-8.74 4.8-8.73 4.8-8.73 4.8-8.74 4.8-8.73 4.81-8.73 4.8-8.74 4.8-8.73 4.8-8.73 4.8-8.74 4.8-8.73 4.8-8.73 4.8-8.74 4.8-8.73 4.81-8.73 4.8-8.74 4.8-8.73 4.8-8.73 4.8-8.74 4.8-8.73 4.8-8.73 4.8-8.74 4.8-8.73 4.81-8.73z"/><path style="stroke-width:1.07;stroke:none;fill:#fcffa4" d="m554.97 413.19-4.8 8.74-4.81 8.73-4.8 8.73-4.8 8.74-4.8 8.73-4.8 8.73-4.8 8.74-4.8 8.73-4.8 8.73-4.8 8.74-4.81 8.73-4.8 8.73-4.8 8.74-4.8 8.73-4.8 8.73-4.8 8.74-4.8 8.73-4.8 8.73-4.8 8.74-4.81 8.73-4.8 8.73-4.8 8.74-4.8 8.73-4.8 8.73-4.8 8.74-4.8 8.73-4.8 8.73-4.81 8.74-4.8 8.73 8.71 4.59 8.85 4.3 9 3.99 9.13 3.68 9.25 3.37 9.36 3.05 9.45 2.74 9.55 2.41 9.62 2.08 9.68 1.75 9.74 1.42 9.78 1.09 9.82.76 9.83.42 9.84.09 9.84-.25 9.83-.58 9.8-.92 9.76-1.25 9.72-1.58 9.65-1.92 9.59-2.24 9.5-2.56 9.41-2.89 9.3-3.21 9.2-3.52 9.06-3.83 8.93-4.14 8.79-4.44 8.63-4.73 8.46-5.03 8.28-5.32 8.1-5.59 7.91-5.86 7.7-6.13 7.49-6.39 7.26-6.64 7.04-6.89 6.79-7.12 6.55-7.34 6.3-7.57 6.04-7.77 5.76-7.98 5.49-8.17 5.21-8.35 4.93-8.52 4.63-8.69 4.33-8.84 4.03-8.98 3.72-9.11 3.4-9.23 3.1-9.35 2.77-9.44 2.44-9.54 2.13-9.61L840 461l1.46-9.73 1.13-9.78.8-9.81.46-9.83.13-9.84-.21-9.84-.54-9.83-.88-9.81-1.21-9.76-1.54-9.73-1.88-9.66-2.2-9.59-2.52-9.52-2.85-9.42-3.17-9.32-3.48-9.2-3.8-9.08-4.1-8.95-4.4-8.8-4.7-8.65-5-8.48-5.28-8.31-5.56-8.12-5.83-7.93-6.1-7.73-6.35-7.51-6.61-7.3-6.86-7.06-7.09-6.82-7.32-6.59-7.54-6.32-7.75-6.07-7.95-5.8-8.15-5.52-8.33-5.25-8.5-4.96-8.67-4.66-8.82-4.37-8.96-4.07-9.1-3.75-9.22-3.45-9.33-3.13-9.44-2.81-9.52-2.48-9.6-2.17-9.67-1.83-9.73-1.5-9.77-1.17-9.81-.84-9.83-.5-9.84-.17z"/></g><g clip-path="url(#d)"><path style="stroke-width:1.07;stroke:none;fill:#fff" d="M927.19 296.1h107.91v234.19H927.19z"/><text x="932.67" y="310.79" style="font-family:Hack Nerd Font;font-size:11px" textLength="46.37" lengthAdjust="spacingAndGlyphs">Country</text><path style="stroke-width:1.07;stroke:none;fill:#f2f2f2" d="M932.67 317.45h17.28v17.28h-17.28z"/><path style="stroke-width:1.07;stroke:none;stroke-linecap:square;stroke-linejoin:miter;fill:#000004" d="M933.38 318.16h15.86v15.86h-15.86z"/><path style="stroke-width:1.07;stroke:none;fill:#f2f2f2" d="M932.67 334.73h17.28v17.28h-17.28z"/><path style="stroke-width:1.07;stroke:none;stroke-linecap:square;stroke-linejoin:miter;fill:#140b35" d="M933.38 335.44h15.86v15.86h-15.86z"/><path style="stroke-width:1.07;stroke:none;fill:#f2f2f2" d="M932.67 352.01h17.28v17.28h-17.28z"/><path style="stroke-width:1.07;stroke:none;stroke-linecap:square;stroke-linejoin:miter;fill:#3a0963" d="M933.38 352.72h15.86v15.86h-15.86z"/><path style="stroke-width:1.07;stroke:none;fill:#f2f2f2" d="M932.67 369.29h17.28v17.28h-17.28z"/><path style="stroke-width:1.07;stroke:none;stroke-linecap:square;stroke-linejoin:miter;fill:#60136e" d="M933.38 370h15.86v15.86h-15.86z"/><path style="stroke-width:1.07;stroke:none;fill:#f2f2f2" d="M932.67 386.57h17.28v17.28h-17.28z"/><path style="stroke-width:1.07;stroke:none;stroke-linecap:square;stroke-linejoin:miter;fill:#85216b" d="M933.38 387.28h15.86v15.86h-15.86z"/><path style="stroke-width:1.07;stroke:none;fill:#f2f2f2" d="M932.67 403.85h17.28v17.28h-17.28z"/><path style="stroke-width:1.07;stroke:none;stroke-linecap:square;stroke-linejoin:miter;fill:#a92e5e" d="M933.38 404.56h15.86v15.86h-15.86z"/><path style="stroke-width:1.07;stroke:none;fill:#f2f2f2" d="M932.67 421.13h17.28v17.28h-17.28z"/><path style="stroke-width:1.07;stroke:none;stroke-linecap:square;stroke-linejoin:miter;fill:#cb4149" d="M933.38 421.84h15.86v15.86h-15.86z"/><path style="stroke-width:1.07;stroke:none;fill:#f2f2f2" d="M932.67 438.41h17.28v17.28h-17.28z"/><path style="stroke-width:1.07;stroke:none;stroke-linecap:square;stroke-linejoin:miter;fill:#e65d2f" d="M933.38 439.12h15.86v15.86h-15.86z"/><path style="stroke-width:1.07;stroke:none;fill:#f2f2f2" d="M932.67 455.69h17.28v17.28h-17.28z"/><path style="stroke-width:1.07;stroke:none;stroke-linecap:square;stroke-linejoin:miter;fill:#f78311" d="M933.38 456.4h15.86v15.86h-15.86z"/><path style="stroke-width:1.07;stroke:none;fill:#f2f2f2" d="M932.67 472.97h17.28v17.28h-17.28z"/><path style="stroke-width:1.07;stroke:none;stroke-linecap:square;stroke-linejoin:miter;fill:#fcad12" d="M933.38 473.68h15.86v15.86h-15.86z"/><path style="stroke-width:1.07;stroke:none;fill:#f2f2f2" d="M932.67 490.25h17.28v17.28h-17.28z"/><path style="stroke-width:1.07;stroke:none;stroke-linecap:square;stroke-linejoin:miter;fill:#f5db4b" d="M933.38 490.96h15.86v15.86h-15.86z"/><path style="stroke-width:1.07;stroke:none;fill:#f2f2f2" d="M932.67 507.53h17.28v17.28h-17.28z"/><path style="stroke-width:1.07;stroke:none;stroke-linecap:square;stroke-linejoin:miter;fill:#fcffa4" d="M933.38 508.24h15.86v15.86h-15.86z"/><text x="955.43" y="329.3" style="font-family:Hack Nerd Font;font-size:8.8px" textLength="42.39" lengthAdjust="spacingAndGlyphs">Barbados</text><text x="955.43" y="346.58" style="font-family:Hack Nerd Font;font-size:8.8px" textLength="31.8" lengthAdjust="spacingAndGlyphs">Brazil</text><text x="955.43" y="363.86" style="font-family:Hack Nerd Font;font-size:8.8px" textLength="31.8" lengthAdjust="spacingAndGlyphs">Canada</text><text x="955.43" y="381.14" style="font-family:Hack Nerd Font;font-size:8.8px" textLength="42.39" lengthAdjust="spacingAndGlyphs">Colombia</text><text x="955.43" y="398.42" style="font-family:Hack Nerd Font;font-size:8.8px" textLength="31.8" lengthAdjust="spacingAndGlyphs">Europe</text><text x="955.43" y="415.7" style="font-family:Hack Nerd Font;font-size:8.8px" textLength="26.5" lengthAdjust="spacingAndGlyphs">India</text><text x="955.43" y="432.98" style="font-family:Hack Nerd Font;font-size:8.8px" textLength="37.09" lengthAdjust="spacingAndGlyphs">Ireland</text><text x="955.43" y="450.26" style="font-family:Hack Nerd Font;font-size:8.8px" textLength="42.39" lengthAdjust="spacingAndGlyphs">Portugal</text><text x="955.43" y="467.54" style="font-family:Hack Nerd Font;font-size:8.8px" textLength="58.29" lengthAdjust="spacingAndGlyphs">South Korea</text><text x="955.43" y="484.82" style="font-family:Hack Nerd Font;font-size:8.8px" textLength="26.5" lengthAdjust="spacingAndGlyphs">Spain</text><text x="955.43" y="502.1" style="font-family:Hack Nerd Font;font-size:8.8px" textLength="74.19" lengthAdjust="spacingAndGlyphs">United Kingdom</text><text x="955.43" y="519.38" style="font-family:Hack Nerd Font;font-size:8.8px" textLength="68.89" lengthAdjust="spacingAndGlyphs">United States</text><text x="193.7" y="32.2" style="font-family:Hack Nerd Font;font-size:11px" textLength="298.08" lengthAdjust="spacingAndGlyphs">Calculate the top 50 fan accounts on Twitter.</text><text x="193.7" y="44.08" style="font-family:Hack Nerd Font;font-size:11px" textLength="298.08" lengthAdjust="spacingAndGlyphs">Information was last updated on May 12, 2022.</text><text x="612.06" y="15.69" text-anchor="middle" style="font-family:Hack Nerd Font;font-size:14px" textLength="151.63" lengthAdjust="spacingAndGlyphs">Country of Account</text><text x="916.23" y="792.63" text-anchor="end" style="font-family:Hack Nerd Font;font-size:8.8px" textLength="614.71" lengthAdjust="spacingAndGlyphs">Data sources: https://www.kaggle.com/datasets/hassanshehzadk/top-50-most-followed-twitter-accounts?resource=download</text></g></svg>