<svg xmlns="http://www.w3.org/2000/svg" class="httpgd" width="833.33" height="665.83"><defs><clipPath id="c0"><path d="M0 0h833.33v665.83H0z"/></clipPath><clipPath id="c1"><path d="M124.23 40.05h703.63v571.34H124.23z"/></clipPath><clipPath id="c2"><path d="M0 0h833.33v665.83H0z"/></clipPath><style>.httpgd polyline,.httpgd rect{fill:none;stroke:#000;stroke-linecap:round;stroke-linejoin:round;stroke-miterlimit:10}</style></defs><rect width="100%" height="100%" fill="#fff"/><g clip-path="url(#c0)"><path stroke-width="1.07" stroke="#fff" fill="#fff" d="M0 0h833.33v665.83H0z"/></g><g clip-path="url(#c1)"><path stroke-width="1.07" fill="#ebebeb" d="M124.23 40.05h703.63v571.34H124.23z"/><path stroke-width="1.07" stroke="#fff" d="M124.23 604.56h703.62M124.23 593.18h703.62M124.23 581.8h703.62M124.23 570.42h703.62M124.23 559.03h703.62M124.23 547.65h703.62M124.23 536.27h703.62M124.23 524.89h703.62M124.23 513.51h703.62M124.23 502.13h703.62M124.23 490.75h703.62M124.23 479.37h703.62M124.23 467.98h703.62M124.23 456.6h703.62M124.23 445.22h703.62M124.23 433.84h703.62M124.23 422.46h703.62M124.23 411.08h703.62M124.23 399.7h703.62M124.23 388.31h703.62M124.23 376.93h703.62M124.23 365.55h703.62M124.23 354.17h703.62M124.23 342.79h703.62M124.23 331.41h703.62M124.23 320.03h703.62M124.23 308.65h703.62M124.23 297.26h703.62M124.23 285.88h703.62M124.23 274.5h703.62M124.23 263.12h703.62M124.23 251.74h703.62M124.23 240.36h703.62M124.23 228.98h703.62M124.23 217.6h703.62M124.23 206.21h703.62M124.23 194.83h703.62M124.23 183.45h703.62M124.23 172.07h703.62M124.23 160.69h703.62M124.23 149.31h703.62M124.23 137.93h703.62M124.23 126.55h703.62M124.23 115.16h703.62M124.23 103.78h703.62M124.23 92.4h703.62M124.23 81.02h703.62M124.23 69.64h703.62M124.23 58.26h703.62M124.23 46.88h703.62M156.21 611.39V40.05M398.5 611.39V40.05M640.8 611.39V40.05"/><path stroke-width="1.07" stroke-linecap="square" fill="#132b43" d="M156.21 41.75h639.66v10.24H156.21z"/><path stroke-width="1.07" stroke-linecap="square" fill="#1a3956" d="M156.21 53.14h553.41v10.24H156.21z"/><path stroke-width="1.07" stroke-linecap="square" fill="#1c3d5c" d="M156.21 64.52h527.24v10.24H156.21z"/><path stroke-width="1.07" stroke-linecap="square" fill="#1d3f5e" d="M156.21 75.9h517.06v10.24H156.21z"/><path stroke-width="1.07" stroke-linecap="square" fill="#204566" d="M156.21 87.28h487.5v10.24h-487.5z"/><path stroke-width="1.07" stroke-linecap="square" fill="#234a6c" d="M156.21 98.66h466.18v10.24H156.21z"/><path stroke-width="1.07" stroke-linecap="square" fill="#265075" d="M156.21 110.04H593.8v10.24H156.21z"/><path stroke-width="1.07" stroke-linecap="square" fill="#275277" d="M156.21 121.42h430.32v10.24H156.21z"/><path stroke-width="1.07" stroke-linecap="square" fill="#29567d" d="M156.21 132.8h413.36v10.24H156.21z"/><path stroke-width="1.07" stroke-linecap="square" fill="#29577e" d="M156.21 144.19h410.45v10.24H156.21z"/><path stroke-width="1.07" stroke-linecap="square" fill="#2d5e87" d="M156.21 155.57h384.28v10.24H156.21z"/><path stroke-width="1.07" stroke-linecap="square" fill="#2e608a" d="M156.21 166.95h375.56v10.24H156.21z"/><path stroke-width="1.07" stroke-linecap="square" fill="#2f638f" d="M156.21 178.33h364.41v10.24H156.21z"/><path stroke-width="1.07" stroke-linecap="square" fill="#316794" d="M156.21 189.71h351.33v10.24H156.21z"/><path stroke-width="1.07" stroke-linecap="square" fill="#3772a2" d="M156.21 201.09h318.86v10.24H156.21z"/><path stroke-width="1.07" stroke-linecap="square" fill="#3976a8" d="M156.21 212.47h305.78v10.24H156.21zM156.21 223.86h305.78v10.24H156.21z"/><path stroke-width="1.07" stroke-linecap="square" fill="#3a79ab" d="M156.21 235.24h299.48v10.24H156.21z"/><path stroke-width="1.07" stroke-linecap="square" fill="#3c7db2" d="M156.21 246.62H442.6v10.24H156.21z"/><path stroke-width="1.07" stroke-linecap="square" fill="#3d7fb4" d="M156.21 258h282.03v10.24H156.21z"/><path stroke-width="1.07" stroke-linecap="square" fill="#3e81b7" d="M156.21 269.38h277.67v10.24H156.21z"/><path stroke-width="1.07" stroke-linecap="square" fill="#3f82b8" d="M156.21 280.76h275.25V291H156.21z"/><path stroke-width="1.07" stroke-linecap="square" fill="#4084bb" d="M156.21 292.14h270.4v10.24h-270.4z"/><path stroke-width="1.07" stroke-linecap="square" fill="#4187bf" d="M156.21 303.52h262.16v10.24H156.21z"/><path stroke-width="1.07" stroke-linecap="square" fill="#428ac2" d="M156.21 314.91h256.83v10.24H156.21z"/><path stroke-width="1.07" stroke-linecap="square" fill="#438ac3" d="M156.21 326.29h255.87v10.24H156.21z"/><path stroke-width="1.07" stroke-linecap="square" fill="#448dc7" d="M156.21 337.67h249.08v10.24H156.21zM156.21 349.05h248.6v10.24h-248.6z"/><path stroke-width="1.07" stroke-linecap="square" fill="#4690cb" d="M156.21 360.43h242.3v10.24h-242.3z"/><path stroke-width="1.07" stroke-linecap="square" fill="#4894d0" d="M156.21 371.81h234.54v10.24H156.21z"/><path stroke-width="1.07" stroke-linecap="square" fill="#4895d1" d="M156.21 383.19H389.3v10.24H156.21z"/><path stroke-width="1.07" stroke-linecap="square" fill="#4996d3" d="M156.21 394.57h229.7v10.24h-229.7z"/><path stroke-width="1.07" stroke-linecap="square" fill="#4a98d6" d="M156.21 405.96h226.3v10.24h-226.3z"/><path stroke-width="1.07" stroke-linecap="square" fill="#4b9ad8" d="M156.21 417.34h222.91v10.24H156.21z"/><path stroke-width="1.07" stroke-linecap="square" fill="#4b9cda" d="M156.21 428.72h219.52v10.24H156.21z"/><path stroke-width="1.07" stroke-linecap="square" fill="#4c9ddd" d="M156.21 440.1h216.13v10.24H156.21z"/><path stroke-width="1.07" stroke-linecap="square" fill="#4d9fde" d="M156.21 451.48h213.71v10.24H156.21z"/><path stroke-width="1.07" stroke-linecap="square" fill="#4ea1e2" d="M156.21 462.86h209.34v10.24H156.21zM156.21 474.24h209.34v10.24H156.21z"/><path stroke-width="1.07" stroke-linecap="square" fill="#4fa3e4" d="M156.21 485.62h205.95v10.24H156.21z"/><path stroke-width="1.07" stroke-linecap="square" fill="#50a5e7" d="M156.21 497.01h202.56v10.24H156.21z"/><path stroke-width="1.07" stroke-linecap="square" fill="#50a6e8" d="M156.21 508.39h201.11v10.24H156.21z"/><path stroke-width="1.07" stroke-linecap="square" fill="#51a6e9" d="M156.21 519.77h200.14v10.24H156.21z"/><path stroke-width="1.07" stroke-linecap="square" fill="#51a7e9" d="M156.21 531.15h199.17v10.24H156.21z"/><path stroke-width="1.07" stroke-linecap="square" fill="#52a9ed" d="M156.21 542.53h194.81v10.24H156.21z"/><path stroke-width="1.07" stroke-linecap="square" fill="#53aaee" d="M156.21 553.91h193.84v10.24H156.21zM156.21 565.29h193.35v10.24H156.21z"/><path stroke-width="1.07" stroke-linecap="square" fill="#53acf0" d="M156.21 576.68h191.41v10.24H156.21z"/><path stroke-width="1.07" stroke-linecap="square" fill="#54acf1" d="M156.21 588.06h189.96v10.24H156.21z"/><path stroke-width="1.07" stroke-linecap="square" fill="#56b1f7" d="M156.21 599.44H338.9v10.24H156.21z"/><text x="795.87" y="50.83" text-anchor="middle" textLength="18.4" lengthAdjust="spacingAndGlyphs" font-family="Arial" font-size="11.04">132</text><text x="709.61" y="62.21" text-anchor="middle" textLength="27.6" lengthAdjust="spacingAndGlyphs" font-family="Arial" font-size="11.04">114.2</text><text x="683.45" y="73.59" text-anchor="middle" textLength="27.6" lengthAdjust="spacingAndGlyphs" font-family="Arial" font-size="11.04">108.8</text><text x="673.27" y="84.98" text-anchor="middle" textLength="27.6" lengthAdjust="spacingAndGlyphs" font-family="Arial" font-size="11.04">106.7</text><text x="643.71" y="96.36" text-anchor="middle" textLength="27.6" lengthAdjust="spacingAndGlyphs" font-family="Arial" font-size="11.04">100.6</text><text x="622.39" y="107.74" text-anchor="middle" textLength="21.47" lengthAdjust="spacingAndGlyphs" font-family="Arial" font-size="11.04">96.2</text><text x="593.8" y="119.12" text-anchor="middle" textLength="21.47" lengthAdjust="spacingAndGlyphs" font-family="Arial" font-size="11.04">90.3</text><text x="586.53" y="130.5" text-anchor="middle" textLength="21.47" lengthAdjust="spacingAndGlyphs" font-family="Arial" font-size="11.04">88.8</text><text x="569.57" y="141.88" text-anchor="middle" textLength="21.47" lengthAdjust="spacingAndGlyphs" font-family="Arial" font-size="11.04">85.3</text><text x="566.66" y="153.26" text-anchor="middle" textLength="21.47" lengthAdjust="spacingAndGlyphs" font-family="Arial" font-size="11.04">84.7</text><text x="540.49" y="164.65" text-anchor="middle" textLength="21.47" lengthAdjust="spacingAndGlyphs" font-family="Arial" font-size="11.04">79.3</text><text x="531.77" y="176.03" text-anchor="middle" textLength="21.47" lengthAdjust="spacingAndGlyphs" font-family="Arial" font-size="11.04">77.5</text><text x="520.62" y="187.41" text-anchor="middle" textLength="21.47" lengthAdjust="spacingAndGlyphs" font-family="Arial" font-size="11.04">75.2</text><text x="507.54" y="198.79" text-anchor="middle" textLength="21.47" lengthAdjust="spacingAndGlyphs" font-family="Arial" font-size="11.04">72.5</text><text x="475.07" y="210.17" text-anchor="middle" textLength="21.47" lengthAdjust="spacingAndGlyphs" font-family="Arial" font-size="11.04">65.8</text><text x="461.99" y="221.55" text-anchor="middle" textLength="21.47" lengthAdjust="spacingAndGlyphs" font-family="Arial" font-size="11.04">63.1</text><text x="461.99" y="232.93" text-anchor="middle" textLength="21.47" lengthAdjust="spacingAndGlyphs" font-family="Arial" font-size="11.04">63.1</text><text x="455.69" y="244.31" text-anchor="middle" textLength="21.47" lengthAdjust="spacingAndGlyphs" font-family="Arial" font-size="11.04">61.8</text><text x="442.6" y="255.7" text-anchor="middle" textLength="21.47" lengthAdjust="spacingAndGlyphs" font-family="Arial" font-size="11.04">59.1</text><text x="438.24" y="267.08" text-anchor="middle" textLength="21.47" lengthAdjust="spacingAndGlyphs" font-family="Arial" font-size="11.04">58.2</text><text x="433.88" y="278.46" text-anchor="middle" textLength="21.47" lengthAdjust="spacingAndGlyphs" font-family="Arial" font-size="11.04">57.3</text><text x="431.46" y="289.84" text-anchor="middle" textLength="21.47" lengthAdjust="spacingAndGlyphs" font-family="Arial" font-size="11.04">56.8</text><text x="426.61" y="301.22" text-anchor="middle" textLength="21.47" lengthAdjust="spacingAndGlyphs" font-family="Arial" font-size="11.04">55.8</text><text x="418.37" y="312.6" text-anchor="middle" textLength="21.47" lengthAdjust="spacingAndGlyphs" font-family="Arial" font-size="11.04">54.1</text><text x="413.04" y="323.98" text-anchor="middle" textLength="12.27" lengthAdjust="spacingAndGlyphs" font-family="Arial" font-size="11.04">53</text><text x="412.07" y="335.36" text-anchor="middle" textLength="21.47" lengthAdjust="spacingAndGlyphs" font-family="Arial" font-size="11.04">52.8</text><text x="405.29" y="346.75" text-anchor="middle" textLength="21.47" lengthAdjust="spacingAndGlyphs" font-family="Arial" font-size="11.04">51.4</text><text x="404.8" y="358.13" text-anchor="middle" textLength="21.47" lengthAdjust="spacingAndGlyphs" font-family="Arial" font-size="11.04">51.3</text><text x="398.5" y="369.51" text-anchor="middle" textLength="12.27" lengthAdjust="spacingAndGlyphs" font-family="Arial" font-size="11.04">50</text><text x="390.75" y="380.89" text-anchor="middle" textLength="21.47" lengthAdjust="spacingAndGlyphs" font-family="Arial" font-size="11.04">48.4</text><text x="389.3" y="392.27" text-anchor="middle" textLength="21.47" lengthAdjust="spacingAndGlyphs" font-family="Arial" font-size="11.04">48.1</text><text x="385.91" y="403.65" text-anchor="middle" textLength="21.47" lengthAdjust="spacingAndGlyphs" font-family="Arial" font-size="11.04">47.4</text><text x="382.51" y="415.03" text-anchor="middle" textLength="21.47" lengthAdjust="spacingAndGlyphs" font-family="Arial" font-size="11.04">46.7</text><text x="379.12" y="426.42" text-anchor="middle" textLength="12.27" lengthAdjust="spacingAndGlyphs" font-family="Arial" font-size="11.04">46</text><text x="375.73" y="437.8" text-anchor="middle" textLength="21.47" lengthAdjust="spacingAndGlyphs" font-family="Arial" font-size="11.04">45.3</text><text x="372.34" y="449.18" text-anchor="middle" textLength="21.47" lengthAdjust="spacingAndGlyphs" font-family="Arial" font-size="11.04">44.6</text><text x="369.91" y="460.56" text-anchor="middle" textLength="21.47" lengthAdjust="spacingAndGlyphs" font-family="Arial" font-size="11.04">44.1</text><text x="365.55" y="471.94" text-anchor="middle" textLength="21.47" lengthAdjust="spacingAndGlyphs" font-family="Arial" font-size="11.04">43.2</text><text x="365.55" y="483.32" text-anchor="middle" textLength="21.47" lengthAdjust="spacingAndGlyphs" font-family="Arial" font-size="11.04">43.2</text><text x="362.16" y="494.7" text-anchor="middle" textLength="21.47" lengthAdjust="spacingAndGlyphs" font-family="Arial" font-size="11.04">42.5</text><text x="358.77" y="506.08" text-anchor="middle" textLength="21.47" lengthAdjust="spacingAndGlyphs" font-family="Arial" font-size="11.04">41.8</text><text x="357.31" y="517.47" text-anchor="middle" textLength="21.47" lengthAdjust="spacingAndGlyphs" font-family="Arial" font-size="11.04">41.5</text><text x="356.35" y="528.85" text-anchor="middle" textLength="21.47" lengthAdjust="spacingAndGlyphs" font-family="Arial" font-size="11.04">41.3</text><text x="355.38" y="540.23" text-anchor="middle" textLength="21.47" lengthAdjust="spacingAndGlyphs" font-family="Arial" font-size="11.04">41.1</text><text x="351.01" y="551.61" text-anchor="middle" textLength="21.47" lengthAdjust="spacingAndGlyphs" font-family="Arial" font-size="11.04">40.2</text><text x="350.05" y="562.99" text-anchor="middle" textLength="12.27" lengthAdjust="spacingAndGlyphs" font-family="Arial" font-size="11.04">40</text><text x="349.56" y="574.37" text-anchor="middle" textLength="21.47" lengthAdjust="spacingAndGlyphs" font-family="Arial" font-size="11.04">39.9</text><text x="347.62" y="585.75" text-anchor="middle" textLength="21.47" lengthAdjust="spacingAndGlyphs" font-family="Arial" font-size="11.04">39.5</text><text x="346.17" y="597.13" text-anchor="middle" textLength="21.47" lengthAdjust="spacingAndGlyphs" font-family="Arial" font-size="11.04">39.2</text><text x="338.9" y="608.52" text-anchor="middle" textLength="21.47" lengthAdjust="spacingAndGlyphs" font-family="Arial" font-size="11.04">37.7</text></g><g clip-path="url(#c2)"><text x="119.29" y="607.77" text-anchor="end" textLength="68.89" lengthAdjust="spacingAndGlyphs" font-family="Hack Nerd Font" font-size="8.8" fill="#4d4d4d">@Harry_Styles</text><text x="119.29" y="596.39" text-anchor="end" textLength="58.29" lengthAdjust="spacingAndGlyphs" font-family="Hack Nerd Font" font-size="8.8" fill="#4d4d4d">@bts_bighit</text><text x="119.29" y="585" text-anchor="end" textLength="31.8" lengthAdjust="spacingAndGlyphs" font-family="Hack Nerd Font" font-size="8.8" fill="#4d4d4d">@drake</text><text x="119.29" y="573.62" text-anchor="end" textLength="63.59" lengthAdjust="spacingAndGlyphs" font-family="Hack Nerd Font" font-size="8.8" fill="#4d4d4d">@KylieJenner</text><text x="119.29" y="562.24" text-anchor="end" textLength="68.89" lengthAdjust="spacingAndGlyphs" font-family="Hack Nerd Font" font-size="8.8" fill="#4d4d4d">@sportscenter</text><text x="119.29" y="550.86" text-anchor="end" textLength="26.5" lengthAdjust="spacingAndGlyphs" font-family="Hack Nerd Font" font-size="8.8" fill="#4d4d4d">@espn</text><text x="119.29" y="539.48" text-anchor="end" textLength="84.79" lengthAdjust="spacingAndGlyphs" font-family="Hack Nerd Font" font-size="8.8" fill="#4d4d4d">@championsleague</text><text x="119.29" y="528.1" text-anchor="end" textLength="74.19" lengthAdjust="spacingAndGlyphs" font-family="Hack Nerd Font" font-size="8.8" fill="#4d4d4d">@niallofficial</text><text x="119.29" y="516.72" text-anchor="end" textLength="63.59" lengthAdjust="spacingAndGlyphs" font-family="Hack Nerd Font" font-size="8.8" fill="#4d4d4d">@fcbarcelona</text><text x="119.29" y="505.34" text-anchor="end" textLength="58.29" lengthAdjust="spacingAndGlyphs" font-family="Hack Nerd Font" font-size="8.8" fill="#4d4d4d">@realmadrid</text><text x="119.29" y="493.95" text-anchor="end" textLength="37.09" lengthAdjust="spacingAndGlyphs" font-family="Hack Nerd Font" font-size="8.8" fill="#4d4d4d">@iamsrk</text><text x="119.29" y="482.57" text-anchor="end" textLength="52.99" lengthAdjust="spacingAndGlyphs" font-family="Hack Nerd Font" font-size="8.8" fill="#4d4d4d">@brunomars</text><text x="119.29" y="471.19" text-anchor="end" textLength="31.8" lengthAdjust="spacingAndGlyphs" font-family="Hack Nerd Font" font-size="8.8" fill="#4d4d4d">@oprah</text><text x="119.29" y="459.81" text-anchor="end" textLength="84.79" lengthAdjust="spacingAndGlyphs" font-family="Hack Nerd Font" font-size="8.8" fill="#4d4d4d">@beingsalmankhan</text><text x="119.29" y="448.43" text-anchor="end" textLength="63.59" lengthAdjust="spacingAndGlyphs" font-family="Hack Nerd Font" font-size="8.8" fill="#4d4d4d">@akshaykumar</text><text x="119.29" y="437.05" text-anchor="end" textLength="21.2" lengthAdjust="spacingAndGlyphs" font-family="Hack Nerd Font" font-size="8.8" fill="#4d4d4d">@JLo</text><text x="119.29" y="425.67" text-anchor="end" textLength="42.39" lengthAdjust="spacingAndGlyphs" font-family="Hack Nerd Font" font-size="8.8" fill="#4d4d4d">@bts_twt</text><text x="119.29" y="414.29" text-anchor="end" textLength="58.29" lengthAdjust="spacingAndGlyphs" font-family="Hack Nerd Font" font-size="8.8" fill="#4d4d4d">@MileyCyrus</text><text x="119.29" y="402.9" text-anchor="end" textLength="58.29" lengthAdjust="spacingAndGlyphs" font-family="Hack Nerd Font" font-size="8.8" fill="#4d4d4d">@srbachchan</text><text x="119.29" y="391.52" text-anchor="end" textLength="47.69" lengthAdjust="spacingAndGlyphs" font-family="Hack Nerd Font" font-size="8.8" fill="#4d4d4d">@imvkohli</text><text x="119.29" y="380.14" text-anchor="end" textLength="47.69" lengthAdjust="spacingAndGlyphs" font-family="Hack Nerd Font" font-size="8.8" fill="#4d4d4d">@pmoindia</text><text x="119.29" y="368.76" text-anchor="end" textLength="63.59" lengthAdjust="spacingAndGlyphs" font-family="Hack Nerd Font" font-size="8.8" fill="#4d4d4d">@bbcbreaking</text><text x="119.29" y="357.38" text-anchor="end" textLength="52.99" lengthAdjust="spacingAndGlyphs" font-family="Hack Nerd Font" font-size="8.8" fill="#4d4d4d">@kingjames</text><text x="119.29" y="346" text-anchor="end" textLength="63.59" lengthAdjust="spacingAndGlyphs" font-family="Hack Nerd Font" font-size="8.8" fill="#4d4d4d">@jimmyfallon</text><text x="119.29" y="334.62" text-anchor="end" textLength="42.39" lengthAdjust="spacingAndGlyphs" font-family="Hack Nerd Font" font-size="8.8" fill="#4d4d4d">@shakira</text><text x="119.29" y="323.23" text-anchor="end" textLength="42.39" lengthAdjust="spacingAndGlyphs" font-family="Hack Nerd Font" font-size="8.8" fill="#4d4d4d">@nytimes</text><text x="119.29" y="311.85" text-anchor="end" textLength="47.69" lengthAdjust="spacingAndGlyphs" font-family="Hack Nerd Font" font-size="8.8" fill="#4d4d4d">@ddlovato</text><text x="119.29" y="300.47" text-anchor="end" textLength="74.19" lengthAdjust="spacingAndGlyphs" font-family="Hack Nerd Font" font-size="8.8" fill="#4d4d4d">@britneyspears</text><text x="119.29" y="289.09" text-anchor="end" textLength="47.69" lengthAdjust="spacingAndGlyphs" font-family="Hack Nerd Font" font-size="8.8" fill="#4d4d4d">@neymarjr</text><text x="119.29" y="277.71" text-anchor="end" textLength="26.5" lengthAdjust="spacingAndGlyphs" font-family="Hack Nerd Font" font-size="8.8" fill="#4d4d4d">@NASA</text><text x="119.29" y="266.33" text-anchor="end" textLength="21.2" lengthAdjust="spacingAndGlyphs" font-family="Hack Nerd Font" font-size="8.8" fill="#4d4d4d">@CNN</text><text x="119.29" y="254.95" text-anchor="end" textLength="52.99" lengthAdjust="spacingAndGlyphs" font-family="Hack Nerd Font" font-size="8.8" fill="#4d4d4d">@BillGates</text><text x="119.29" y="243.57" text-anchor="end" textLength="58.29" lengthAdjust="spacingAndGlyphs" font-family="Hack Nerd Font" font-size="8.8" fill="#4d4d4d">@Twitter[a]</text><text x="119.29" y="232.18" text-anchor="end" textLength="37.09" lengthAdjust="spacingAndGlyphs" font-family="Hack Nerd Font" font-size="8.8" fill="#4d4d4d">@cnnbrk</text><text x="119.29" y="220.8" text-anchor="end" textLength="63.59" lengthAdjust="spacingAndGlyphs" font-family="Hack Nerd Font" font-size="8.8" fill="#4d4d4d">@jtimberlake</text><text x="119.29" y="209.42" text-anchor="end" textLength="63.59" lengthAdjust="spacingAndGlyphs" font-family="Hack Nerd Font" font-size="8.8" fill="#4d4d4d">@selenagomez</text><text x="119.29" y="198.04" text-anchor="end" textLength="74.19" lengthAdjust="spacingAndGlyphs" font-family="Hack Nerd Font" font-size="8.8" fill="#4d4d4d">@KimKardashian</text><text x="119.29" y="186.66" text-anchor="end" textLength="42.39" lengthAdjust="spacingAndGlyphs" font-family="Hack Nerd Font" font-size="8.8" fill="#4d4d4d">@YouTube</text><text x="119.29" y="175.28" text-anchor="end" textLength="68.89" lengthAdjust="spacingAndGlyphs" font-family="Hack Nerd Font" font-size="8.8" fill="#4d4d4d">@TheEllenShow</text><text x="119.29" y="163.9" text-anchor="end" textLength="68.89" lengthAdjust="spacingAndGlyphs" font-family="Hack Nerd Font" font-size="8.8" fill="#4d4d4d">@narendramodi</text><text x="119.29" y="152.52" text-anchor="end" textLength="47.69" lengthAdjust="spacingAndGlyphs" font-family="Hack Nerd Font" font-size="8.8" fill="#4d4d4d">@ladygaga</text><text x="119.29" y="141.13" text-anchor="end" textLength="84.79" lengthAdjust="spacingAndGlyphs" font-family="Hack Nerd Font" font-size="8.8" fill="#4d4d4d">@ArianaGrande[4]</text><text x="119.29" y="129.75" text-anchor="end" textLength="100.68" lengthAdjust="spacingAndGlyphs" font-family="Hack Nerd Font" font-size="8.8" fill="#4d4d4d">@realDonaldTrump[3]</text><text x="119.29" y="118.37" text-anchor="end" textLength="74.19" lengthAdjust="spacingAndGlyphs" font-family="Hack Nerd Font" font-size="8.8" fill="#4d4d4d">@taylorswift13</text><text x="119.29" y="106.99" text-anchor="end" textLength="47.69" lengthAdjust="spacingAndGlyphs" font-family="Hack Nerd Font" font-size="8.8" fill="#4d4d4d">@elonmusk</text><text x="119.29" y="95.61" text-anchor="end" textLength="52.99" lengthAdjust="spacingAndGlyphs" font-family="Hack Nerd Font" font-size="8.8" fill="#4d4d4d">@Cristiano</text><text x="119.29" y="84.23" text-anchor="end" textLength="42.39" lengthAdjust="spacingAndGlyphs" font-family="Hack Nerd Font" font-size="8.8" fill="#4d4d4d">@rihanna</text><text x="119.29" y="72.85" text-anchor="end" textLength="52.99" lengthAdjust="spacingAndGlyphs" font-family="Hack Nerd Font" font-size="8.8" fill="#4d4d4d">@katyperry</text><text x="119.29" y="61.46" text-anchor="end" textLength="68.89" lengthAdjust="spacingAndGlyphs" font-family="Hack Nerd Font" font-size="8.8" fill="#4d4d4d">@justinbieber</text><text x="119.29" y="50.08" text-anchor="end" textLength="63.59" lengthAdjust="spacingAndGlyphs" font-family="Hack Nerd Font" font-size="8.8" fill="#4d4d4d">@BarackObama</text><path stroke-width="1.07" stroke="#333" d="M121.49 604.56h2.74M121.49 593.18h2.74M121.49 581.8h2.74M121.49 570.42h2.74M121.49 559.03h2.74M121.49 547.65h2.74M121.49 536.27h2.74M121.49 524.89h2.74M121.49 513.51h2.74M121.49 502.13h2.74M121.49 490.75h2.74M121.49 479.37h2.74M121.49 467.98h2.74M121.49 456.6h2.74M121.49 445.22h2.74M121.49 433.84h2.74M121.49 422.46h2.74M121.49 411.08h2.74M121.49 399.7h2.74M121.49 388.31h2.74M121.49 376.93h2.74M121.49 365.55h2.74M121.49 354.17h2.74M121.49 342.79h2.74M121.49 331.41h2.74M121.49 320.03h2.74M121.49 308.65h2.74M121.49 297.26h2.74M121.49 285.88h2.74M121.49 274.5h2.74M121.49 263.12h2.74M121.49 251.74h2.74M121.49 240.36h2.74M121.49 228.98h2.74M121.49 217.6h2.74M121.49 206.21h2.74M121.49 194.83h2.74M121.49 183.45h2.74M121.49 172.07h2.74M121.49 160.69h2.74M121.49 149.31h2.74M121.49 137.93h2.74M121.49 126.55h2.74M121.49 115.16h2.74M121.49 103.78h2.74M121.49 92.4h2.74M121.49 81.02h2.74M121.49 69.64h2.74M121.49 58.26h2.74M121.49 46.88h2.74M156.21 614.13v-2.74M398.5 614.13v-2.74M640.8 614.13v-2.74"/><text transform="rotate(-45 829.814 116.4)" text-anchor="end" textLength="5.3" lengthAdjust="spacingAndGlyphs" font-family="Hack Nerd Font" font-size="8.8" fill="#4d4d4d">0</text><text transform="rotate(-45 950.964 -176.082)" text-anchor="end" textLength="10.6" lengthAdjust="spacingAndGlyphs" font-family="Hack Nerd Font" font-size="8.8" fill="#4d4d4d">50</text><text transform="rotate(-45 1072.114 -468.564)" text-anchor="end" textLength="15.9" lengthAdjust="spacingAndGlyphs" font-family="Hack Nerd Font" font-size="8.8" fill="#4d4d4d">100</text><text x="476.04" y="644.2" text-anchor="middle" textLength="132.48" lengthAdjust="spacingAndGlyphs" font-family="Hack Nerd Font" font-size="11">Followers (Millions)</text><text transform="rotate(-90 169.61 156.11)" text-anchor="middle" textLength="52.99" lengthAdjust="spacingAndGlyphs" font-family="Hack Nerd Font" font-size="11">Username</text><text x="124.23" y="32.2" textLength="298.08" lengthAdjust="spacingAndGlyphs" font-family="Hack Nerd Font" font-size="11">Information was last updated on May 12, 2022.</text><text x="420" y="15.69" text-anchor="middle" textLength="143.21" lengthAdjust="spacingAndGlyphs" font-family="Hack Nerd Font" font-size="14">Top 50 in Twitter</text><text x="827.85" y="658.46" text-anchor="end" textLength="614.71" lengthAdjust="spacingAndGlyphs" font-family="Hack Nerd Font" font-size="8.8">Data sources: https://www.kaggle.com/datasets/hassanshehzadk/top-50-most-followed-twitter-accounts?resource=download</text></g></svg>