<svg xmlns="http://www.w3.org/2000/svg" class="httpgd" width="1067" height="1031"><defs><clipPath id="c0"><path d="M0 0h1067v1031H0z"/></clipPath><clipPath id="c1"><path d="M38.16 23.34h1023.36v975.93H38.16z"/></clipPath><clipPath id="c2"><path d="M0 0h1067v1031H0z"/></clipPath><style><![CDATA[
    .httpgd line, .httpgd polyline, .httpgd polygon, .httpgd path, .httpgd rect, .httpgd circle {
      fill: none;
      stroke: #000000;
      stroke-linecap: round;
      stroke-linejoin: round;
      stroke-miterlimit: 10.00;
    }
  ]]></style></defs><rect width="100%" height="100%" style="stroke:none;fill:#FFFFFF"/><g clip-path="url(#c0)"><path style="stroke-width:1.07;stroke:#FFFFFF;fill:#FFFFFF" d="M0 0h1067v1031H0z"/></g><g clip-path="url(#c1)"><path style="stroke-width:1.07;stroke:none;fill:#EBEBEB" d="M38.16 23.34h1023.36v975.93H38.16z"/><path style="stroke-width:0.53;stroke:#FFFFFF;stroke-linecap:butt" d="M38.16 855.52h1023.36M38.16 610.29h1023.36M38.16 365.05h1023.36M38.16 119.81h1023.36"/><path style="stroke-width:1.07;stroke:#FFFFFF;stroke-linecap:butt" d="M38.16 978.14h1023.36M38.16 732.9h1023.36M38.16 487.67h1023.36M38.16 242.43h1023.36M317.26 999.27V23.34M782.42 999.27V23.34"/><path style="stroke-width:0.71;stroke:#0000FF" d="M310.72 106.93l6.54-6.53 6.54 6.53-6.54 6.54zM310.72 67.7l6.54-6.54 6.54 6.54-6.54 6.53z"/><path style="stroke-width:0.71;stroke:#0000FF" d="M310.72 77.51l6.54-6.54 6.54 6.54-6.54 6.53z"/><path style="stroke-width:1.07;stroke:#333333;stroke-linecap:butt" d="M317.26 426.82V155.37M317.26 617.98v164.58"/><path style="stroke-width:1.07;stroke:#333333;fill:#FFFFFF" d="M142.83 426.82v191.16H491.7V426.82H142.83z"/><path style="stroke-width:2.13;stroke:#333333;stroke-linecap:butt" d="M142.83 523.23H491.7"/><path style="stroke-width:0.71;stroke:#0000FF" d="M775.89 954.91l6.53-6.54 6.54 6.54-6.54 6.53zM775.89 520.77l6.53-6.53 6.54 6.53-6.54 6.54zM775.89 929.22l6.53-6.54 6.54 6.54-6.54 6.53z"/><path style="stroke-width:0.71;stroke:#0000FF" d="M775.89 929.58l6.53-6.53 6.54 6.53-6.54 6.54z"/><path style="stroke-width:1.07;stroke:#333333;stroke-linecap:butt" d="M782.42 695.51V558.79M782.42 788.88v138.13"/><path style="stroke-width:1.07;stroke:#333333;fill:#FFFFFF" d="M607.99 695.51v93.37h348.87v-93.37H607.99z"/><path style="stroke-width:2.13;stroke:#333333;stroke-linecap:butt" d="M607.99 744.06h348.87"/></g><g clip-path="url(#c2)"><text x="33.23" y="981.3" text-anchor="end" style="font-family:Arial;font-size:8.80px;fill:#4D4D4D" textLength="9.79" lengthAdjust="spacingAndGlyphs">40</text><text x="33.23" y="736.06" text-anchor="end" style="font-family:Arial;font-size:8.80px;fill:#4D4D4D" textLength="9.79" lengthAdjust="spacingAndGlyphs">80</text><text x="33.23" y="490.82" text-anchor="end" style="font-family:Arial;font-size:8.80px;fill:#4D4D4D" textLength="14.69" lengthAdjust="spacingAndGlyphs">120</text><text x="33.23" y="245.58" text-anchor="end" style="font-family:Arial;font-size:8.80px;fill:#4D4D4D" textLength="14.69" lengthAdjust="spacingAndGlyphs">160</text><path style="stroke-width:1.07;stroke:#333333;stroke-linecap:butt" d="M35.42 978.14h2.74M35.42 732.9h2.74M35.42 487.67h2.74M35.42 242.43h2.74M317.26 1002.01v-2.74M782.42 1002.01v-2.74"/><text x="317.26" y="1010.5" text-anchor="middle" style="font-family:Arial;font-size:8.80px;fill:#4D4D4D" textLength="4.9" lengthAdjust="spacingAndGlyphs">0</text><text x="782.42" y="1010.5" text-anchor="middle" style="font-family:Arial;font-size:8.80px;fill:#4D4D4D" textLength="4.9" lengthAdjust="spacingAndGlyphs">1</text><text x="549.84" y="1023.09" text-anchor="middle" style="font-family:Arial;font-size:11.00px" textLength="46.48" lengthAdjust="spacingAndGlyphs">diagnosis</text><text transform="rotate(-90 262.335 248.965)" text-anchor="middle" style="font-family:Arial;font-size:11.00px" textLength="80.11" lengthAdjust="spacingAndGlyphs">mean_perimeter</text><text x="38.16" y="14.94" style="font-family:Arial;font-size:13.20px" textLength="137.11" lengthAdjust="spacingAndGlyphs">Plot of mean_perimeter</text></g></svg>