<svg xmlns="http://www.w3.org/2000/svg" class="httpgd" width="700.67" height="503.33"><defs><clipPath id="c0"><path d="M0 0h700.67v503.33H0z"/></clipPath><clipPath id="c1"><path d="M0 0h350.33v167.78H0z"/></clipPath><clipPath id="c2"><path d="M0 0h700.67v503.33H0z"/></clipPath><clipPath id="c3"><path d="M50.4 5.48h294.46v130.56H50.4z"/></clipPath><clipPath id="c4"><path d="M0 0h700.67v503.33H0z"/></clipPath><clipPath id="c5"><path d="M350.33 0h350.33v167.78H350.33z"/></clipPath><clipPath id="c6"><path d="M0 0h700.67v503.33H0z"/></clipPath><clipPath id="c7"><path d="M390.94 5.48h304.25v130.56H390.94z"/></clipPath><clipPath id="c8"><path d="M0 0h700.67v503.33H0z"/></clipPath><clipPath id="c9"><path d="M0 167.78h350.33v167.78H0z"/></clipPath><clipPath id="c10"><path d="M0 0h700.67v503.33H0z"/></clipPath><clipPath id="c11"><path d="M45.5 173.26h299.35v130.56H45.5z"/></clipPath><clipPath id="c12"><path d="M0 0h700.67v503.33H0z"/></clipPath><clipPath id="c13"><path d="M350.33 167.78h350.33v167.78H350.33z"/></clipPath><clipPath id="c14"><path d="M0 0h700.67v503.33H0z"/></clipPath><clipPath id="c15"><path d="M383.6 173.26h311.59v130.56H383.6z"/></clipPath><clipPath id="c16"><path d="M0 0h700.67v503.33H0z"/></clipPath><clipPath id="c17"><path d="M0 335.56h350.33v167.78H0z"/></clipPath><clipPath id="c18"><path d="M0 0h700.67v503.33H0z"/></clipPath><clipPath id="c19"><path d="M45.5 341.04h299.35V471.6H45.5z"/></clipPath><clipPath id="c20"><path d="M0 0h700.67v503.33H0z"/></clipPath><style><![CDATA[.httpgd line,.httpgd polyline,.httpgd polygon,.httpgd path,.httpgd rect,.httpgd circle{fill:none;stroke:#000000;stroke-linecap:round;stroke-linejoin:round;stroke-miterlimit:10.00}]]></style></defs><rect width="100%" height="100%" style="stroke:none;fill:#FFFFFF"/><g clip-path="url(#c1)"><path style="stroke-width:1.07;stroke:#FFFFFF;fill:#FFFFFF" d="M0 0h350.33v167.78H0z"/></g><g clip-path="url(#c3)"><path style="stroke-width:1.07;stroke:none;fill:#EBEBEB" d="M50.4 5.48h294.46v130.56H50.4z"/><path style="stroke-width:0.53;stroke:#FFFFFF;stroke-linecap:butt" d="M50.4 115.35h294.45M50.4 85.83h294.45M50.4 56.31h294.45M50.4 26.8h294.45M77.84 136.04V5.48M132.72 136.04V5.48M187.6 136.04V5.48M242.48 136.04V5.48M297.36 136.04V5.48"/><path style="stroke-width:1.07;stroke:#FFFFFF;stroke-linecap:butt" d="M50.4 130.11h294.45M50.4 100.59h294.45M50.4 71.07h294.45M50.4 41.56h294.45M50.4 12.04h294.45M50.4 136.04V5.48M105.28 136.04V5.48M160.16 136.04V5.48M215.04 136.04V5.48M269.92 136.04V5.48M324.8 136.04V5.48"/><path style="stroke-width:0.43;stroke-linecap:square;stroke-linejoin:miter;fill:#0000FF;fill-opacity:0.20" d="M63.78 123.73h8.92v6.38h-8.92zM72.7 95.65h8.92v34.46H72.7zM81.63 66.29h8.92v63.81h-8.92zM90.55 11.41h8.92V130.1h-8.92zM99.47 15.24h8.92v114.87h-8.92zM108.4 33.11h8.92v97h-8.92z"/><path style="stroke-width:0.43;stroke-linecap:square;stroke-linejoin:miter;fill:#0000FF;fill-opacity:0.20" d="M117.32 59.91h8.92v70.2h-8.92zM126.24 95.65h8.92v34.46h-8.92zM135.16 102.03h8.92v28.08h-8.92zM144.09 107.14h8.92v22.97h-8.92zM153.01 108.41h8.92v21.7h-8.92zM161.93 110.96h8.92v19.14h-8.92zM170.86 108.41h8.92v21.7h-8.92zM179.78 109.69h8.92v20.42h-8.92zM188.7 108.41h8.92v21.7h-8.92zM197.63 121.18h8.92v8.93h-8.92zM206.55 126.28h8.92v3.83h-8.92zM215.47 127.56h8.92v2.55h-8.92zM233.32 123.73h8.92v6.38h-8.92zM242.24 128.83h8.92v1.28h-8.92zM251.16 127.56h8.92v2.55h-8.92zM269.01 128.83h8.92v1.28h-8.92zM295.78 128.83h8.92v1.28h-8.92zM322.55 127.56h8.92v2.55h-8.92z"/><path style="stroke-width:0.00;stroke:none" d="M66.15 120.87l.5-.82.51-.87.51-.92.5-.97.51-1.02.51-1.06.5-1.12.51-1.17.5-1.21.51-1.26.51-1.29.5-1.35.51-1.39.51-1.42.5-1.46.51-1.5.51-1.53.5-1.56.51-1.59.51-1.62.5-1.64.51-1.67.5-1.69.51-1.71.51-1.73.5-1.75.51-1.76.51-1.79.5-1.8.51-1.81.51-1.84.5-1.84.51-1.87.5-1.88.51-1.89.51-1.91.5-1.92.51-1.93.51-1.94.5-1.95.51-1.95.51-1.95.5-1.95.51-1.95.5-1.93.51-1.91.51-1.89.5-1.87.51-1.83.51-1.79.5-1.74.51-1.69.51-1.63.5-1.58.51-1.49.51-1.41.5-1.34.51-1.26.5-1.17.51-1.06.51-.97.5-.87.51-.78.51-.68.5-.58.51-.46.51-.37.5-.27.51-.19.5-.08.51.02.51.11.5.2.51.27.51.36.5.45.51.52.51.6.5.66.51.72.5.8.51.86.51.91.5.97.51 1.01.51 1.06.5 1.11.51 1.15.51 1.18.5 1.21.51 1.25.51 1.27.5 1.3.51 1.32.5 1.33.51 1.34.51 1.36.5 1.37.51 1.37.51 1.37.5 1.38.51 1.38.51 1.38.5 1.37.51 1.38.5 1.37.51 1.37.51 1.36.5 1.36.51 1.35.51 1.36.5 1.35.51 1.34.51 1.34.5 1.34.51 1.33.5 1.33.51 1.32.51 1.32.5 1.31.51 1.3.51 1.29.5 1.27.51 1.27.51 1.24.5 1.23.51 1.21.51 1.2.5 1.16.51 1.14.5 1.12.51 1.09.51 1.06.5 1.03.51 1 .51.97.5.94.51.91.51.87.5.83.51.81.5.77.51.74.51.7.5.67.51.63.51.6.5.57.51.54.51.49.5.47.51.43.51.39.5.37.51.34.5.29.51.27.51.24.5.22.51.18.51.16.5.13.51.12.51.09.5.08.51.06.5.05.51.04.51.03.5.02.51.02.51.02.5.01.51.02.51.01.5.02.51.03.5.03.51.03.51.04.5.05.51.05.51.06.5.06.51.07.51.06.5.07.51.07.51.07.5.07.51.07.5.06.51.06.51.06.5.05.51.04.51.04.5.02.51.02.51.02h1.01l.5-.01.51-.01.51-.03.5-.02.51-.04.51-.04.5-.04.51-.05.51-.04.5-.05.51-.05.5-.06.51-.05.51-.05.5-.04.51-.05.51-.04.5-.04.51-.03.51-.03.5-.02.51-.02h1.52l.5.02.51.02.51.04.5.05.51.06.51.07.5.08.51.1.51.11.5.13.51.14.5.16.51.18.51.19.5.21.51.23.51.25.5.26.51.29.51.3.5.32.51.33.5.35.51.36.51.38.5.39.51.4.51.41.5.42.51.42.51.43.5.43.51.43.51.44.5.43.51.43.5.42.51.41.51.41.5.4.51.39.51.38.5.36.51.36.51.34.5.32.51.32.5.3.51.29.51.27.5.26.51.25.51.24.5.22.51.22.51.2.5.2.51.18.51.18.5.17.51.17.5.16.51.16.51.15.5.14.51.15.51.14.5.14.51.13.51.13.5.13.51.13.5.12.51.11.51.12.5.11.51.1.51.09.5.09.51.08.51.08.5.06.51.06.5.04.51.04.51.02.5.02.51.01.51-.01.5-.01.51-.02.51-.03.5-.03.51-.05.51-.05.5-.05.51-.05.5-.06.51-.06.51-.06.5-.06.51-.06.51-.05.5-.05.51-.05.51-.04.5-.03.51-.03.5-.01.51-.01.51-.01.5.01.51.01.51.02.5.02.51.04.51.03.5.05.51.05.5.05.51.06.51.06.5.06.51.06.51.07.5.07.51.06.51.07.5.06.51.07.51.06.5.06.51.06.5.05.51.06.51.05.5.06.51.05.51.05.5.05.51.04.51.05.5.05.51.04.5.05.51.04.51.04.5.05.51.04.51.04.5.05.51.04.51.04.5.04.51.04.5.04.51.03.51.04.5.03.51.03.51.03.5.03.51.03.51.02.5.03.51.02.51.02.5.02.51.01.5.02.51.02.51.01.5.02.51.01.51.02.5.01.51.02.51.02.5.01.51.02.5.02.51.02.51.02.5.03.51.02.51.02.5.03.51.02.51.03.5.02.51.02.51.03.5.02.51.02.5.02.51.02.51.01.5.02.51.01.51.01.5.01h.51l.51.01h.5l.51-.01h.5l.51-.01.51-.01.5-.01.51-.01.51-.02.5-.01.51-.02.51-.02.5-.02.51-.02.5-.02.51-.02.51-.02.5-.02.51-.02.51-.02.5-.01.51-.02.51-.01.5-.01.51-.01h.51l.5-.01h1.01l.51.01.51.01.5.01.51.01.51.01.5.02.51.01.51.02.5.02.51.02.5.02.51.02.51.02.5.02.51.01.51.02.5.01.51.01.51.01.5.01h1.52l.51-.01.5-.01.51-.01.51-.02.5-.02.51-.02.51-.03.5-.03.51-.03.51-.04.5-.04.51-.04.5-.05.51-.04.51-.05.5-.04.51-.05.51-.04.5-.05.51-.04.51-.04.5-.04.51-.03.5-.03.51-.03.51-.02.5-.02.51-.01.51-.01h.5v1.21H66.15z"/><path style="stroke-width:1.07" d="M66.15 120.87l.5-.82.51-.87.51-.92.5-.97.51-1.02.51-1.06.5-1.12.51-1.17.5-1.21.51-1.26.51-1.29.5-1.35.51-1.39.51-1.42.5-1.46.51-1.5.51-1.53.5-1.56.51-1.59.51-1.62.5-1.64.51-1.67.5-1.69.51-1.71.51-1.73.5-1.75.51-1.76.51-1.79.5-1.8.51-1.81.51-1.84.5-1.84.51-1.87.5-1.88.51-1.89.51-1.91.5-1.92.51-1.93.51-1.94.5-1.95.51-1.95.51-1.95.5-1.95.51-1.95.5-1.93.51-1.91.51-1.89.5-1.87.51-1.83.51-1.79.5-1.74.51-1.69.51-1.63.5-1.58.51-1.49.51-1.41.5-1.34.51-1.26.5-1.17.51-1.06.51-.97.5-.87.51-.78.51-.68.5-.58.51-.46.51-.37.5-.27.51-.19.5-.08.51.02.51.11.5.2.51.27.51.36.5.45.51.52.51.6.5.66.51.72.5.8.51.86.51.91.5.97.51 1.01.51 1.06.5 1.11.51 1.15.51 1.18.5 1.21.51 1.25.51 1.27.5 1.3.51 1.32.5 1.33.51 1.34.51 1.36.5 1.37.51 1.37.51 1.37.5 1.38.51 1.38.51 1.38.5 1.37.51 1.38.5 1.37.51 1.37.51 1.36.5 1.36.51 1.35.51 1.36.5 1.35.51 1.34.51 1.34.5 1.34.51 1.33.5 1.33.51 1.32.51 1.32.5 1.31.51 1.3.51 1.29.5 1.27.51 1.27.51 1.24.5 1.23.51 1.21.51 1.2.5 1.16.51 1.14.5 1.12.51 1.09.51 1.06.5 1.03.51 1 .51.97.5.94.51.91.51.87.5.83.51.81.5.77.51.74.51.7.5.67.51.63.51.6.5.57.51.54.51.49.5.47.51.43.51.39.5.37.51.34.5.29.51.27.51.24.5.22.51.18.51.16.5.13.51.12.51.09.5.08.51.06.5.05.51.04.51.03.5.02.51.02.51.02.5.01.51.02.51.01.5.02.51.03.5.03.51.03.51.04.5.05.51.05.51.06.5.06.51.07.51.06.5.07.51.07.51.07.5.07.51.07.5.06.51.06.51.06.5.05.51.04.51.04.5.02.51.02.51.02h1.01l.5-.01.51-.01.51-.03.5-.02.51-.04.51-.04.5-.04.51-.05.51-.04.5-.05.51-.05.5-.06.51-.05.51-.05.5-.04.51-.05.51-.04.5-.04.51-.03.51-.03.5-.02.51-.02h1.52l.5.02.51.02.51.04.5.05.51.06.51.07.5.08.51.1.51.11.5.13.51.14.5.16.51.18.51.19.5.21.51.23.51.25.5.26.51.29.51.3.5.32.51.33.5.35.51.36.51.38.5.39.51.4.51.41.5.42.51.42.51.43.5.43.51.43.51.44.5.43.51.43.5.42.51.41.51.41.5.4.51.39.51.38.5.36.51.36.51.34.5.32.51.32.5.3.51.29.51.27.5.26.51.25.51.24.5.22.51.22.51.2.5.2.51.18.51.18.5.17.51.17.5.16.51.16.51.15.5.14.51.15.51.14.5.14.51.13.51.13.5.13.51.13.5.12.51.11.51.12.5.11.51.1.51.09.5.09.51.08.51.08.5.06.51.06.5.04.51.04.51.02.5.02.51.01.51-.01.5-.01.51-.02.51-.03.5-.03.51-.05.51-.05.5-.05.51-.05.5-.06.51-.06.51-.06.5-.06.51-.06.51-.05.5-.05.51-.05.51-.04.5-.03.51-.03.5-.01.51-.01.51-.01.5.01.51.01.51.02.5.02.51.04.51.03.5.05.51.05.5.05.51.06.51.06.5.06.51.06.51.07.5.07.51.06.51.07.5.06.51.07.51.06.5.06.51.06.5.05.51.06.51.05.5.06.51.05.51.05.5.05.51.04.51.05.5.05.51.04.5.05.51.04.51.04.5.05.51.04.51.04.5.05.51.04.51.04.5.04.51.04.5.04.51.03.51.04.5.03.51.03.51.03.5.03.51.03.51.02.5.03.51.02.51.02.5.02.51.01.5.02.51.02.51.01.5.02.51.01.51.02.5.01.51.02.51.02.5.01.51.02.5.02.51.02.51.02.5.03.51.02.51.02.5.03.51.02.51.03.5.02.51.02.51.03.5.02.51.02.5.02.51.02.51.01.5.02.51.01.51.01.5.01h.51l.51.01h.5l.51-.01h.5l.51-.01.51-.01.5-.01.51-.01.51-.02.5-.01.51-.02.51-.02.5-.02.51-.02.5-.02.51-.02.51-.02.5-.02.51-.02.51-.02.5-.01.51-.02.51-.01.5-.01.51-.01h.51l.5-.01h1.01l.51.01.51.01.5.01.51.01.51.01.5.02.51.01.51.02.5.02.51.02.5.02.51.02.51.02.5.02.51.01.51.02.5.01.51.01.51.01.5.01h1.52l.51-.01.5-.01.51-.01.51-.02.5-.02.51-.02.51-.03.5-.03.51-.03.51-.04.5-.04.51-.04.5-.05.51-.04.51-.05.5-.04.51-.05.51-.04.5-.05.51-.04.51-.04.5-.04.51-.03.5-.03.51-.03.51-.02.5-.02.51-.01.51-.01h.5"/></g><g clip-path="url(#c4)"><text x="45.46" y="133.26" text-anchor="end" style="font-family:Arial;font-size:8.80px;fill:#4D4D4D" textLength="26.92" lengthAdjust="spacingAndGlyphs">0.0000</text><text x="45.46" y="103.74" text-anchor="end" style="font-family:Arial;font-size:8.80px;fill:#4D4D4D" textLength="26.92" lengthAdjust="spacingAndGlyphs">0.0005</text><text x="45.46" y="74.23" text-anchor="end" style="font-family:Arial;font-size:8.80px;fill:#4D4D4D" textLength="26.92" lengthAdjust="spacingAndGlyphs">0.0010</text><text x="45.46" y="44.71" text-anchor="end" style="font-family:Arial;font-size:8.80px;fill:#4D4D4D" textLength="26.92" lengthAdjust="spacingAndGlyphs">0.0015</text><text x="45.46" y="15.19" text-anchor="end" style="font-family:Arial;font-size:8.80px;fill:#4D4D4D" textLength="26.92" lengthAdjust="spacingAndGlyphs">0.0020</text><path style="stroke-width:1.07;stroke:#333333;stroke-linecap:butt" d="M47.66 130.11h2.74M47.66 100.59h2.74M47.66 71.07h2.74M47.66 41.56h2.74M47.66 12.04h2.74M50.4 138.78v-2.74M105.28 138.78v-2.74M160.16 138.78v-2.74M215.04 138.78v-2.74M269.92 138.78v-2.74M324.8 138.78v-2.74"/><text x="50.4" y="147.28" text-anchor="middle" style="font-family:Arial;font-size:8.80px;fill:#4D4D4D" textLength="4.9" lengthAdjust="spacingAndGlyphs">0</text><text x="105.28" y="147.28" text-anchor="middle" style="font-family:Arial;font-size:8.80px;fill:#4D4D4D" textLength="14.69" lengthAdjust="spacingAndGlyphs">500</text><text x="160.16" y="147.28" text-anchor="middle" style="font-family:Arial;font-size:8.80px;fill:#4D4D4D" textLength="19.58" lengthAdjust="spacingAndGlyphs">1000</text><text x="215.04" y="147.28" text-anchor="middle" style="font-family:Arial;font-size:8.80px;fill:#4D4D4D" textLength="19.58" lengthAdjust="spacingAndGlyphs">1500</text><text x="269.92" y="147.28" text-anchor="middle" style="font-family:Arial;font-size:8.80px;fill:#4D4D4D" textLength="19.58" lengthAdjust="spacingAndGlyphs">2000</text><text x="324.8" y="147.28" text-anchor="middle" style="font-family:Arial;font-size:8.80px;fill:#4D4D4D" textLength="19.58" lengthAdjust="spacingAndGlyphs">2500</text><text x="197.63" y="159.86" text-anchor="middle" style="font-family:Arial;font-size:11.00px" textLength="55.67" lengthAdjust="spacingAndGlyphs">mean_area</text><text transform="rotate(-90 42.065 28.695)" text-anchor="middle" style="font-family:Arial;font-size:11.00px" textLength="34.86" lengthAdjust="spacingAndGlyphs">density</text></g><g clip-path="url(#c5)"><path style="stroke-width:1.07;stroke:#FFFFFF;fill:#FFFFFF" d="M350.33 0h350.33v167.78H350.33z"/></g><g clip-path="url(#c7)"><path style="stroke-width:1.07;stroke:none;fill:#EBEBEB" d="M390.94 5.48h304.25v130.56H390.94z"/><path style="stroke-width:0.53;stroke:#FFFFFF;stroke-linecap:butt" d="M390.94 111.18h304.25M390.94 73.33h304.25M390.94 35.48h304.25M412.09 136.04V5.48M475.36 136.04V5.48M538.63 136.04V5.48M601.9 136.04V5.48M665.17 136.04V5.48"/><path style="stroke-width:1.07;stroke:#FFFFFF;stroke-linecap:butt" d="M390.94 130.11h304.25M390.94 92.26h304.25M390.94 54.41h304.25M390.94 16.55h304.25M443.72 136.04V5.48M506.99 136.04V5.48M570.26 136.04V5.48M633.54 136.04V5.48"/><path style="stroke-width:0.43;stroke-linecap:square;stroke-linejoin:miter;fill:#0000FF;fill-opacity:0.20" d="M404.77 128.28h9.22v1.83h-9.22zM413.99 120.98h9.22v9.13h-9.22z"/><path style="stroke-width:0.43;stroke-linecap:square;stroke-linejoin:miter;fill:#0000FF;fill-opacity:0.20" d="M423.21 106.37h9.22v23.74h-9.22zM432.43 86.28h9.22v43.83h-9.22z"/><path style="stroke-width:0.43;stroke-linecap:square;stroke-linejoin:miter;fill:#0000FF;fill-opacity:0.20" d="M441.65 86.28h9.22v43.83h-9.22zM450.87 57.07h9.22v73.04h-9.22z"/><path style="stroke-width:0.43;stroke-linecap:square;stroke-linejoin:miter;fill:#0000FF;fill-opacity:0.20" d="M460.09 13.24h9.22v116.87h-9.22z"/><path style="stroke-width:0.43;stroke-linecap:square;stroke-linejoin:miter;fill:#0000FF;fill-opacity:0.20" d="M469.3 24.2h9.22v105.91h-9.22z"/><path style="stroke-width:0.43;stroke-linecap:square;stroke-linejoin:miter;fill:#0000FF;fill-opacity:0.20" d="M478.52 11.41h9.22V130.1h-9.22zM487.74 36.98h9.22v93.13h-9.22z"/><path style="stroke-width:0.43;stroke-linecap:square;stroke-linejoin:miter;fill:#0000FF;fill-opacity:0.20" d="M496.96 51.59h9.22v78.52h-9.22z"/><path style="stroke-width:0.43;stroke-linecap:square;stroke-linejoin:miter;fill:#0000FF;fill-opacity:0.20" d="M506.18 71.67h9.22v58.43h-9.22zM515.4 88.11h9.22v42h-9.22zM524.62 106.37h9.22v23.74h-9.22zM533.84 100.89h9.22v29.22h-9.22z"/><path style="stroke-width:0.43;stroke-linecap:square;stroke-linejoin:miter;fill:#0000FF;fill-opacity:0.20" d="M543.06 99.07h9.22v31.04h-9.22zM552.28 97.24h9.22v32.87h-9.22zM561.5 99.07h9.22v31.04h-9.22zM570.72 91.76h9.22v38.35h-9.22zM579.94 119.15h9.22v10.96h-9.22z"/><path style="stroke-width:0.43;stroke-linecap:square;stroke-linejoin:miter;fill:#0000FF;fill-opacity:0.20" d="M589.16 120.98h9.22v9.13h-9.22zM598.38 128.28h9.22v1.83h-9.22zM607.6 120.98h9.22v9.13h-9.22zM616.82 128.28h9.22v1.83h-9.22z"/><path style="stroke-width:0.43;stroke-linecap:square;stroke-linejoin:miter;fill:#0000FF;fill-opacity:0.20" d="M626.04 128.28h9.22v1.83h-9.22zM635.26 126.46h9.22v3.65h-9.22zM653.7 128.28h9.22v1.83h-9.22z"/><path style="stroke-width:0.43;stroke-linecap:square;stroke-linejoin:miter;fill:#0000FF;fill-opacity:0.20" d="M662.92 128.28h9.22v1.83h-9.22zM672.14 128.28h9.22v1.83h-9.22z"/><path style="stroke-width:0.00;stroke:none" d="M405.52 127.02l.52-.2.53-.2.52-.22.52-.22.53-.24.52-.24.52-.26.53-.27.52-.28.52-.3.52-.3.53-.32.52-.34.52-.35.53-.36.52-.38.52-.39.53-.41.52-.43.52-.44.53-.46.52-.47.52-.5.53-.5.52-.53.52-.54.53-.56.52-.58.52-.59.53-.61.52-.63.52-.64.53-.66.52-.67.52-.69.53-.71.52-.71.52-.73.53-.74.52-.76.52-.77.52-.77.53-.78.52-.8.52-.8.53-.81.52-.81.52-.82.53-.82.52-.83.52-.83.53-.83.52-.84.52-.84.53-.84.52-.84.52-.84.53-.84.52-.85.52-.85.53-.85.52-.86.52-.86.53-.87.52-.87.52-.88.53-.89.52-.91.52-.91.53-.93.52-.95.52-.96.53-.98.52-1 .52-1.03.52-1.05.53-1.07.52-1.1.52-1.13.53-1.15.52-1.19.52-1.21.53-1.24.52-1.27.52-1.3.53-1.33.52-1.35.52-1.37.53-1.41.52-1.42.52-1.43.53-1.46.52-1.47.52-1.47.53-1.49.52-1.49.52-1.48.53-1.48.52-1.48.52-1.46.53-1.45.52-1.43.52-1.4.53-1.38.52-1.35.52-1.31.52-1.28.53-1.24.52-1.21.52-1.15.53-1.11.52-1.06.52-1.01.53-.97.52-.91.52-.85.53-.81.52-.76.52-.7.53-.65.52-.6.52-.55.53-.5.52-.44.52-.39.53-.35.52-.31.52-.25.53-.21.52-.16.52-.13.53-.08.52-.04.52.01.53.04.52.07.52.13.53.16.52.19.52.23.52.26.53.31.52.34.52.37.53.4.52.45.52.47.53.51.52.53.52.57.53.61.52.63.52.65.53.69.52.71.52.74.53.76.52.79.52.81.53.82.52.85.52.86.53.88.52.9.52.91.53.92.52.93.52.95.53.95.52.96.52.96.52.97.53.98.52.98.52.99.53.99.52.99.52.99.53 1 .52 1 .52 1.01.53 1.01.52 1.01.52 1.01.53 1.02.52 1.02.52 1.02.53 1.03.52 1.03.52 1.03.53 1.04.52 1.04.52 1.04.53 1.04.52 1.05.52 1.05.53 1.04.52 1.05.52 1.04.53 1.04.52 1.04.52 1.03.53 1.02.52 1.02.52 1.01.52 1 .53.98.52.97.52.96.53.94.52.93.52.9.53.89.52.86.52.85.53.82.52.8.52.77.53.75.52.73.52.69.53.67.52.64.52.62.53.59.52.56.52.53.53.51.52.49.52.45.53.43.52.4.52.38.53.35.52.32.52.31.52.28.53.26.52.24.52.22.53.2.52.18.52.16.53.15.52.13.52.12.53.1.52.09.52.08.53.07.52.06.52.05.53.04.52.03.52.03.53.02.52.02.52.01.53.01h1.57l.52-.01.52-.01.53-.02.52-.01.52-.02.53-.02.52-.03.52-.03.52-.03.53-.04.52-.03.52-.05.53-.04.52-.05.52-.05.53-.05.52-.06.52-.06.53-.06.52-.07.52-.07.53-.07.52-.07.52-.07.53-.07.52-.07.52-.07.53-.06.52-.07.52-.06.53-.05.52-.05.52-.05.53-.04.52-.03.52-.02.53-.01h.52l.52.01.52.02.53.03.52.05.52.06.53.08.52.1.52.1.53.13.52.14.52.17.53.18.52.19.52.22.53.24.52.25.52.28.53.29.52.31.52.33.53.35.52.37.52.39.53.4.52.42.52.43.53.45.52.47.52.47.53.49.52.5.52.52.53.52.52.52.52.54.52.54.53.54.52.55.52.55.53.55.52.54.52.55.53.54.52.54.52.54.53.52.52.52.52.52.53.5.52.49.52.48.53.47.52.46.52.44.53.44.52.42.52.4.53.39.52.38.52.36.53.35.52.33.52.31.53.3.52.29.52.27.52.26.53.24.52.22.52.22.53.2.52.18.52.17.53.16.52.15.52.14.53.12.52.12.52.11.53.09.52.09.52.08.53.08.52.07.52.06.53.06.52.06.52.05.53.05.52.05.52.05.53.05.52.05.52.04.53.05.52.05.52.05.52.06.53.05.52.06.52.05.53.06.52.06.52.07.53.06.52.07.52.06.53.07.52.06.52.07.53.07.52.07.52.06.53.07.52.06.52.07.53.06.52.06.52.06.53.06.52.06.52.05.53.06.52.05.52.05.53.04.52.05.52.05.53.04.52.04.52.05.52.04.53.04.52.04.52.04.53.03.52.04.52.04.53.04.52.04.52.03.53.04.52.04.52.04.53.04.52.03.52.04.53.04.52.04.52.03.53.04.52.04.52.03.53.04.52.03.52.03.53.03.52.03.52.03.53.03.52.02.52.02.52.02.53.01.52.02.52.01h.53l.52.01h1.05l.52-.01h.52l.53-.01.52-.01.52-.02.53-.01.52-.02.52-.02.53-.02.52-.03.52-.02.53-.02.52-.03.52-.02.53-.02.52-.03.52-.02.53-.02.52-.01.52-.02.53-.01.52-.02h.52l.53-.01h1.56l.53.01.52.01.52.01.53.02.52.02.52.02.53.03.52.03.52.03.53.03.52.04.52.04.53.04.52.05v1.51H405.52z"/><path style="stroke-width:1.07" d="M405.52 127.02l.52-.2.53-.2.52-.22.52-.22.53-.24.52-.24.52-.26.53-.27.52-.28.52-.3.52-.3.53-.32.52-.34.52-.35.53-.36.52-.38.52-.39.53-.41.52-.43.52-.44.53-.46.52-.47.52-.5.53-.5.52-.53.52-.54.53-.56.52-.58.52-.59.53-.61.52-.63.52-.64.53-.66.52-.67.52-.69.53-.71.52-.71.52-.73.53-.74.52-.76.52-.77.52-.77.53-.78.52-.8.52-.8.53-.81.52-.81.52-.82.53-.82.52-.83.52-.83.53-.83.52-.84.52-.84.53-.84.52-.84.52-.84.53-.84.52-.85.52-.85.53-.85.52-.86.52-.86.53-.87.52-.87.52-.88.53-.89.52-.91.52-.91.53-.93.52-.95.52-.96.53-.98.52-1 .52-1.03.52-1.05.53-1.07.52-1.1.52-1.13.53-1.15.52-1.19.52-1.21.53-1.24.52-1.27.52-1.3.53-1.33.52-1.35.52-1.37.53-1.41.52-1.42.52-1.43.53-1.46.52-1.47.52-1.47.53-1.49.52-1.49.52-1.48.53-1.48.52-1.48.52-1.46.53-1.45.52-1.43.52-1.4.53-1.38.52-1.35.52-1.31.52-1.28.53-1.24.52-1.21.52-1.15.53-1.11.52-1.06.52-1.01.53-.97.52-.91.52-.85.53-.81.52-.76.52-.7.53-.65.52-.6.52-.55.53-.5.52-.44.52-.39.53-.35.52-.31.52-.25.53-.21.52-.16.52-.13.53-.08.52-.04.52.01.53.04.52.07.52.13.53.16.52.19.52.23.52.26.53.31.52.34.52.37.53.4.52.45.52.47.53.51.52.53.52.57.53.61.52.63.52.65.53.69.52.71.52.74.53.76.52.79.52.81.53.82.52.85.52.86.53.88.52.9.52.91.53.92.52.93.52.95.53.95.52.96.52.96.52.97.53.98.52.98.52.99.53.99.52.99.52.99.53 1 .52 1 .52 1.01.53 1.01.52 1.01.52 1.01.53 1.02.52 1.02.52 1.02.53 1.03.52 1.03.52 1.03.53 1.04.52 1.04.52 1.04.53 1.04.52 1.05.52 1.05.53 1.04.52 1.05.52 1.04.53 1.04.52 1.04.52 1.03.53 1.02.52 1.02.52 1.01.52 1 .53.98.52.97.52.96.53.94.52.93.52.9.53.89.52.86.52.85.53.82.52.8.52.77.53.75.52.73.52.69.53.67.52.64.52.62.53.59.52.56.52.53.53.51.52.49.52.45.53.43.52.4.52.38.53.35.52.32.52.31.52.28.53.26.52.24.52.22.53.2.52.18.52.16.53.15.52.13.52.12.53.1.52.09.52.08.53.07.52.06.52.05.53.04.52.03.52.03.53.02.52.02.52.01.53.01h1.57l.52-.01.52-.01.53-.02.52-.01.52-.02.53-.02.52-.03.52-.03.52-.03.53-.04.52-.03.52-.05.53-.04.52-.05.52-.05.53-.05.52-.06.52-.06.53-.06.52-.07.52-.07.53-.07.52-.07.52-.07.53-.07.52-.07.52-.07.53-.06.52-.07.52-.06.53-.05.52-.05.52-.05.53-.04.52-.03.52-.02.53-.01h.52l.52.01.52.02.53.03.52.05.52.06.53.08.52.1.52.1.53.13.52.14.52.17.53.18.52.19.52.22.53.24.52.25.52.28.53.29.52.31.52.33.53.35.52.37.52.39.53.4.52.42.52.43.53.45.52.47.52.47.53.49.52.5.52.52.53.52.52.52.52.54.52.54.53.54.52.55.52.55.53.55.52.54.52.55.53.54.52.54.52.54.53.52.52.52.52.52.53.5.52.49.52.48.53.47.52.46.52.44.53.44.52.42.52.4.53.39.52.38.52.36.53.35.52.33.52.31.53.3.52.29.52.27.52.26.53.24.52.22.52.22.53.2.52.18.52.17.53.16.52.15.52.14.53.12.52.12.52.11.53.09.52.09.52.08.53.08.52.07.52.06.53.06.52.06.52.05.53.05.52.05.52.05.53.05.52.05.52.04.53.05.52.05.52.05.52.06.53.05.52.06.52.05.53.06.52.06.52.07.53.06.52.07.52.06.53.07.52.06.52.07.53.07.52.07.52.06.53.07.52.06.52.07.53.06.52.06.52.06.53.06.52.06.52.05.53.06.52.05.52.05.53.04.52.05.52.05.53.04.52.04.52.05.52.04.53.04.52.04.52.04.53.03.52.04.52.04.53.04.52.04.52.03.53.04.52.04.52.04.53.04.52.03.52.04.53.04.52.04.52.03.53.04.52.04.52.03.53.04.52.03.52.03.53.03.52.03.52.03.53.03.52.02.52.02.52.02.53.01.52.02.52.01h.53l.52.01h1.05l.52-.01h.52l.53-.01.52-.01.52-.02.53-.01.52-.02.52-.02.53-.02.52-.03.52-.02.53-.02.52-.03.52-.02.53-.02.52-.03.52-.02.53-.02.52-.01.52-.02.53-.01.52-.02h.52l.53-.01h1.56l.53.01.52.01.52.01.53.02.52.02.52.02.53.03.52.03.52.03.53.03.52.04.52.04.53.04.52.05"/></g><g clip-path="url(#c8)"><text x="386.01" y="133.26" text-anchor="end" style="font-family:Arial;font-size:8.80px;fill:#4D4D4D" textLength="17.13" lengthAdjust="spacingAndGlyphs">0.00</text><text x="386.01" y="95.41" text-anchor="end" style="font-family:Arial;font-size:8.80px;fill:#4D4D4D" textLength="17.13" lengthAdjust="spacingAndGlyphs">0.05</text><text x="386.01" y="57.56" text-anchor="end" style="font-family:Arial;font-size:8.80px;fill:#4D4D4D" textLength="17.13" lengthAdjust="spacingAndGlyphs">0.10</text><text x="386.01" y="19.71" text-anchor="end" style="font-family:Arial;font-size:8.80px;fill:#4D4D4D" textLength="17.13" lengthAdjust="spacingAndGlyphs">0.15</text><path style="stroke-width:1.07;stroke:#333333;stroke-linecap:butt" d="M388.2 130.11h2.74M388.2 92.26h2.74M388.2 54.41h2.74M388.2 16.55h2.74M443.72 138.78v-2.74M506.99 138.78v-2.74M570.26 138.78v-2.74M633.54 138.78v-2.74"/><text x="443.72" y="147.28" text-anchor="middle" style="font-family:Arial;font-size:8.80px;fill:#4D4D4D" textLength="9.79" lengthAdjust="spacingAndGlyphs">10</text><text x="506.99" y="147.28" text-anchor="middle" style="font-family:Arial;font-size:8.80px;fill:#4D4D4D" textLength="9.79" lengthAdjust="spacingAndGlyphs">15</text><text x="570.26" y="147.28" text-anchor="middle" style="font-family:Arial;font-size:8.80px;fill:#4D4D4D" textLength="9.79" lengthAdjust="spacingAndGlyphs">20</text><text x="633.54" y="147.28" text-anchor="middle" style="font-family:Arial;font-size:8.80px;fill:#4D4D4D" textLength="9.79" lengthAdjust="spacingAndGlyphs">25</text><text x="543.06" y="159.86" text-anchor="middle" style="font-family:Arial;font-size:11.00px" textLength="63.61" lengthAdjust="spacingAndGlyphs">mean_radius</text><text transform="rotate(-90 217.23 -146.47)" text-anchor="middle" style="font-family:Arial;font-size:11.00px" textLength="34.86" lengthAdjust="spacingAndGlyphs">density</text></g><g clip-path="url(#c9)"><path style="stroke-width:1.07;stroke:#FFFFFF;fill:#FFFFFF" d="M0 167.78h350.33v167.78H0z"/></g><g clip-path="url(#c11)"><path style="stroke-width:1.07;stroke:none;fill:#EBEBEB" d="M45.5 173.26h299.35v130.56H45.5z"/><path style="stroke-width:0.53;stroke:#FFFFFF;stroke-linecap:butt" d="M45.5 283.54h299.35M45.5 254.85h299.35M45.5 226.15h299.35M45.5 197.46h299.35M106.38 303.82V173.26M195.34 303.82V173.26M284.31 303.82V173.26"/><path style="stroke-width:1.07;stroke:#FFFFFF;stroke-linecap:butt" d="M45.5 297.89h299.35M45.5 269.19h299.35M45.5 240.5h299.35M45.5 211.81h299.35M45.5 183.11h299.35M61.89 303.82V173.26M150.86 303.82V173.26M239.82 303.82V173.26M328.79 303.82V173.26"/><path style="stroke-width:0.43;stroke-linecap:square;stroke-linejoin:miter;fill:#0000FF;fill-opacity:0.20" d="M59.11 293.93h9.07v3.96h-9.07zM68.18 286.02h9.07v11.87h-9.07zM77.25 276.13h9.07v21.76h-9.07zM86.32 244.47h9.07v53.41h-9.07zM95.39 232.6h9.07v65.28h-9.07z"/><path style="stroke-width:0.43;stroke-linecap:square;stroke-linejoin:miter;fill:#0000FF;fill-opacity:0.20" d="M104.46 204.91h9.07v92.98h-9.07zM113.54 214.8h9.07v83.09h-9.07z"/><path style="stroke-width:0.43;stroke-linecap:square;stroke-linejoin:miter;fill:#0000FF;fill-opacity:0.20" d="M122.61 185.13h9.07v112.76h-9.07zM131.68 179.19h9.07v118.69h-9.07zM140.75 193.04h9.07v104.85h-9.07zM149.82 202.93h9.07v94.96h-9.07zM158.89 200.95h9.07v96.93h-9.07zM167.96 236.56h9.07v61.33h-9.07zM177.03 250.41h9.07v47.48h-9.07zM186.11 256.34h9.07v41.54h-9.07zM195.18 266.23h9.07v31.65h-9.07zM204.25 278.1h9.07v19.78h-9.07zM213.32 278.1h9.07v19.78h-9.07zM222.39 280.08h9.07v17.8h-9.07zM231.46 286.02h9.07v11.87h-9.07zM240.53 293.93h9.07v3.96h-9.07zM249.61 295.91h9.07v1.98h-9.07zM258.68 295.91h9.07v1.98h-9.07zM267.75 293.93h9.07v3.96h-9.07zM322.18 295.91h9.07v1.98h-9.07z"/><path style="stroke-width:0.00;stroke:none" d="M59.31 293.46l.52-.26.51-.27.52-.27.51-.29.52-.29.51-.3.52-.31.51-.32.52-.33.51-.34.52-.35.51-.36.52-.37.51-.39.52-.4.51-.41.52-.42.51-.44.52-.46.51-.47.52-.49.51-.51.51-.53.52-.55.51-.57.52-.59.51-.61.52-.64.51-.67.52-.68.51-.71.52-.74.51-.77.52-.79.51-.81.52-.83.51-.87.52-.88.51-.91.52-.93.51-.95.52-.97.51-.98.52-1.01.51-1.01.52-1.04.51-1.04.52-1.05.51-1.06.51-1.07.52-1.07.51-1.08.52-1.08.51-1.08.52-1.08.51-1.08.52-1.08.51-1.08.52-1.07.51-1.07.52-1.06.51-1.06.52-1.06.51-1.05.52-1.05.51-1.04.52-1.04.51-1.04.52-1.03.51-1.03.52-1.02.51-1.03.52-1.02.51-1.02.52-1.02.51-1.02.51-1.01.52-1.01.51-1.01.52-1.01.51-1.01.52-1 .51-1 .52-.99.51-.99.52-.98.51-.97.52-.97.51-.95.52-.95.51-.94.52-.92.51-.91.52-.9.51-.88.52-.87.51-.86.52-.84.51-.82.52-.81.51-.79.52-.78.51-.76.51-.75.52-.73.51-.72.52-.7.51-.69.52-.68.51-.66.52-.66.51-.64.52-.63.51-.62.52-.61.51-.61.52-.59.51-.58.52-.58.51-.57.52-.56.51-.55.52-.54.51-.53.52-.53.51-.51.52-.5.51-.49.51-.48.52-.46.51-.45.52-.43.51-.41.52-.4.51-.38.52-.36.51-.33.52-.32.51-.29.52-.26.51-.24.52-.21.51-.19.52-.16.51-.12.52-.09.51-.07.52-.04h.51l.52.03.51.05.52.09.51.12.52.15.51.18.51.2.52.23.51.26.52.29.51.31.52.33.51.35.52.38.51.39.52.4.51.42.52.44.51.45.52.46.51.46.52.47.51.48.52.49.51.48.52.49.51.49.52.49.51.49.52.49.51.49.52.48.51.49.51.48.52.48.51.49.52.48.51.49.52.49.51.49.52.5.51.51.52.51.51.53.52.54.51.56.52.57.51.59.52.61.51.64.52.65.51.68.52.71.51.74.52.76.51.8.52.82.51.85.51.88.52.91.51.94.52.96.51.99.52 1.02.51 1.03.52 1.05.51 1.07.52 1.08.51 1.09.52 1.1.51 1.11.52 1.11.51 1.1.52 1.1.51 1.1.52 1.08.51 1.06.52 1.05.51 1.04.52 1.01.51.99.52.96.51.94.52.91.51.88.51.85.52.83.51.79.52.77.51.74.52.71.51.69.52.66.51.64.52.62.51.6.52.58.51.57.52.56.51.54.52.54.51.53.52.53.51.52.52.53.51.53.52.52.51.54.52.53.51.55.52.54.51.56.51.56.52.57.51.57.52.58.51.59.52.58.51.59.52.59.51.59.52.59.51.58.52.58.51.57.52.56.51.55.52.53.51.53.52.5.51.49.52.48.51.45.52.44.51.41.52.39.51.37.52.36.51.33.51.31.52.29.51.27.52.26.51.23.52.23.51.21.52.19.51.18.52.18.51.16.52.16.51.16.52.15.51.15.52.14.51.15.52.15.51.16.52.16.51.16.52.18.51.18.52.18.51.2.51.2.52.22.51.22.52.23.51.24.52.25.51.26.52.27.51.28.52.28.51.29.52.3.51.3.52.3.51.32.52.31.51.32.52.32.51.32.52.32.51.32.52.32.51.32.52.32.51.32.52.31.51.31.51.31.52.3.51.3.52.3.51.29.52.29.51.28.52.28.51.27.52.26.51.27.52.25.51.25.52.25.51.24.52.24.51.23.52.22.51.22.52.22.51.21.52.2.51.2.52.19.51.19.52.18.51.18.51.17.52.17.51.16.52.15.51.15.52.14.51.14.52.13.51.12.52.12.51.11.52.11.51.09.52.1.51.08.52.08.51.08.52.07.51.06.52.06.51.05.52.05.51.04.52.04.51.03.51.03.52.03.51.02.52.02.51.02.52.01.51.02.52.01.51.02.52.01.51.01.52.01.51.02.52.01.51.02.52.02.51.02.52.02.51.03.52.02.51.03.52.04.51.03.52.04.51.04.52.04.51.05.51.05.52.05.51.05.52.06.51.05.52.06.51.06.52.06.51.06.52.06.51.06.52.06.51.06.52.06.51.05.52.06.51.06.52.05.51.05.52.05.51.05.52.05.51.04.52.04.51.04.52.04.51.03.51.04.52.03.51.03.52.02.51.03.52.02.51.02.52.02.51.01.52.02.51.01.52.01.51.01.52.01h.51l.52.01h.51l.52.01h1.54l.52-.01h1.03l.51-.01.52-.01h.51l.51-.01.52-.01.51-.01.52-.02.51-.01.52-.01.51-.02.52-.02.51-.01.52-.02.51-.02.52-.02.51-.02.52-.03.51-.02.52-.02.51-.03.52-.02.51-.03.52-.02.51-.03.52-.02.51-.03.52-.02.51-.02.51-.02.52-.03.51-.02.52-.01.51-.02.52-.02.51-.01.52-.01.51-.01.52-.01h.51l.52-.01h.51v.76H59.31z"/><path style="stroke-width:1.07" d="M59.31 293.46l.52-.26.51-.27.52-.27.51-.29.52-.29.51-.3.52-.31.51-.32.52-.33.51-.34.52-.35.51-.36.52-.37.51-.39.52-.4.51-.41.52-.42.51-.44.52-.46.51-.47.52-.49.51-.51.51-.53.52-.55.51-.57.52-.59.51-.61.52-.64.51-.67.52-.68.51-.71.52-.74.51-.77.52-.79.51-.81.52-.83.51-.87.52-.88.51-.91.52-.93.51-.95.52-.97.51-.98.52-1.01.51-1.01.52-1.04.51-1.04.52-1.05.51-1.06.51-1.07.52-1.07.51-1.08.52-1.08.51-1.08.52-1.08.51-1.08.52-1.08.51-1.08.52-1.07.51-1.07.52-1.06.51-1.06.52-1.06.51-1.05.52-1.05.51-1.04.52-1.04.51-1.04.52-1.03.51-1.03.52-1.02.51-1.03.52-1.02.51-1.02.52-1.02.51-1.02.51-1.01.52-1.01.51-1.01.52-1.01.51-1.01.52-1 .51-1 .52-.99.51-.99.52-.98.51-.97.52-.97.51-.95.52-.95.51-.94.52-.92.51-.91.52-.9.51-.88.52-.87.51-.86.52-.84.51-.82.52-.81.51-.79.52-.78.51-.76.51-.75.52-.73.51-.72.52-.7.51-.69.52-.68.51-.66.52-.66.51-.64.52-.63.51-.62.52-.61.51-.61.52-.59.51-.58.52-.58.51-.57.52-.56.51-.55.52-.54.51-.53.52-.53.51-.51.52-.5.51-.49.51-.48.52-.46.51-.45.52-.43.51-.41.52-.4.51-.38.52-.36.51-.33.52-.32.51-.29.52-.26.51-.24.52-.21.51-.19.52-.16.51-.12.52-.09.51-.07.52-.04h.51l.52.03.51.05.52.09.51.12.52.15.51.18.51.2.52.23.51.26.52.29.51.31.52.33.51.35.52.38.51.39.52.4.51.42.52.44.51.45.52.46.51.46.52.47.51.48.52.49.51.48.52.49.51.49.52.49.51.49.52.49.51.49.52.48.51.49.51.48.52.48.51.49.52.48.51.49.52.49.51.49.52.5.51.51.52.51.51.53.52.54.51.56.52.57.51.59.52.61.51.64.52.65.51.68.52.71.51.74.52.76.51.8.52.82.51.85.51.88.52.91.51.94.52.96.51.99.52 1.02.51 1.03.52 1.05.51 1.07.52 1.08.51 1.09.52 1.1.51 1.11.52 1.11.51 1.1.52 1.1.51 1.1.52 1.08.51 1.06.52 1.05.51 1.04.52 1.01.51.99.52.96.51.94.52.91.51.88.51.85.52.83.51.79.52.77.51.74.52.71.51.69.52.66.51.64.52.62.51.6.52.58.51.57.52.56.51.54.52.54.51.53.52.53.51.52.52.53.51.53.52.52.51.54.52.53.51.55.52.54.51.56.51.56.52.57.51.57.52.58.51.59.52.58.51.59.52.59.51.59.52.59.51.58.52.58.51.57.52.56.51.55.52.53.51.53.52.5.51.49.52.48.51.45.52.44.51.41.52.39.51.37.52.36.51.33.51.31.52.29.51.27.52.26.51.23.52.23.51.21.52.19.51.18.52.18.51.16.52.16.51.16.52.15.51.15.52.14.51.15.52.15.51.16.52.16.51.16.52.18.51.18.52.18.51.2.51.2.52.22.51.22.52.23.51.24.52.25.51.26.52.27.51.28.52.28.51.29.52.3.51.3.52.3.51.32.52.31.51.32.52.32.51.32.52.32.51.32.52.32.51.32.52.32.51.32.52.31.51.31.51.31.52.3.51.3.52.3.51.29.52.29.51.28.52.28.51.27.52.26.51.27.52.25.51.25.52.25.51.24.52.24.51.23.52.22.51.22.52.22.51.21.52.2.51.2.52.19.51.19.52.18.51.18.51.17.52.17.51.16.52.15.51.15.52.14.51.14.52.13.51.12.52.12.51.11.52.11.51.09.52.1.51.08.52.08.51.08.52.07.51.06.52.06.51.05.52.05.51.04.52.04.51.03.51.03.52.03.51.02.52.02.51.02.52.01.51.02.52.01.51.02.52.01.51.01.52.01.51.02.52.01.51.02.52.02.51.02.52.02.51.03.52.02.51.03.52.04.51.03.52.04.51.04.52.04.51.05.51.05.52.05.51.05.52.06.51.05.52.06.51.06.52.06.51.06.52.06.51.06.52.06.51.06.52.06.51.05.52.06.51.06.52.05.51.05.52.05.51.05.52.05.51.04.52.04.51.04.52.04.51.03.51.04.52.03.51.03.52.02.51.03.52.02.51.02.52.02.51.01.52.02.51.01.52.01.51.01.52.01h.51l.52.01h.51l.52.01h1.54l.52-.01h1.03l.51-.01.52-.01h.51l.51-.01.52-.01.51-.01.52-.02.51-.01.52-.01.51-.02.52-.02.51-.01.52-.02.51-.02.52-.02.51-.02.52-.03.51-.02.52-.02.51-.03.52-.02.51-.03.52-.02.51-.03.52-.02.51-.03.52-.02.51-.02.51-.02.52-.03.51-.02.52-.01.51-.02.52-.02.51-.01.52-.01.51-.01.52-.01h.51l.52-.01h.51"/></g><g clip-path="url(#c12)"><text x="40.57" y="301.04" text-anchor="end" style="font-family:Arial;font-size:8.80px;fill:#4D4D4D" textLength="22.02" lengthAdjust="spacingAndGlyphs">0.000</text><text x="40.57" y="272.35" text-anchor="end" style="font-family:Arial;font-size:8.80px;fill:#4D4D4D" textLength="22.02" lengthAdjust="spacingAndGlyphs">0.025</text><text x="40.57" y="243.65" text-anchor="end" style="font-family:Arial;font-size:8.80px;fill:#4D4D4D" textLength="22.02" lengthAdjust="spacingAndGlyphs">0.050</text><text x="40.57" y="214.96" text-anchor="end" style="font-family:Arial;font-size:8.80px;fill:#4D4D4D" textLength="22.02" lengthAdjust="spacingAndGlyphs">0.075</text><text x="40.57" y="186.27" text-anchor="end" style="font-family:Arial;font-size:8.80px;fill:#4D4D4D" textLength="22.02" lengthAdjust="spacingAndGlyphs">0.100</text><path style="stroke-width:1.07;stroke:#333333;stroke-linecap:butt" d="M42.76 297.89h2.74M42.76 269.19h2.74M42.76 240.5h2.74M42.76 211.81h2.74M42.76 183.11h2.74M61.89 306.56v-2.74M150.86 306.56v-2.74M239.82 306.56v-2.74M328.79 306.56v-2.74"/><text x="61.89" y="315.06" text-anchor="middle" style="font-family:Arial;font-size:8.80px;fill:#4D4D4D" textLength="9.79" lengthAdjust="spacingAndGlyphs">10</text><text x="150.86" y="315.06" text-anchor="middle" style="font-family:Arial;font-size:8.80px;fill:#4D4D4D" textLength="9.79" lengthAdjust="spacingAndGlyphs">20</text><text x="239.82" y="315.06" text-anchor="middle" style="font-family:Arial;font-size:8.80px;fill:#4D4D4D" textLength="9.79" lengthAdjust="spacingAndGlyphs">30</text><text x="328.79" y="315.06" text-anchor="middle" style="font-family:Arial;font-size:8.80px;fill:#4D4D4D" textLength="9.79" lengthAdjust="spacingAndGlyphs">40</text><text x="195.18" y="327.64" text-anchor="middle" style="font-family:Arial;font-size:11.00px" textLength="67.28" lengthAdjust="spacingAndGlyphs">mean_texture</text><text transform="rotate(-90 125.955 112.585)" text-anchor="middle" style="font-family:Arial;font-size:11.00px" textLength="34.86" lengthAdjust="spacingAndGlyphs">density</text></g><g clip-path="url(#c13)"><path style="stroke-width:1.07;stroke:#FFFFFF;fill:#FFFFFF" d="M350.33 167.78h350.33v167.78H350.33z"/></g><g clip-path="url(#c15)"><path style="stroke-width:1.07;stroke:none;fill:#EBEBEB" d="M383.6 173.26h311.59v130.56H383.6z"/><path style="stroke-width:0.53;stroke:#FFFFFF;stroke-linecap:butt" d="M383.6 279.19h311.59M383.6 241.81h311.59M383.6 204.42h311.59M424.79 303.82V173.26M486.59 303.82V173.26M548.39 303.82V173.26M610.19 303.82V173.26M671.99 303.82V173.26"/><path style="stroke-width:1.07;stroke:#FFFFFF;stroke-linecap:butt" d="M383.6 297.89h311.59M383.6 260.5h311.59M383.6 223.11h311.59M383.6 185.73h311.59M393.89 303.82V173.26M455.69 303.82V173.26M517.49 303.82V173.26M579.29 303.82V173.26M641.09 303.82V173.26"/><path style="stroke-width:0.43;stroke-linecap:square;stroke-linejoin:miter;fill:#0000FF;fill-opacity:0.20" d="M397.76 296.17h9.44v1.72h-9.44zM416.65 296.17h9.44v1.72h-9.44zM426.09 292.73h9.44v5.16h-9.44zM435.53 284.13h9.44v13.76h-9.44zM444.97 277.24h9.44v20.64h-9.44zM454.42 263.48h9.44v34.4h-9.44zM463.86 225.64h9.44v72.25h-9.44zM473.3 208.44h9.44v89.45h-9.44zM482.74 201.55h9.44v96.33h-9.44zM492.18 208.44h9.44v89.45h-9.44zM501.63 198.11h9.44v99.77h-9.44zM511.07 179.19h9.44v118.69h-9.44zM520.51 213.6h9.44v84.29h-9.44zM529.95 218.76h9.44v79.13h-9.44z"/><path style="stroke-width:0.43;stroke-linecap:square;stroke-linejoin:miter;fill:#0000FF;fill-opacity:0.20" d="M539.39 249.72h9.44v48.17h-9.44zM548.84 248h9.44v49.89h-9.44z"/><path style="stroke-width:0.43;stroke-linecap:square;stroke-linejoin:miter;fill:#0000FF;fill-opacity:0.20" d="M558.28 266.92h9.44v30.96h-9.44zM567.72 284.13h9.44v13.76h-9.44z"/><path style="stroke-width:0.43;stroke-linecap:square;stroke-linejoin:miter;fill:#0000FF;fill-opacity:0.20" d="M577.16 285.85h9.44v12.04h-9.44zM586.6 294.45h9.44v3.44h-9.44zM596.05 292.73h9.44v5.16h-9.44zM605.49 296.17h9.44v1.72h-9.44z"/><path style="stroke-width:0.43;stroke-linecap:square;stroke-linejoin:miter;fill:#0000FF;fill-opacity:0.20" d="M614.93 294.45h9.44v3.44h-9.44zM624.37 296.17h9.44v1.72h-9.44zM671.58 296.17h9.44v1.72h-9.44z"/><path style="stroke-width:0.00;stroke:none" d="M400.4 297.13h2.14l.53.01h.54l.54.01.53.01h.54l.53.01.54.01h.54l.53.01H409.51l.53-.01.54-.02.53-.01.54-.02.53-.03.54-.03.54-.04.53-.04.54-.05.53-.06.54-.06.54-.07.53-.07.54-.09.53-.09.54-.1.53-.1.54-.12.54-.12.53-.13.54-.13.53-.14.54-.16.54-.15.53-.17.54-.18.53-.18.54-.19.53-.2.54-.2.54-.22.53-.22.54-.23.53-.24.54-.25.54-.26.53-.27.54-.27.53-.29.54-.3.53-.3.54-.32.54-.32.53-.34.54-.35.53-.36.54-.37.54-.39.53-.39.54-.41.53-.42.54-.44.53-.44.54-.47.54-.47.53-.49.54-.5.53-.52.54-.53.54-.55.53-.56.54-.57.53-.59.54-.61.54-.63.53-.64.54-.66.53-.67.54-.7.53-.7.54-.73.54-.74.53-.77.54-.78.53-.8.54-.82.54-.84.53-.86.54-.88.53-.9.54-.92.53-.94.54-.97.54-.99.53-1.01.54-1.04.53-1.05.54-1.09.54-1.11.53-1.14.54-1.15.53-1.18.54-1.21.53-1.23.54-1.26.54-1.27.53-1.29.54-1.32.53-1.33.54-1.35.54-1.36.53-1.38.54-1.38.53-1.4.54-1.39.53-1.4.54-1.4.54-1.39.53-1.39.54-1.38.53-1.37.54-1.35.54-1.33.53-1.31.54-1.29.53-1.27.54-1.24.54-1.2.53-1.18.54-1.14.53-1.11.54-1.07.53-1.03.54-1 .54-.95.53-.92.54-.87.53-.84.54-.79.54-.75.53-.72.54-.66.53-.63.54-.59.53-.55.54-.51.54-.47.53-.44.54-.4.53-.37.54-.34.54-.3.53-.27.54-.24.53-.22.54-.2.53-.16.54-.15.54-.13.53-.11.54-.1.53-.08.54-.07.54-.07.53-.06.54-.05.53-.05.54-.05.53-.05.54-.06.54-.06.53-.07.54-.07.53-.09.54-.09.54-.11.53-.12.54-.13.53-.15.54-.15.54-.17.53-.18.54-.19.53-.2.54-.21.53-.21.54-.22.54-.22.53-.23.54-.22.53-.21.54-.21.54-.2.53-.19.54-.17.53-.15.54-.14.53-.11.54-.08.54-.06.53-.03.54.01.53.04.54.06.54.11.53.14.54.18.53.22.54.24.53.29.54.32.54.36.53.39.54.42.53.45.54.48.54.51.53.54.54.56.53.58.54.61.53.63.54.65.54.66.53.69.54.71.53.72.54.75.54.75.53.78.54.8.53.81.54.83.53.85.54.87.54.89.53.9.54.93.53.94.54.96.54.99.53.99.54 1.02.53 1.02.54 1.05.54 1.05.53 1.06.54 1.07.53 1.07.54 1.08.53 1.07.54 1.07.54 1.06.53 1.06.54 1.04.53 1.03.54 1.01.54.99.53.97.54.95.53.92.54.9.53.88.54.85.54.81.53.8.54.78.53.75.54.72.54.71.53.7.54.68.53.67.54.65.53.66.54.65.54.65.53.65.54.66.53.66.54.67.54.69.53.7.54.71.53.73.54.74.53.75.54.77.54.79.53.79.54.81.53.82.54.82.54.83.53.84.54.83.53.83.54.83.54.82.53.81.54.81.53.78.54.78.53.75.54.74.54.71.53.7.54.67.53.65.54.63.54.61.53.59.54.56.53.54.54.52.53.5.54.48.54.47.53.44.54.44.53.42.54.4.54.4.53.38.54.37.53.37.54.36.53.34.54.35.54.33.53.33.54.33.53.31.54.31.54.31.53.3.54.29.53.29.54.28.53.28.54.27.54.26.53.25.54.25.53.24.54.23.54.23.53.22.54.21.53.2.54.19.54.19.53.18.54.17.53.17.54.16.53.15.54.15.54.14.53.14.54.13.53.13.54.12.54.11.53.11.54.11.53.11.54.1.53.09.54.09.54.09.53.09.54.08.53.07.54.08.54.07.53.06.54.07.53.05.54.06.53.05.54.05.54.04.53.05.54.03.53.04.54.03.54.03.53.03.54.02.53.03.54.02.53.02.54.02.54.02.53.02.54.01.53.02.54.02.54.02.53.02.54.02.53.03.54.02.54.03.53.03.54.03.53.03.54.04.53.04.54.04.54.04.53.05.54.05.53.05.54.05.54.06.53.06.54.06.53.06.54.06.53.06.54.07.54.06.53.07.54.06.53.07.54.06.54.07.53.06.54.06.53.06.54.06.53.05.54.06.54.05.53.05.54.04.53.05.54.04.54.04.53.03.54.04.53.03.54.03.53.02.54.03.54.02.53.02.54.02.53.01.54.02.54.01.53.01.54.01.53.01h.54l.53.01h1.08l.53.01h.54l.53-.01h1.08l.53-.01h.54l.53-.01.54-.01.54-.01.53-.01.54-.01.53-.01.54-.01.53-.02.54-.02.54-.02.53-.01.54-.03.53-.02.54-.02.54-.02.53-.03.54-.02.53-.03.54-.03.53-.02.54-.03.54-.03.53-.03.54-.02.53-.03.54-.02.54-.02.53-.03.54-.02.53-.02.54-.01.53-.02.54-.01.54-.01h.53l.54-.01h.53v.74H400.4z"/><path style="stroke-width:1.07" d="M400.4 297.13h2.14l.53.01h.54l.54.01.53.01h.54l.53.01.54.01h.54l.53.01H409.51l.53-.01.54-.02.53-.01.54-.02.53-.03.54-.03.54-.04.53-.04.54-.05.53-.06.54-.06.54-.07.53-.07.54-.09.53-.09.54-.1.53-.1.54-.12.54-.12.53-.13.54-.13.53-.14.54-.16.54-.15.53-.17.54-.18.53-.18.54-.19.53-.2.54-.2.54-.22.53-.22.54-.23.53-.24.54-.25.54-.26.53-.27.54-.27.53-.29.54-.3.53-.3.54-.32.54-.32.53-.34.54-.35.53-.36.54-.37.54-.39.53-.39.54-.41.53-.42.54-.44.53-.44.54-.47.54-.47.53-.49.54-.5.53-.52.54-.53.54-.55.53-.56.54-.57.53-.59.54-.61.54-.63.53-.64.54-.66.53-.67.54-.7.53-.7.54-.73.54-.74.53-.77.54-.78.53-.8.54-.82.54-.84.53-.86.54-.88.53-.9.54-.92.53-.94.54-.97.54-.99.53-1.01.54-1.04.53-1.05.54-1.09.54-1.11.53-1.14.54-1.15.53-1.18.54-1.21.53-1.23.54-1.26.54-1.27.53-1.29.54-1.32.53-1.33.54-1.35.54-1.36.53-1.38.54-1.38.53-1.4.54-1.39.53-1.4.54-1.4.54-1.39.53-1.39.54-1.38.53-1.37.54-1.35.54-1.33.53-1.31.54-1.29.53-1.27.54-1.24.54-1.2.53-1.18.54-1.14.53-1.11.54-1.07.53-1.03.54-1 .54-.95.53-.92.54-.87.53-.84.54-.79.54-.75.53-.72.54-.66.53-.63.54-.59.53-.55.54-.51.54-.47.53-.44.54-.4.53-.37.54-.34.54-.3.53-.27.54-.24.53-.22.54-.2.53-.16.54-.15.54-.13.53-.11.54-.1.53-.08.54-.07.54-.07.53-.06.54-.05.53-.05.54-.05.53-.05.54-.06.54-.06.53-.07.54-.07.53-.09.54-.09.54-.11.53-.12.54-.13.53-.15.54-.15.54-.17.53-.18.54-.19.53-.2.54-.21.53-.21.54-.22.54-.22.53-.23.54-.22.53-.21.54-.21.54-.2.53-.19.54-.17.53-.15.54-.14.53-.11.54-.08.54-.06.53-.03.54.01.53.04.54.06.54.11.53.14.54.18.53.22.54.24.53.29.54.32.54.36.53.39.54.42.53.45.54.48.54.51.53.54.54.56.53.58.54.61.53.63.54.65.54.66.53.69.54.71.53.72.54.75.54.75.53.78.54.8.53.81.54.83.53.85.54.87.54.89.53.9.54.93.53.94.54.96.54.99.53.99.54 1.02.53 1.02.54 1.05.54 1.05.53 1.06.54 1.07.53 1.07.54 1.08.53 1.07.54 1.07.54 1.06.53 1.06.54 1.04.53 1.03.54 1.01.54.99.53.97.54.95.53.92.54.9.53.88.54.85.54.81.53.8.54.78.53.75.54.72.54.71.53.7.54.68.53.67.54.65.53.66.54.65.54.65.53.65.54.66.53.66.54.67.54.69.53.7.54.71.53.73.54.74.53.75.54.77.54.79.53.79.54.81.53.82.54.82.54.83.53.84.54.83.53.83.54.83.54.82.53.81.54.81.53.78.54.78.53.75.54.74.54.71.53.7.54.67.53.65.54.63.54.61.53.59.54.56.53.54.54.52.53.5.54.48.54.47.53.44.54.44.53.42.54.4.54.4.53.38.54.37.53.37.54.36.53.34.54.35.54.33.53.33.54.33.53.31.54.31.54.31.53.3.54.29.53.29.54.28.53.28.54.27.54.26.53.25.54.25.53.24.54.23.54.23.53.22.54.21.53.2.54.19.54.19.53.18.54.17.53.17.54.16.53.15.54.15.54.14.53.14.54.13.53.13.54.12.54.11.53.11.54.11.53.11.54.1.53.09.54.09.54.09.53.09.54.08.53.07.54.08.54.07.53.06.54.07.53.05.54.06.53.05.54.05.54.04.53.05.54.03.53.04.54.03.54.03.53.03.54.02.53.03.54.02.53.02.54.02.54.02.53.02.54.01.53.02.54.02.54.02.53.02.54.02.53.03.54.02.54.03.53.03.54.03.53.03.54.04.53.04.54.04.54.04.53.05.54.05.53.05.54.05.54.06.53.06.54.06.53.06.54.06.53.06.54.07.54.06.53.07.54.06.53.07.54.06.54.07.53.06.54.06.53.06.54.06.53.05.54.06.54.05.53.05.54.04.53.05.54.04.54.04.53.03.54.04.53.03.54.03.53.02.54.03.54.02.53.02.54.02.53.01.54.02.54.01.53.01.54.01.53.01h.54l.53.01h1.08l.53.01h.54l.53-.01h1.08l.53-.01h.54l.53-.01.54-.01.54-.01.53-.01.54-.01.53-.01.54-.01.53-.02.54-.02.54-.02.53-.01.54-.03.53-.02.54-.02.54-.02.53-.03.54-.02.53-.03.54-.03.53-.02.54-.03.54-.03.53-.03.54-.02.53-.03.54-.02.54-.02.53-.03.54-.02.53-.02.54-.01.53-.02.54-.01.54-.01h.53l.54-.01h.53"/></g><g clip-path="url(#c16)"><text x="378.67" y="301.04" text-anchor="end" style="font-family:Arial;font-size:8.80px;fill:#4D4D4D" textLength="4.9" lengthAdjust="spacingAndGlyphs">0</text><text x="378.67" y="263.65" text-anchor="end" style="font-family:Arial;font-size:8.80px;fill:#4D4D4D" textLength="9.79" lengthAdjust="spacingAndGlyphs">10</text><text x="378.67" y="226.27" text-anchor="end" style="font-family:Arial;font-size:8.80px;fill:#4D4D4D" textLength="9.79" lengthAdjust="spacingAndGlyphs">20</text><text x="378.67" y="188.88" text-anchor="end" style="font-family:Arial;font-size:8.80px;fill:#4D4D4D" textLength="9.79" lengthAdjust="spacingAndGlyphs">30</text><path style="stroke-width:1.07;stroke:#333333;stroke-linecap:butt" d="M380.86 297.89h2.74M380.86 260.5h2.74M380.86 223.11h2.74M380.86 185.73h2.74M393.89 306.56v-2.74M455.69 306.56v-2.74M517.49 306.56v-2.74M579.29 306.56v-2.74M641.09 306.56v-2.74"/><text x="393.89" y="315.06" text-anchor="middle" style="font-family:Arial;font-size:8.80px;fill:#4D4D4D" textLength="22.02" lengthAdjust="spacingAndGlyphs">0.050</text><text x="455.69" y="315.06" text-anchor="middle" style="font-family:Arial;font-size:8.80px;fill:#4D4D4D" textLength="22.02" lengthAdjust="spacingAndGlyphs">0.075</text><text x="517.49" y="315.06" text-anchor="middle" style="font-family:Arial;font-size:8.80px;fill:#4D4D4D" textLength="22.02" lengthAdjust="spacingAndGlyphs">0.100</text><text x="579.29" y="315.06" text-anchor="middle" style="font-family:Arial;font-size:8.80px;fill:#4D4D4D" textLength="22.02" lengthAdjust="spacingAndGlyphs">0.125</text><text x="641.09" y="315.06" text-anchor="middle" style="font-family:Arial;font-size:8.80px;fill:#4D4D4D" textLength="22.02" lengthAdjust="spacingAndGlyphs">0.150</text><text x="539.39" y="327.64" text-anchor="middle" style="font-family:Arial;font-size:11.00px" textLength="92.97" lengthAdjust="spacingAndGlyphs">mean_smoothness</text><text transform="rotate(-90 301.12 -62.58)" text-anchor="middle" style="font-family:Arial;font-size:11.00px" textLength="34.86" lengthAdjust="spacingAndGlyphs">density</text></g><g clip-path="url(#c17)"><path style="stroke-width:1.07;stroke:#FFFFFF;fill:#FFFFFF" d="M0 335.56h350.33v167.78H0z"/></g><g clip-path="url(#c19)"><path style="stroke-width:1.07;stroke:none;fill:#EBEBEB" d="M45.5 341.04h299.35V471.6H45.5z"/><path style="stroke-width:0.53;stroke:#FFFFFF;stroke-linecap:butt" d="M45.5 452.7h299.35M45.5 426.78h299.35M45.5 400.85h299.35M45.5 374.93h299.35M45.5 349.01h299.35M91.08 471.6V341.04M163.79 471.6V341.04M236.51 471.6V341.04M309.22 471.6V341.04"/><path style="stroke-width:1.07;stroke:#FFFFFF;stroke-linecap:butt" d="M45.5 465.66h299.35M45.5 439.74h299.35M45.5 413.82h299.35M45.5 387.89h299.35M45.5 361.97h299.35M54.72 471.6V341.04M127.43 471.6V341.04M200.15 471.6V341.04M272.87 471.6V341.04"/><path style="stroke-width:0.43;stroke-linecap:square;stroke-linejoin:miter;fill:#0000FF;fill-opacity:0.20" d="M59.11 463.84h9.07v1.83h-9.07zM68.18 458.36h9.07v7.3h-9.07zM77.25 447.4h9.07v18.26h-9.07zM86.32 420.01h9.07v45.65h-9.07zM95.39 420.01h9.07v45.65h-9.07z"/><path style="stroke-width:0.43;stroke-linecap:square;stroke-linejoin:miter;fill:#0000FF;fill-opacity:0.20" d="M104.46 390.8h9.07v74.87h-9.07zM113.54 346.97h9.07v118.69h-9.07z"/><path style="stroke-width:0.43;stroke-linecap:square;stroke-linejoin:miter;fill:#0000FF;fill-opacity:0.20" d="M122.61 354.27h9.07v111.39h-9.07zM131.68 346.97h9.07v118.69h-9.07zM140.75 379.84h9.07v85.83h-9.07zM149.82 383.49h9.07v82.17h-9.07zM158.89 423.66h9.07v42h-9.07zM167.96 416.36h9.07v49.3h-9.07zM177.03 434.62h9.07v31.04h-9.07zM186.11 438.27h9.07v27.39h-9.07zM195.18 429.14h9.07v36.52h-9.07zM204.25 441.93h9.07v23.74h-9.07zM213.32 429.14h9.07v36.52h-9.07zM222.39 432.8h9.07v32.87h-9.07zM231.46 451.06h9.07v14.61h-9.07zM240.53 456.53h9.07v9.13h-9.07zM249.61 460.19h9.07v5.48h-9.07zM258.68 460.19h9.07v5.48h-9.07zM267.75 463.84h9.07v1.83h-9.07zM276.82 462.01h9.07v3.65h-9.07zM285.89 463.84h9.07v1.83h-9.07zM294.96 463.84h9.07v1.83h-9.07zM304.03 463.84h9.07v1.83h-9.07zM313.1 463.84h9.07v1.83h-9.07zM322.18 463.84h9.07v1.83h-9.07z"/><path style="stroke-width:0.00;stroke:none" d="M61.61 462.22l.51-.21.52-.21.51-.22.52-.23.51-.24.52-.25.51-.27.52-.27.51-.29.51-.3.52-.31.51-.33.52-.34.51-.35.52-.37.51-.39.52-.4.51-.41.52-.44.51-.46.52-.47.51-.49.52-.51.51-.53.52-.55.51-.56.52-.59.51-.61.52-.63.51-.64.52-.67.51-.68.52-.71.51-.72.52-.74.51-.76.51-.78.52-.79.51-.8.52-.82.51-.84.52-.85.51-.86.52-.87.51-.88.52-.89.51-.9.52-.9.51-.92.52-.92.51-.92.52-.93.51-.93.52-.94.51-.94.52-.95.51-.95.52-.95.51-.96.52-.96.51-.97.52-.98.51-.98.51-1 .52-1 .51-1.01.52-1.02.51-1.04.52-1.05.51-1.07.52-1.09.51-1.1.52-1.13.51-1.14.52-1.17.51-1.19.52-1.21.51-1.23.52-1.26.51-1.28.52-1.31.51-1.33.52-1.35.51-1.37.52-1.4.51-1.41.52-1.42.51-1.44.52-1.46.51-1.46.51-1.47.52-1.48.51-1.47.52-1.47.51-1.47.52-1.46.51-1.44.52-1.43.51-1.41.52-1.39.51-1.36.52-1.33.51-1.29.52-1.27.51-1.23.52-1.17.51-1.14.52-1.1.51-1.05.52-.99.51-.95.52-.89.51-.85.52-.79.51-.72.51-.68.52-.63.51-.57.52-.51.51-.46.52-.41.51-.36.52-.3.51-.24.52-.2.51-.16.52-.09.51-.05.52-.01.51.04.52.09.51.14.52.18.51.21.52.26.51.32.52.34.51.39.52.42.51.47.52.5.51.54.51.58.52.61.51.65.52.68.51.71.52.74.51.78.52.8.51.83.52.86.51.88.52.91.51.92.52.95.51.96.52.98.51 1 .52 1 .51 1.02.52 1.03.51 1.03.52 1.04.51 1.05.52 1.05.51 1.05.52 1.06.51 1.05.51 1.05.52 1.05.51 1.05.52 1.04.51 1.04.52 1.04.51 1.03.52 1.03.51 1.02.52 1.02.51 1.01.52 1 .51 1 .52 1 .51.98.52.99.51.97.52.97.51.96.52.95.51.95.52.93.51.93.52.92.51.91.51.9.52.88.51.87.52.86.51.85.52.84.51.82.52.8.51.79.52.78.51.75.52.74.51.72.52.71.51.68.52.67.51.65.52.63.51.62.52.59.51.58.52.56.51.55.52.52.51.51.52.49.51.48.51.46.52.45.51.43.52.42.51.4.52.39.51.38.52.36.51.35.52.34.51.33.52.31.51.31.52.28.51.28.52.27.51.27.52.24.51.24.52.23.51.22.52.21.51.2.52.19.51.18.52.18.51.16.51.16.52.14.51.15.52.13.51.12.52.12.51.11.52.1.51.1.52.09.51.08.52.08.51.06.52.07.51.05.52.05.51.05.52.03.51.03.52.03.51.02.52.01h1.54l.52-.02.51-.01.51-.03.52-.03.51-.03.52-.04.51-.05.52-.04.51-.06.52-.05.51-.06.52-.06.51-.06.52-.06.51-.06.52-.06.51-.06.52-.05.51-.05.52-.05.51-.03.52-.03.51-.02h1.03l.52.02.51.03.51.05.52.06.51.08.52.1.51.12.52.14.51.15.52.18.51.2.52.22.51.24.52.26.51.28.52.31.51.32.52.34.51.37.52.38.51.39.52.41.51.43.52.45.51.45.52.47.51.47.52.49.51.49.51.5.52.51.51.51.52.51.51.51.52.51.51.51.52.51.51.51.52.5.51.49.52.49.51.49.52.47.51.47.52.46.51.44.52.44.51.43.52.42.51.41.52.4.51.38.52.37.51.37.52.35.51.34.51.32.52.32.51.3.52.29.51.29.52.26.51.26.52.25.51.24.52.22.51.22.52.21.51.2.52.18.51.18.52.18.51.16.52.16.51.15.52.14.51.14.52.14.51.12.52.13.51.12.51.12.52.11.51.11.52.11.51.11.52.11.51.1.52.11.51.1.52.1.51.11.52.1.51.1.52.1.51.1.52.1.51.1.52.1.51.1.52.09.51.1.52.09.51.09.52.09.51.09.52.09.51.08.51.08.52.07.51.07.52.07.51.07.52.06.51.06.52.05.51.05.52.05.51.04.52.04.51.04.52.03.51.03.52.03.51.02.52.03.51.02.52.01.51.02.52.01.51.01.52.02.51.01.52.01h.51l.51.01.52.01.51.01.52.01.51.01.52.01.51.01.52.01.51.01.52.02.51.01.52.02.51.01.52.02.51.02.52.02.51.02.52.02.51.02.52.02.51.03.52.02.51.03.52.02.51.03.52.02.51.02.51.03.52.02.51.03.52.02.51.02.52.02.51.02.52.02.51.01.52.02.51.01.52.02.51.01h.52l.51.01h.52l.51.01h1.55l.51-.01h.52l.51-.01.52-.01.51-.01.51-.01.52-.01.51-.01.52-.01.51-.01.52-.01.51-.01.52-.01h.51l.52-.01.51-.01h2.06l.52.01.51.01.52.01.51.01.52.02.51.01.52.03.51.02.52.03.51.03.52.03v1.66H61.61z"/><path style="stroke-width:1.07" d="M61.61 462.22l.51-.21.52-.21.51-.22.52-.23.51-.24.52-.25.51-.27.52-.27.51-.29.51-.3.52-.31.51-.33.52-.34.51-.35.52-.37.51-.39.52-.4.51-.41.52-.44.51-.46.52-.47.51-.49.52-.51.51-.53.52-.55.51-.56.52-.59.51-.61.52-.63.51-.64.52-.67.51-.68.52-.71.51-.72.52-.74.51-.76.51-.78.52-.79.51-.8.52-.82.51-.84.52-.85.51-.86.52-.87.51-.88.52-.89.51-.9.52-.9.51-.92.52-.92.51-.92.52-.93.51-.93.52-.94.51-.94.52-.95.51-.95.52-.95.51-.96.52-.96.51-.97.52-.98.51-.98.51-1 .52-1 .51-1.01.52-1.02.51-1.04.52-1.05.51-1.07.52-1.09.51-1.1.52-1.13.51-1.14.52-1.17.51-1.19.52-1.21.51-1.23.52-1.26.51-1.28.52-1.31.51-1.33.52-1.35.51-1.37.52-1.4.51-1.41.52-1.42.51-1.44.52-1.46.51-1.46.51-1.47.52-1.48.51-1.47.52-1.47.51-1.47.52-1.46.51-1.44.52-1.43.51-1.41.52-1.39.51-1.36.52-1.33.51-1.29.52-1.27.51-1.23.52-1.17.51-1.14.52-1.1.51-1.05.52-.99.51-.95.52-.89.51-.85.52-.79.51-.72.51-.68.52-.63.51-.57.52-.51.51-.46.52-.41.51-.36.52-.3.51-.24.52-.2.51-.16.52-.09.51-.05.52-.01.51.04.52.09.51.14.52.18.51.21.52.26.51.32.52.34.51.39.52.42.51.47.52.5.51.54.51.58.52.61.51.65.52.68.51.71.52.74.51.78.52.8.51.83.52.86.51.88.52.91.51.92.52.95.51.96.52.98.51 1 .52 1 .51 1.02.52 1.03.51 1.03.52 1.04.51 1.05.52 1.05.51 1.05.52 1.06.51 1.05.51 1.05.52 1.05.51 1.05.52 1.04.51 1.04.52 1.04.51 1.03.52 1.03.51 1.02.52 1.02.51 1.01.52 1 .51 1 .52 1 .51.98.52.99.51.97.52.97.51.96.52.95.51.95.52.93.51.93.52.92.51.91.51.9.52.88.51.87.52.86.51.85.52.84.51.82.52.8.51.79.52.78.51.75.52.74.51.72.52.71.51.68.52.67.51.65.52.63.51.62.52.59.51.58.52.56.51.55.52.52.51.51.52.49.51.48.51.46.52.45.51.43.52.42.51.4.52.39.51.38.52.36.51.35.52.34.51.33.52.31.51.31.52.28.51.28.52.27.51.27.52.24.51.24.52.23.51.22.52.21.51.2.52.19.51.18.52.18.51.16.51.16.52.14.51.15.52.13.51.12.52.12.51.11.52.1.51.1.52.09.51.08.52.08.51.06.52.07.51.05.52.05.51.05.52.03.51.03.52.03.51.02.52.01h1.54l.52-.02.51-.01.51-.03.52-.03.51-.03.52-.04.51-.05.52-.04.51-.06.52-.05.51-.06.52-.06.51-.06.52-.06.51-.06.52-.06.51-.06.52-.05.51-.05.52-.05.51-.03.52-.03.51-.02h1.03l.52.02.51.03.51.05.52.06.51.08.52.1.51.12.52.14.51.15.52.18.51.2.52.22.51.24.52.26.51.28.52.31.51.32.52.34.51.37.52.38.51.39.52.41.51.43.52.45.51.45.52.47.51.47.52.49.51.49.51.5.52.51.51.51.52.51.51.51.52.51.51.51.52.51.51.51.52.5.51.49.52.49.51.49.52.47.51.47.52.46.51.44.52.44.51.43.52.42.51.41.52.4.51.38.52.37.51.37.52.35.51.34.51.32.52.32.51.3.52.29.51.29.52.26.51.26.52.25.51.24.52.22.51.22.52.21.51.2.52.18.51.18.52.18.51.16.52.16.51.15.52.14.51.14.52.14.51.12.52.13.51.12.51.12.52.11.51.11.52.11.51.11.52.11.51.1.52.11.51.1.52.1.51.11.52.1.51.1.52.1.51.1.52.1.51.1.52.1.51.1.52.09.51.1.52.09.51.09.52.09.51.09.52.09.51.08.51.08.52.07.51.07.52.07.51.07.52.06.51.06.52.05.51.05.52.05.51.04.52.04.51.04.52.03.51.03.52.03.51.02.52.03.51.02.52.01.51.02.52.01.51.01.52.02.51.01.52.01h.51l.51.01.52.01.51.01.52.01.51.01.52.01.51.01.52.01.51.01.52.02.51.01.52.02.51.01.52.02.51.02.52.02.51.02.52.02.51.02.52.02.51.03.52.02.51.03.52.02.51.03.52.02.51.02.51.03.52.02.51.03.52.02.51.02.52.02.51.02.52.02.51.01.52.02.51.01.52.02.51.01h.52l.51.01h.52l.51.01h1.55l.51-.01h.52l.51-.01.52-.01.51-.01.51-.01.52-.01.51-.01.52-.01.51-.01.52-.01.51-.01.52-.01h.51l.52-.01.51-.01h2.06l.52.01.51.01.52.01.51.01.52.02.51.01.52.03.51.02.52.03.51.03.52.03"/></g><g clip-path="url(#c20)"><text x="40.57" y="468.82" text-anchor="end" style="font-family:Arial;font-size:8.80px;fill:#4D4D4D" textLength="22.02" lengthAdjust="spacingAndGlyphs">0.000</text><text x="40.57" y="442.89" text-anchor="end" style="font-family:Arial;font-size:8.80px;fill:#4D4D4D" textLength="22.02" lengthAdjust="spacingAndGlyphs">0.005</text><text x="40.57" y="416.97" text-anchor="end" style="font-family:Arial;font-size:8.80px;fill:#4D4D4D" textLength="22.02" lengthAdjust="spacingAndGlyphs">0.010</text><text x="40.57" y="391.05" text-anchor="end" style="font-family:Arial;font-size:8.80px;fill:#4D4D4D" textLength="22.02" lengthAdjust="spacingAndGlyphs">0.015</text><text x="40.57" y="365.12" text-anchor="end" style="font-family:Arial;font-size:8.80px;fill:#4D4D4D" textLength="22.02" lengthAdjust="spacingAndGlyphs">0.020</text><path style="stroke-width:1.07;stroke:#333333;stroke-linecap:butt" d="M42.76 465.66h2.74M42.76 439.74h2.74M42.76 413.82h2.74M42.76 387.89h2.74M42.76 361.97h2.74M54.72 474.34v-2.74M127.43 474.34v-2.74M200.15 474.34v-2.74M272.87 474.34v-2.74"/><text x="54.72" y="482.84" text-anchor="middle" style="font-family:Arial;font-size:8.80px;fill:#4D4D4D" textLength="9.79" lengthAdjust="spacingAndGlyphs">40</text><text x="127.43" y="482.84" text-anchor="middle" style="font-family:Arial;font-size:8.80px;fill:#4D4D4D" textLength="9.79" lengthAdjust="spacingAndGlyphs">80</text><text x="200.15" y="482.84" text-anchor="middle" style="font-family:Arial;font-size:8.80px;fill:#4D4D4D" textLength="14.69" lengthAdjust="spacingAndGlyphs">120</text><text x="272.87" y="482.84" text-anchor="middle" style="font-family:Arial;font-size:8.80px;fill:#4D4D4D" textLength="14.69" lengthAdjust="spacingAndGlyphs">160</text><text x="195.18" y="495.42" text-anchor="middle" style="font-family:Arial;font-size:11.00px" textLength="80.11" lengthAdjust="spacingAndGlyphs">mean_perimeter</text><text transform="rotate(-90 209.845 196.475)" text-anchor="middle" style="font-family:Arial;font-size:11.00px" textLength="34.86" lengthAdjust="spacingAndGlyphs">density</text></g></svg>