<svg xmlns="http://www.w3.org/2000/svg" class="httpgd" width="1116" height="877"><defs><clipPath id="c0"><path d="M0 0h1116v877H0z"/></clipPath><clipPath id="c1"><path d="M33.27 23.34h1077.25v821.93H33.27z"/></clipPath><clipPath id="c2"><path d="M0 0h1116v877H0z"/></clipPath><style><![CDATA[
    .httpgd line, .httpgd polyline, .httpgd polygon, .httpgd path, .httpgd rect, .httpgd circle {
      fill: none;
      stroke: #000000;
      stroke-linecap: round;
      stroke-linejoin: round;
      stroke-miterlimit: 10.00;
    }
  ]]></style></defs><rect width="100%" height="100%" style="stroke:none;fill:#FFFFFF"/><g clip-path="url(#c0)"><path style="stroke-width:1.07;stroke:#FFFFFF;fill:#FFFFFF" d="M0 0h1116v877H0z"/></g><g clip-path="url(#c1)"><path style="stroke-width:1.07;stroke:none;fill:#EBEBEB" d="M33.27 23.34h1077.25v821.93H33.27z"/><path style="stroke-width:0.53;stroke:#FFFFFF;stroke-linecap:butt" d="M33.27 674.23h1077.25M33.27 421.54h1077.25M33.27 168.85h1077.25"/><path style="stroke-width:1.07;stroke:#FFFFFF;stroke-linecap:butt" d="M33.27 800.58h1077.25M33.27 547.89h1077.25M33.27 295.19h1077.25M33.27 42.5h1077.25M327.06 845.27V23.34M816.72 845.27V23.34"/><path style="stroke-width:0.71;stroke:#0000FF" d="M320.53 790.98l6.53-6.54 6.54 6.54-6.54 6.53zM320.53 752.82l6.53-6.54 6.54 6.54-6.54 6.54zM320.53 232.78l6.53-6.54 6.54 6.54-6.54 6.54zM320.53 60.7l6.53-6.54 6.54 6.54-6.54 6.53zM320.53 205.24l6.53-6.54 6.54 6.54-6.54 6.53zM320.53 266.89l6.53-6.53 6.54 6.53-6.54 6.54z"/><path style="stroke-width:0.71;stroke:#0000FF" d="M320.53 279.53l6.53-6.54 6.54 6.54-6.54 6.53z"/><path style="stroke-width:1.07;stroke:#333333;stroke-linecap:butt" d="M327.06 452.75V300M327.06 564.88v128.05"/><path style="stroke-width:1.07;stroke:#333333;fill:#FFFFFF" d="M143.44 452.75v112.13h367.25V452.75H143.44z"/><path style="stroke-width:2.13;stroke:#333333;stroke-linecap:butt" d="M143.44 510.99h367.25"/><path style="stroke-width:0.71;stroke:#0000FF" d="M810.19 368.98l6.53-6.54 6.54 6.54-6.54 6.54zM810.19 198.92l6.53-6.54 6.54 6.54-6.54 6.54zM810.19 349.52l6.53-6.53 6.54 6.53-6.54 6.54z"/><path style="stroke-width:0.71;stroke:#0000FF" d="M810.19 340.43l6.53-6.54 6.54 6.54-6.54 6.53z"/><path style="stroke-width:0.71;stroke:#0000FF" d="M810.19 339.92l6.53-6.54 6.54 6.54-6.54 6.54zM810.19 277l6.53-6.54 6.54 6.54-6.54 6.54zM810.19 313.14l6.53-6.54 6.54 6.54-6.54 6.53z"/><path style="stroke-width:0.71;stroke:#0000FF" d="M810.19 340.68l6.53-6.54 6.54 6.54-6.54 6.54zM810.19 371.25l6.53-6.53 6.54 6.53-6.54 6.54z"/><path style="stroke-width:0.71;stroke:#0000FF" d="M810.19 342.19l6.53-6.53 6.54 6.53-6.54 6.54zM810.19 295.95l6.53-6.53 6.54 6.53-6.54 6.54z"/><path style="stroke-width:0.71;stroke:#0000FF" d="M810.19 344.22l6.53-6.54 6.54 6.54-6.54 6.53zM810.19 309.6l6.53-6.54 6.54 6.54-6.54 6.53z"/><path style="stroke-width:0.71;stroke:#0000FF" d="M810.19 322.48l6.53-6.53 6.54 6.53-6.54 6.54zM810.19 355.59l6.53-6.54 6.54 6.54-6.54 6.53z"/><path style="stroke-width:0.71;stroke:#0000FF" d="M810.19 348.76l6.53-6.53 6.54 6.53-6.54 6.54zM810.19 367.21l6.53-6.54 6.54 6.54-6.54 6.54zM810.19 311.11l6.53-6.53 6.54 6.53-6.54 6.54z"/><path style="stroke-width:1.07;stroke:#333333;stroke-linecap:butt" d="M816.72 553.95V409.16M816.72 670.44v137.47"/><path style="stroke-width:1.07;stroke:#333333;fill:#FFFFFF" d="M633.1 553.95v116.49h367.25V553.95H633.1z"/><path style="stroke-width:2.13;stroke:#333333;stroke-linecap:butt" d="M633.1 613.84h367.25"/></g><g clip-path="url(#c2)"><text x="28.34" y="803.73" text-anchor="end" style="font-family:Arial;font-size:8.80px;fill:#4D4D4D" textLength="9.79" lengthAdjust="spacingAndGlyphs">10</text><text x="28.34" y="551.04" text-anchor="end" style="font-family:Arial;font-size:8.80px;fill:#4D4D4D" textLength="9.79" lengthAdjust="spacingAndGlyphs">20</text><text x="28.34" y="298.35" text-anchor="end" style="font-family:Arial;font-size:8.80px;fill:#4D4D4D" textLength="9.79" lengthAdjust="spacingAndGlyphs">30</text><text x="28.34" y="45.66" text-anchor="end" style="font-family:Arial;font-size:8.80px;fill:#4D4D4D" textLength="9.79" lengthAdjust="spacingAndGlyphs">40</text><path style="stroke-width:1.07;stroke:#333333;stroke-linecap:butt" d="M30.53 800.58h2.74M30.53 547.89h2.74M30.53 295.19h2.74M30.53 42.5h2.74M327.06 848.01v-2.74M816.72 848.01v-2.74"/><text x="327.06" y="856.5" text-anchor="middle" style="font-family:Arial;font-size:8.80px;fill:#4D4D4D" textLength="4.9" lengthAdjust="spacingAndGlyphs">0</text><text x="816.72" y="856.5" text-anchor="middle" style="font-family:Arial;font-size:8.80px;fill:#4D4D4D" textLength="4.9" lengthAdjust="spacingAndGlyphs">1</text><text x="571.89" y="869.09" text-anchor="middle" style="font-family:Arial;font-size:11.00px" textLength="46.48" lengthAdjust="spacingAndGlyphs">diagnosis</text><text transform="rotate(-90 223.835 210.465)" text-anchor="middle" style="font-family:Arial;font-size:11.00px" textLength="67.28" lengthAdjust="spacingAndGlyphs">mean_texture</text><text x="33.27" y="14.94" style="font-family:Arial;font-size:13.20px" textLength="121.72" lengthAdjust="spacingAndGlyphs">Plot of mean_texture</text></g></svg>