<svg xmlns="http://www.w3.org/2000/svg" class="httpgd" width="572" height="590"><defs><clipPath id="c0"><path d="M0 0h572v590H0z"/></clipPath><clipPath id="c1"><path d="M59.04 30.24h482.72v500.72H59.04z"/></clipPath><clipPath id="c2"><path d="M0 0h572v590H0z"/></clipPath><clipPath id="c3"><path d="M59.04 30.24h482.72v500.72H59.04z"/></clipPath><style><![CDATA[.httpgd line,.httpgd polygon,.httpgd path,.httpgd rect{fill:none;stroke:#000000;stroke-linecap:round;stroke-linejoin:round;stroke-miterlimit:10.00}]]></style></defs><rect width="100%" height="100%" style="stroke:none;fill:#FFFFFF"/><g clip-path="url(#c2)"><text x="300.4" y="578.48" text-anchor="middle" style="font-family:Arial;font-size:12.00px" textLength="54.01" lengthAdjust="spacingAndGlyphs">Specificity</text><text transform="rotate(-90 150.38 130.22)" text-anchor="middle" style="font-family:Arial;font-size:12.00px" textLength="54.01" lengthAdjust="spacingAndGlyphs">Sensitivity</text><path style="stroke-width:0.75" d="M59.04 530.96h482.72V30.24H59.04zM523.88 530.96H76.92M523.88 530.96v7.2M434.49 530.96v7.2M345.1 530.96v7.2M255.7 530.96v7.2M166.31 530.96v7.2M76.92 530.96v7.2"/><text x="76.92" y="556.88" text-anchor="middle" style="font-family:Arial;font-size:12.00px" textLength="16.68" lengthAdjust="spacingAndGlyphs">1.0</text><text x="166.31" y="556.88" text-anchor="middle" style="font-family:Arial;font-size:12.00px" textLength="16.68" lengthAdjust="spacingAndGlyphs">0.8</text><text x="255.7" y="556.88" text-anchor="middle" style="font-family:Arial;font-size:12.00px" textLength="16.68" lengthAdjust="spacingAndGlyphs">0.6</text><text x="345.1" y="556.88" text-anchor="middle" style="font-family:Arial;font-size:12.00px" textLength="16.68" lengthAdjust="spacingAndGlyphs">0.4</text><text x="434.49" y="556.88" text-anchor="middle" style="font-family:Arial;font-size:12.00px" textLength="16.68" lengthAdjust="spacingAndGlyphs">0.2</text><text x="523.88" y="556.88" text-anchor="middle" style="font-family:Arial;font-size:12.00px" textLength="16.68" lengthAdjust="spacingAndGlyphs">0.0</text><path style="stroke-width:0.75" d="M59.04 504.08V57.12M59.04 504.08h-7.2M59.04 414.69h-7.2M59.04 325.3h-7.2M59.04 235.9h-7.2M59.04 146.51h-7.2M59.04 57.12h-7.2"/><text transform="rotate(-90 272.92 231.16)" text-anchor="middle" style="font-family:Arial;font-size:12.00px" textLength="16.68" lengthAdjust="spacingAndGlyphs">0.0</text><text transform="rotate(-90 228.225 186.465)" text-anchor="middle" style="font-family:Arial;font-size:12.00px" textLength="16.68" lengthAdjust="spacingAndGlyphs">0.2</text><text transform="rotate(-90 183.53 141.77)" text-anchor="middle" style="font-family:Arial;font-size:12.00px" textLength="16.68" lengthAdjust="spacingAndGlyphs">0.4</text><text transform="rotate(-90 138.83 97.07)" text-anchor="middle" style="font-family:Arial;font-size:12.00px" textLength="16.68" lengthAdjust="spacingAndGlyphs">0.6</text><text transform="rotate(-90 94.135 52.375)" text-anchor="middle" style="font-family:Arial;font-size:12.00px" textLength="16.68" lengthAdjust="spacingAndGlyphs">0.8</text><text transform="rotate(-90 49.44 7.68)" text-anchor="middle" style="font-family:Arial;font-size:12.00px" textLength="16.68" lengthAdjust="spacingAndGlyphs">1.0</text></g><g clip-path="url(#c3)"><path style="stroke-width:0.75;stroke:#00FF00;stroke-dasharray:1.00, 3.00" d="M523.88 530.96V30.24M479.19 530.96V30.24M434.49 530.96V30.24M389.79 530.96V30.24M345.1 530.96V30.24M300.4 530.96V30.24M255.7 530.96V30.24M211.01 530.96V30.24M166.31 530.96V30.24M121.61 530.96V30.24M76.92 530.96V30.24"/><path style="stroke-width:0.75;stroke:#FF0000;stroke-dasharray:1.00, 3.00" d="M59.04 504.08h482.72M59.04 414.69h482.72M59.04 325.3h482.72M59.04 235.9h482.72M59.04 146.51h482.72M59.04 57.12h482.72"/><path style="stroke-width:0.75;fill:#EEEEEE" d="M76.92 504.08V57.12h446.96v446.96z"/><path style="stroke-width:0.75;fill:#87CEEB" d="M523.88 57.12H192.68v3.45H170.17v1.73h-3.22v1.72h-16.07v3.45h-3.22v1.73h-6.43v5.18h-3.22v1.72H125.15v3.45h-3.21v1.73h-9.65v5.18h-3.22v5.17h-3.21V101.99h-3.22V114.07h-3.21V134.78h-3.22v6.9H93v22.43h-3.22v3.45h-3.21v32.79h-3.22v6.91h-3.22V253.85h-3.21V504.08h446.96z"/><path style="stroke-width:0.75;stroke:#A9A9A9" d="M59.04 521.96L541.76 39.24"/><path style="stroke-width:1.50;fill:none;stroke:#000000;stroke-linecap:round;stroke-linejoin:round;stroke-miterlimit:10.00" d="M523.88 57.12H192.68v3.45H170.17v1.73h-3.22v1.72h-16.07v3.45h-3.22v1.73h-6.43v5.18h-3.22v1.72H125.15v3.45h-3.21v1.73h-9.65v5.18h-3.22v5.17h-3.21V101.99h-3.22V114.07h-3.21V134.78h-3.22v6.9H93v22.43h-3.22v3.45h-3.21v32.79h-3.22v6.91h-3.22V253.85h-3.21V504.08"/><circle cx="112.29" cy="81.28" r="1.8" style="stroke-width:0.75;fill:#000000;stroke:#000000;stroke-linecap:round;stroke-linejoin:round;stroke-miterlimit:10.00"/><text x="117.69" y="92.04" style="font-family:Arial;font-size:12.00px" textLength="108.09" lengthAdjust="spacingAndGlyphs">0.588 (0.921, 0.946)</text><text x="300.4" y="289.21" style="font-family:Arial;font-size:12.00px" textLength="62.04" lengthAdjust="spacingAndGlyphs">AUC: 0.979</text></g></svg>