<svg xmlns="http://www.w3.org/2000/svg" class="httpgd" width="1067" height="1031"><defs><clipPath id="c0"><path d="M0 0h1067v1031H0z"/></clipPath><clipPath id="c1"><path d="M45.5 23.34h1016.02v975.93H45.5z"/></clipPath><clipPath id="c2"><path d="M0 0h1067v1031H0z"/></clipPath><style><![CDATA[
    .httpgd line, .httpgd polyline, .httpgd polygon, .httpgd path, .httpgd rect, .httpgd circle {
      fill: none;
      stroke: #000000;
      stroke-linecap: round;
      stroke-linejoin: round;
      stroke-miterlimit: 10.00;
    }
  ]]></style></defs><rect width="100%" height="100%" style="stroke:none;fill:#FFFFFF"/><g clip-path="url(#c0)"><path style="stroke-width:1.07;stroke:#FFFFFF;fill:#FFFFFF" d="M0 0h1067v1031H0z"/></g><g clip-path="url(#c1)"><path style="stroke-width:1.07;stroke:none;fill:#EBEBEB" d="M45.5 23.34h1016.02v975.93H45.5z"/><path style="stroke-width:0.53;stroke:#FFFFFF;stroke-linecap:butt" d="M45.5 875.85h1016.02M45.5 675.62h1016.02M45.5 475.38h1016.02M45.5 275.14h1016.02M45.5 74.9h1016.02"/><path style="stroke-width:1.07;stroke:#FFFFFF;stroke-linecap:butt" d="M45.5 975.97h1016.02M45.5 775.73h1016.02M45.5 575.5h1016.02M45.5 375.26h1016.02M45.5 175.02h1016.02M322.6 999.27V23.34M784.42 999.27V23.34"/><path style="stroke-width:0.71;stroke:#0000FF" d="M316.06 235.09l6.54-6.53 6.53 6.53-6.53 6.54zM316.06 256.72l6.54-6.54 6.53 6.54-6.53 6.54zM316.06 217.47l6.54-6.53 6.53 6.53-6.53 6.54z"/><path style="stroke-width:1.07;stroke:#333333;stroke-linecap:butt" d="M322.6 487.99V307.18M322.6 623.47v162.6"/><path style="stroke-width:1.07;stroke:#333333;fill:#FFFFFF" d="M149.41 487.99v135.48h346.37V487.99H149.41z"/><path style="stroke-width:2.13;stroke:#333333;stroke-linecap:butt" d="M149.41 557.88h346.37"/><path style="stroke-width:0.71;stroke:#0000FF" d="M777.89 342.42l6.53-6.54 6.54 6.54-6.54 6.54zM777.89 67.7l6.53-6.54 6.54 6.54-6.54 6.53zM777.89 278.35l6.53-6.54 6.54 6.54-6.54 6.53zM777.89 954.91l6.53-6.54 6.54 6.54-6.54 6.53z"/><path style="stroke-width:1.07;stroke:#333333;stroke-linecap:butt" d="M784.42 569.89V371.26M784.42 711.18v164.59"/><path style="stroke-width:1.07;stroke:#333333;fill:#FFFFFF" d="M611.24 569.89v141.29h346.37V569.89H611.24z"/><path style="stroke-width:2.13;stroke:#333333;stroke-linecap:butt" d="M611.24 649.5h346.37"/></g><g clip-path="url(#c2)"><text x="40.57" y="979.12" text-anchor="end" style="font-family:Arial;font-size:8.80px;fill:#4D4D4D" textLength="22.02" lengthAdjust="spacingAndGlyphs">0.050</text><text x="40.57" y="778.89" text-anchor="end" style="font-family:Arial;font-size:8.80px;fill:#4D4D4D" textLength="22.02" lengthAdjust="spacingAndGlyphs">0.075</text><text x="40.57" y="578.65" text-anchor="end" style="font-family:Arial;font-size:8.80px;fill:#4D4D4D" textLength="22.02" lengthAdjust="spacingAndGlyphs">0.100</text><text x="40.57" y="378.41" text-anchor="end" style="font-family:Arial;font-size:8.80px;fill:#4D4D4D" textLength="22.02" lengthAdjust="spacingAndGlyphs">0.125</text><text x="40.57" y="178.18" text-anchor="end" style="font-family:Arial;font-size:8.80px;fill:#4D4D4D" textLength="22.02" lengthAdjust="spacingAndGlyphs">0.150</text><path style="stroke-width:1.07;stroke:#333333;stroke-linecap:butt" d="M42.76 975.97h2.74M42.76 775.73h2.74M42.76 575.5h2.74M42.76 375.26h2.74M42.76 175.02h2.74M322.6 1002.01v-2.74M784.42 1002.01v-2.74"/><text x="322.6" y="1010.5" text-anchor="middle" style="font-family:Arial;font-size:8.80px;fill:#4D4D4D" textLength="4.9" lengthAdjust="spacingAndGlyphs">0</text><text x="784.42" y="1010.5" text-anchor="middle" style="font-family:Arial;font-size:8.80px;fill:#4D4D4D" textLength="4.9" lengthAdjust="spacingAndGlyphs">1</text><text x="553.51" y="1023.09" text-anchor="middle" style="font-family:Arial;font-size:11.00px" textLength="46.48" lengthAdjust="spacingAndGlyphs">diagnosis</text><text transform="rotate(-90 262.335 248.965)" text-anchor="middle" style="font-family:Arial;font-size:11.00px" textLength="92.97" lengthAdjust="spacingAndGlyphs">mean_smoothness</text><text x="45.5" y="14.94" style="font-family:Arial;font-size:13.20px" textLength="152.52" lengthAdjust="spacingAndGlyphs">Plot of mean_smoothness</text></g></svg>